<svg width="300" height="300" fill="none" xmlns="http://www.w3.org/2000/svg"><path d="M32.857 232.057c-.53-1.059-.88-1.957-1.049-2.694-.177-.732-.226-1.351-.146-1.857.08-.507.262-.929.549-1.267.27-.34.591-.636.961-.889.502-.343.987-.551 1.454-.625a2.438 2.438 0 0 1 1.347.185c.44.19.882.514 1.326.974.446.444.91 1.018 1.392 1.722.476.696.834 1.342 1.075 1.94.25.592.376 1.145.38 1.659a2.816 2.816 0 0 1-.432 1.438c-.276.447-.7.866-1.273 1.257l-1.695-1.826c.467-.319.89-.627 1.268-.924.37-.291.65-.599.841-.924.186-.333.258-.699.218-1.098-.04-.399-.238-.858-.593-1.377a11.753 11.753 0 0 0-1.078-1.376c-.339-.363-.675-.618-1.008-.765a1.775 1.775 0 0 0-1.023-.135c-.357.064-.747.24-1.17.528-.3.205-.5.459-.604.762-.111.308-.137.668-.075 1.078.055.402.18.859.375 1.371.19.504.435 1.06.735 1.669.37.767.64 1.436.81 2.004.154.566.213 1.069.177 1.507a2.428 2.428 0 0 1-.421 1.14c-.24.331-.57.641-.993.93-.423.289-.85.438-1.282.449-.44.017-.87-.071-1.286-.264a4.457 4.457 0 0 1-1.217-.816 7.115 7.115 0 0 1-1.05-1.221 10.157 10.157 0 0 1-1.015-1.825c-.244-.583-.369-1.124-.375-1.624-.02-.502.086-.969.321-1.401.226-.425.594-.812 1.105-1.161l1.516 1.677c-.44.301-.825.589-1.153.865-.343.273-.587.568-.73.887-.151.309-.19.658-.117 1.048.072.389.293.853.66 1.39.229.334.486.643.77.927.276.289.567.517.874.682.307.165.62.254.94.268.32.014.638-.087.955-.303.194-.133.349-.303.465-.512.107-.202.156-.461.146-.778-.01-.316-.08-.694-.213-1.133a12.2 12.2 0 0 0-.662-1.562zm-12.024-11.83-.23.111-4.998-10.326.231-.112 2 4.134 9.812-4.739.99 2.045-9.805 4.753 2 4.134zm-9.598-20.766-.655-2.176 6.36-1.911c.857-.257 1.555-.512 2.092-.762.527-.248.92-.516 1.178-.805.259-.289.4-.616.424-.979.024-.364-.037-.791-.185-1.281a3.337 3.337 0 0 0-.893-1.469 4.535 4.535 0 0 0-1.552-.938 6.425 6.425 0 0 0-2-.368 8.806 8.806 0 0 0-2.278.2l-5.18 1.556-.654-2.175 10.68-3.209.655 2.176-3.816 1.146a7.946 7.946 0 0 1 1.762.189c.57.118 1.098.299 1.583.543a4.59 4.59 0 0 1 1.264.924c.347.375.597.817.75 1.328.244.807.367 1.533.372 2.177.015.642-.103 1.212-.354 1.71-.25.499-.638.933-1.162 1.302-.527.359-1.204.662-2.032.911l-6.359 1.911zm-6.3-23.727-.284-2.254 2.572-.324a4.35 4.35 0 0 1-.661-.126 3.511 3.511 0 0 1-1.04-.45 3.805 3.805 0 0 1-.992-.956c-.308-.402-.504-.931-.587-1.587a7.247 7.247 0 0 1 .074-2.364 5.52 5.52 0 0 1 .853-2.058c.407-.61.956-1.12 1.646-1.529.68-.408 1.496-.672 2.448-.792.932-.117 1.766-.061 2.505.169a4.866 4.866 0 0 1 1.906 1.051 5.584 5.584 0 0 1 1.27 1.759c.313.692.521 1.45.625 2.276l.73 5.794-11.065 1.391zm10.145-6.903a3.384 3.384 0 0 0-.583-1.556 3.575 3.575 0 0 0-1.235-1.102c-.51-.291-1.104-.485-1.783-.582a7.911 7.911 0 0 0-2.227-.011c-1.81.228-3.15.729-4.02 1.505-.87.766-1.231 1.741-1.082 2.926.066.529.238.997.515 1.403.276.395.634.721 1.075.977.44.246.95.419 1.532.517.57.09 1.184.093 1.84.011l6.382-.802-.414-3.286zM2.856 151.86l-.004-2.272 11.152-.024.004 2.272-11.152.024zm5.654-11.326c-.994-.126-1.828-.424-2.5-.895a5.402 5.402 0 0 1-1.619-1.736 6.305 6.305 0 0 1-.78-2.259 8.665 8.665 0 0 1 .612-4.858 6.29 6.29 0 0 1 1.317-1.995 5.406 5.406 0 0 1 2-1.281c.767-.29 1.648-.373 2.643-.247 1.016.127 1.865.428 2.548.901a5.275 5.275 0 0 1 1.588 1.731c.386.683.646 1.436.78 2.259a9.04 9.04 0 0 1-.611 4.842 6.695 6.695 0 0 1-1.316 1.995 5.45 5.45 0 0 1-1.97 1.301c-.778.289-1.676.369-2.692.242zm-4.688-7.331a4.97 4.97 0 0 0 .074 1.719 3.43 3.43 0 0 0 .765 1.483c.375.434.902.812 1.582 1.134.67.31 1.524.531 2.562.661 1.037.131 1.924.129 2.66-.004.729-.145 1.334-.38 1.816-.707a3.427 3.427 0 0 0 1.108-1.247 4.967 4.967 0 0 0 .498-1.647c.075-.592.05-1.16-.075-1.703a3.413 3.413 0 0 0-.763-1.499c-.385-.446-.912-.824-1.583-1.134-.68-.311-1.54-.532-2.577-.663-1.037-.13-1.919-.128-2.645.006-.737.133-1.342.369-1.815.707a3.411 3.411 0 0 0-1.11 1.263 4.836 4.836 0 0 0-.497 1.631zm8.73-35.856 2.912 1.207c-.1-.065-.3-.211-.598-.439a4.158 4.158 0 0 1-.868-.914 3.992 3.992 0 0 1-.583-1.35c-.122-.512-.052-1.084.21-1.714.16-.384.36-.769.6-1.154.241-.385.522-.714.843-.985a2.5 2.5 0 0 1 1.074-.542c.399-.1.84-.05 1.323.15a2.3 2.3 0 0 1 .845.593c.229.257.4.553.515.89.108.321.16.671.152 1.05a4.09 4.09 0 0 1-.207 1.126c.231-.447.491-.864.78-1.253a4.12 4.12 0 0 1 .966-.95 2.581 2.581 0 0 1 1.189-.443c.43-.064.907.013 1.43.23.729.301 1.227.687 1.494 1.156.262.454.38.96.358 1.516a5.717 5.717 0 0 1-.352 1.725 57.69 57.69 0 0 1-.701 1.77l-1.952 4.699-10.302-4.27.872-2.098zm4.7 1.948 5.35 2.218.829-1.995c.233-.561.418-1.062.554-1.502.141-.45.185-.847.132-1.193a1.708 1.708 0 0 0-.52-.96c-.293-.295-.75-.57-1.37-.828-.533-.22-1.005-.335-1.417-.344a2.03 2.03 0 0 0-1.1.27c-.318.181-.6.457-.846.828a6.756 6.756 0 0 0-.698 1.304l-.914 2.202zm-3.446-4.927c-.241.581-.27 1.135-.084 1.662.18.514.464.984.853 1.41.383.413.81.775 1.281 1.086.466.297.857.523 1.174.677l1.154-2.778a1.84 1.84 0 0 0 .146-.684 1.44 1.44 0 0 0-.172-.713c-.118-.245-.316-.477-.595-.696-.274-.23-.648-.442-1.12-.638-.415-.172-.766-.271-1.055-.299-.295-.04-.544-.023-.75.053a1.002 1.002 0 0 0-.492.35 2.072 2.072 0 0 0-.34.57zm6.929-14.804 4.473-7.56.22.13-3.315 5.605 4.27 2.522 2.591-4.379.22.13-2.59 4.38 4.656 2.75 3.317-5.605.234.138-4.473 7.56-9.603-5.671zm24.568-16.359-5.408 6.88-8.774-6.883 1.404-1.786.013.01.01-.013 8.56 6.716 3.994-5.082.201.158zm-1.63-15.158 1.673-1.561 6.554 1.106-.681-6.586 1.684-1.572 7.616 8.146-1.661 1.55-7.332-7.842.68 6.631-6.587-1.118 7.332 7.842-1.661 1.55-7.617-8.146zM65.99 29.263l2.01-1.34 9.79 6.874-1.983 1.323-4.011-2.806-3.793 2.53 1.23 4.662-.24.16-3.003-11.403zm1.941 6.302 3.634-2.424-5.246-3.674 1.612 6.099zM87.602 21.36c1.13-.354 2.073-.555 2.828-.603.751-.058 1.37-.007 1.858.153s.876.408 1.163.744c.293.322.535.686.726 1.091.259.55.387 1.061.385 1.534a2.436 2.436 0 0 1-.396 1.3c-.258.403-.649.787-1.173 1.151-.51.37-1.151.735-1.924 1.098-.763.358-1.458.608-2.087.75-.624.152-1.19.188-1.7.109a2.822 2.822 0 0 1-1.351-.656c-.398-.343-.744-.829-1.039-1.456l2.074-1.38c.24.51.477.977.71 1.398.23.41.489.737.779.978.3.236.65.366 1.05.39.4.024.886-.097 1.455-.365a11.768 11.768 0 0 0 1.531-.842c.412-.276.718-.567.916-.872.198-.306.297-.635.296-.988-.006-.362-.118-.775-.335-1.239a1.504 1.504 0 0 0-.656-.717c-.288-.16-.639-.242-1.054-.248-.405-.01-.877.04-1.414.152-.528.106-1.116.259-1.765.457-.817.243-1.52.402-2.11.478-.583.062-1.088.04-1.516-.066a2.433 2.433 0 0 1-1.059-.598c-.289-.288-.543-.664-.76-1.128-.218-.463-.298-.909-.24-1.336a2.76 2.76 0 0 1 .466-1.227 4.42 4.42 0 0 1 1-1.07 7.138 7.138 0 0 1 1.373-.84c.705-.33 1.36-.567 1.964-.71.615-.147 1.17-.183 1.664-.11.5.06.944.24 1.333.541.384.291.708.716.972 1.276l-1.899 1.227a14.73 14.73 0 0 0-.67-1.275c-.216-.382-.469-.67-.76-.863-.282-.198-.62-.292-1.017-.283-.397.01-.89.153-1.478.43a6.44 6.44 0 0 0-1.039.61c-.33.226-.6.477-.813.753-.212.277-.35.571-.415.885-.064.313-.015.643.148.99.1.213.244.393.431.54.183.139.431.228.745.27.314.04.699.03 1.154-.03.45-.07 1-.204 1.65-.403zm31.272-3.798-2-10.971 2.235-.407c.158-.028.376-.052.654-.07.277-.029.585-.03.926-.006a6.12 6.12 0 0 1 1.102.157c.396.091.792.241 1.188.451 1.278.646 2.255 1.753 2.931 3.321l-.898-4.927 2.235-.407 2 10.972-2.235.406-.743-4.076c-.238-1.009-.549-1.852-.933-2.53-.373-.68-.788-1.229-1.243-1.644a4.805 4.805 0 0 0-1.411-.963 5.581 5.581 0 0 0-1.396-.43 5.081 5.081 0 0 0-1.235-.084 7.946 7.946 0 0 0-.893.098l1.951 10.703-2.235.407zm24.484-14.456 2.415-.063 4.613 11.034-2.383.063-1.896-4.512-4.558.12-1.447 4.6-.288.007 3.544-11.249zm-1.721 6.368 4.367-.115-2.477-5.905-1.89 6.02zm19.718-6.061 2.263.199-.979 11.109-2.263-.2.979-11.108zm18.349 13.953-8.589-1.68 2.144-10.944 2.23.436-.003.016.016.003-2.092 10.677 6.343 1.24-.049.252zm29.603 2.546c.994.644 1.75 1.24 2.269 1.79.524.541.88 1.05 1.068 1.527.188.478.244.934.169 1.37-.061.43-.187.849-.378 1.254-.259.55-.571.976-.936 1.276-.36.29-.778.465-1.254.524-.476.06-1.022.004-1.637-.167-.61-.157-1.301-.417-2.073-.78-.763-.358-1.4-.733-1.91-1.126-.516-.384-.905-.796-1.169-1.238a2.822 2.822 0 0 1-.357-1.458c.011-.525.165-1.102.46-1.729l2.387.714a23.35 23.35 0 0 0-.624 1.44c-.171.438-.257.845-.257 1.222.009.382.132.734.369 1.057.237.324.64.62 1.21.887.608.285 1.15.499 1.626.64.476.14.895.19 1.256.148a1.77 1.77 0 0 0 .95-.403c.276-.235.523-.585.741-1.048.154-.329.199-.65.134-.962-.06-.323-.22-.646-.481-.969a6.334 6.334 0 0 0-1.019-.991 18.9 18.9 0 0 0-1.479-1.066c-.709-.474-1.28-.913-1.714-1.317-.421-.41-.726-.813-.917-1.209a2.42 2.42 0 0 1-.215-1.196c.038-.407.166-.842.384-1.305.218-.463.51-.81.877-1.038a2.767 2.767 0 0 1 1.242-.424c.462-.054.95-.025 1.463.086a7.148 7.148 0 0 1 1.523.521c.705.331 1.305.684 1.801 1.058.506.379.888.782 1.146 1.21.273.422.418.88.434 1.37.021.481-.1 1.002-.363 1.562l-2.157-.677c.227-.483.412-.926.555-1.33.157-.41.217-.788.18-1.136-.027-.342-.171-.663-.431-.962-.26-.299-.685-.587-1.274-.863a6.447 6.447 0 0 0-1.134-.41 3.505 3.505 0 0 0-1.099-.144 2.169 2.169 0 0 0-.946.245c-.283.15-.506.399-.669.746-.1.213-.147.438-.141.677.01.228.099.477.268.744.169.268.422.558.758.869.342.302.796.639 1.364 1.011zm16.37 4.105.142-.213 9.543 6.367-.142.212-3.82-2.548-6.055 9.059-1.89-1.261 6.042-9.068-3.82-2.548zm18.811 13.036 1.668 1.543-4.513 4.87c-.609.657-1.082 1.23-1.418 1.718-.329.48-.532.91-.607 1.291-.076.38-.033.733.131 1.059.163.325.433.662.809 1.01.439.406.944.677 1.515.813a4.537 4.537 0 0 0 1.813.02 6.432 6.432 0 0 0 1.911-.695 8.808 8.808 0 0 0 1.863-1.328l3.676-3.967 1.668 1.543-7.581 8.18-1.668-1.543 2.708-2.922a7.879 7.879 0 0 1-1.614.73 6.414 6.414 0 0 1-1.641.334 4.6 4.6 0 0 1-1.558-.155 3.342 3.342 0 0 1-1.32-.764c-.619-.572-1.094-1.135-1.425-1.688-.338-.545-.525-1.096-.562-1.653-.036-.557.078-1.127.342-1.71.273-.577.702-1.182 1.29-1.816l4.513-4.87zm17.472 17.259 1.388 1.799-2.053 1.582a4.43 4.43 0 0 1 .634-.226 3.49 3.49 0 0 1 1.125-.14c.431.017.878.125 1.339.321.47.19.908.547 1.312 1.07.508.659.887 1.35 1.135 2.074a5.5 5.5 0 0 1 .309 2.206c-.041.733-.256 1.45-.643 2.152-.379.696-.949 1.337-1.71 1.923-.743.573-1.492.948-2.245 1.124a4.88 4.88 0 0 1-2.176.06 5.587 5.587 0 0 1-1.987-.872 7.89 7.89 0 0 1-1.694-1.644l-3.568-4.623 8.834-6.806zm-5.245 11.09c.365.473.796.821 1.292 1.045a3.58 3.58 0 0 0 1.624.324c.587-.008 1.198-.142 1.833-.402.641-.252 1.282-.625 1.925-1.12 1.444-1.113 2.345-2.224 2.702-3.334.362-1.1.179-2.124-.551-3.07a3.148 3.148 0 0 0-1.156-.947 3.328 3.328 0 0 0-1.422-.298 4.747 4.747 0 0 0-1.584.331 6.547 6.547 0 0 0-1.591.924l-5.096 3.925 2.024 2.622zm19.153 8.434 1.157 1.956-9.602 5.67-1.157-1.955 9.602-5.67zm.875 12.627c.921-.396 1.791-.561 2.609-.495a5.404 5.404 0 0 1 2.277.675 6.31 6.31 0 0 1 1.818 1.552 8.653 8.653 0 0 1 1.292 2.11c.33.763.545 1.56.646 2.387.11.823.07 1.618-.122 2.386a5.397 5.397 0 0 1-1.074 2.116c-.515.64-1.233 1.157-2.154 1.553-.94.405-1.825.576-2.653.514a5.286 5.286 0 0 1-2.247-.688 6.703 6.703 0 0 1-1.819-1.551 9.042 9.042 0 0 1-1.931-4.482 6.708 6.708 0 0 1 .122-2.386 5.443 5.443 0 0 1 1.038-2.119c.525-.644 1.257-1.167 2.198-1.572zm7.761 3.943a4.951 4.951 0 0 0-.936-1.444 3.428 3.428 0 0 0-1.411-.891c-.544-.184-1.191-.243-1.94-.176-.735.072-1.583.315-2.544.728-.96.413-1.724.864-2.292 1.352-.554.493-.956 1.003-1.205 1.528a3.415 3.415 0 0 0-.323 1.637 4.96 4.96 0 0 0 .406 1.671c.237.549.546 1.025.93 1.43.387.413.86.715 1.418.905.558.19 1.204.248 1.94.176.745-.077 1.597-.322 2.558-.735.96-.413 1.719-.861 2.277-1.345.568-.488.97-.998 1.206-1.529a3.41 3.41 0 0 0 .316-1.65 4.83 4.83 0 0 0-.4-1.657zm10.675 35.328-3.122.435c.119.005.365.03.737.075.383.043.787.159 1.212.348.426.199.822.489 1.187.869.366.379.595.907.69 1.584.057.412.08.845.068 1.299a4.188 4.188 0 0 1-.226 1.275 2.507 2.507 0 0 1-.651 1.011c-.293.289-.699.469-1.217.541-.359.05-.702.023-1.029-.083a2.552 2.552 0 0 1-.894-.505 3.09 3.09 0 0 1-.665-.828 4.11 4.11 0 0 1-.393-1.076c.027.502.015.994-.036 1.475a4.104 4.104 0 0 1-.351 1.308 2.57 2.57 0 0 1-.8.984c-.338.273-.788.449-1.348.527-.781.109-1.406.029-1.875-.24a2.757 2.757 0 0 1-1.078-1.126 5.698 5.698 0 0 1-.571-1.665 56.252 56.252 0 0 1-.295-1.881l-.703-5.039 11.046-1.538.314 2.25zm-5.04.702-5.736.798.298 2.14c.084.602.179 1.127.284 1.575.107.459.271.824.492 1.095.233.28.545.468.935.565.403.105.937.111 1.602.019.571-.08 1.036-.22 1.396-.421.359-.2.629-.464.81-.791.182-.316.285-.697.309-1.141a6.792 6.792 0 0 0-.06-1.478l-.33-2.361zm5.47 2.501c-.087-.623-.344-1.115-.771-1.475a4.086 4.086 0 0 0-1.45-.784 6.991 6.991 0 0 0-1.656-.286 11.95 11.95 0 0 0-1.355.011l.415 2.979c.034.243.108.464.222.663.116.211.286.386.51.527.226.152.514.252.866.3.352.058.782.052 1.289-.018.444-.062.797-.154 1.06-.277.275-.114.482-.256.62-.426.139-.159.221-.343.246-.551.037-.199.038-.42.004-.663zm1.541 16.27-.019 8.784-.256-.001.014-6.512-4.96-.01-.011 5.088-.256-.001.011-5.088-5.408-.012-.014 6.512h-.272l.019-8.784 11.152.024zm-12.87 26.549 1.17-8.673 11.053 1.488-.304 2.251-.016-.002-.002.016-10.783-1.452-.864 6.406-.254-.034zm9.095 12.236-.65 2.194-6.208 2.369 3.927 5.332-.654 2.209-10.695-3.162.646-2.178 10.295 3.044-3.949-5.372 6.244-2.375-10.296-3.044.646-2.179 10.694 3.162zm-9.703 27.497-1.052 2.175-11.924-.962 1.038-2.146 4.88.385 1.986-4.105-3.423-3.394.125-.26 8.37 8.307zm-4.869-4.448-1.902 3.932 6.384.507-4.482-4.439zm-9.747 22.209c-.795.878-1.505 1.53-2.132 1.954-.618.431-1.177.701-1.679.81-.501.11-.961.093-1.38-.051a4.402 4.402 0 0 1-1.179-.572c-.502-.343-.872-.719-1.109-1.127a2.432 2.432 0 0 1-.318-1.321c.018-.479.16-1.008.427-1.588.253-.576.62-1.217 1.102-1.921.476-.695.949-1.264 1.419-1.705.461-.447.931-.765 1.41-.955.481-.175.98-.215 1.497-.12.517.094 1.062.337 1.634.728l-1.087 2.241c-.467-.319-.908-.6-1.322-.845-.406-.238-.795-.387-1.167-.448a1.838 1.838 0 0 0-1.103.196c-.358.182-.714.533-1.07 1.052a11.8 11.8 0 0 0-.892 1.503c-.215.447-.331.852-.347 1.216a1.77 1.77 0 0 0 .245 1.001c.189.309.495.609.918.898.299.204.609.299.929.285.328-.008.673-.115 1.033-.321a6.284 6.284 0 0 0 1.142-.847c.401-.359.831-.789 1.29-1.289.581-.624 1.107-1.117 1.576-1.482.472-.349.918-.586 1.34-.712.425-.11.83-.117 1.217-.021.395.102.804.297 1.227.586.423.289.718.632.885 1.031.176.404.249.835.22 1.293a4.446 4.446 0 0 1-.319 1.429 7.139 7.139 0 0 1-.758 1.42c-.44.643-.884 1.179-1.334 1.608-.455.439-.914.751-1.378.938a2.652 2.652 0 0 1-1.423.21c-.479-.056-.974-.258-1.485-.607l1.014-2.02c.441.301.849.554 1.225.759.38.22.744.34 1.093.359.343.027.683-.063 1.02-.272.337-.209.689-.582 1.056-1.119.229-.335.424-.686.585-1.054.17-.362.277-.715.319-1.061.043-.345.013-.67-.09-.972-.103-.303-.313-.563-.63-.78a1.499 1.499 0 0 0-.646-.247c-.227-.026-.487.023-.778.147-.292.124-.618.327-.98.61-.352.288-.758.683-1.217 1.183zm-25.024 19.116 7.289 8.44-1.721 1.483a5.944 5.944 0 0 1-.528.392 5.246 5.246 0 0 1-.796.474c-.299.16-.642.301-1.029.424a4.843 4.843 0 0 1-1.253.213c-1.429.092-2.833-.367-4.212-1.376l3.274 3.791-1.721 1.483-7.289-8.44 1.72-1.483 2.709 3.136c.717.748 1.412 1.317 2.087 1.707.667.397 1.303.659 1.906.787.602.142 1.171.18 1.705.114.527-.06 1-.172 1.421-.338a5.09 5.09 0 0 0 1.108-.553c.302-.205.543-.384.72-.537l-7.111-8.234 1.721-1.483zm-13.771 24.86-2.05 1.278-9.575-7.171 2.023-1.261 3.923 2.927 3.869-2.413-1.086-4.697.244-.153 2.652 11.49zm-1.747-6.359-3.706 2.312 5.131 3.833-1.425-6.145zm-13.92 15.211-2.052.975-4.793-10.07 2.052-.975 4.793 10.07zm-22.897-2.731 8.257-2.903 3.705 10.518-2.143.754-.006-.015-.015.005-3.615-10.262-6.098 2.145-.085-.242zm-26.806 12.799c-1.183-.051-2.138-.183-2.865-.394-.725-.2-1.29-.459-1.695-.775-.404-.316-.684-.681-.84-1.095a4.373 4.373 0 0 1-.311-1.273c-.056-.605-.003-1.13.159-1.573.164-.433.435-.796.815-1.088.38-.292.879-.521 1.495-.685.606-.174 1.333-.3 2.183-.378.839-.078 1.578-.077 2.218.003.638.07 1.183.228 1.635.475.441.26.791.618 1.047 1.076.257.459.417 1.033.481 1.723l-2.419.594a22.994 22.994 0 0 0-.193-1.557c-.075-.464-.208-.859-.399-1.184a1.825 1.825 0 0 0-.854-.724c-.368-.159-.866-.21-1.493-.152-.669.062-1.244.153-1.726.273-.481.119-.867.289-1.158.509-.29.219-.495.495-.614.828-.118.343-.153.769-.106 1.279.033.361.157.66.372.897.216.248.518.445.907.591.378.148.838.26 1.381.339.532.079 1.137.135 1.815.169.851.05 1.566.139 2.146.267.57.14 1.038.333 1.403.577.356.257.62.564.793.923.173.37.284.81.331 1.319.047.51-.029.957-.229 1.339a2.758 2.758 0 0 1-.856.995c-.37.281-.805.503-1.304.667a7.14 7.14 0 0 1-1.577.323c-.775.072-1.472.072-2.089.001-.628-.071-1.161-.225-1.601-.463a2.652 2.652 0 0 1-1.07-.961c-.262-.404-.422-.915-.479-1.531l2.202-.509c.05.531.115 1.007.197 1.428.072.433.213.789.421 1.07.197.282.484.485.86.611s.888.159 1.535.099a6.385 6.385 0 0 0 1.185-.222c.387-.1.727-.244 1.021-.432.293-.188.523-.418.691-.69.167-.273.233-.601.198-.983a1.482 1.482 0 0 0-.222-.654c-.124-.192-.328-.361-.609-.506-.281-.146-.646-.267-1.094-.365a12.179 12.179 0 0 0-1.688-.181zm-16.194 4.755-.014.256-11.454-.653.015-.256 4.584.261.622-10.878 2.268.13-.605 10.879 4.584.261zm-22.829-1.707-2.22-.485 1.419-6.486c.192-.876.308-1.609.35-2.2.04-.581-.004-1.055-.131-1.421a1.598 1.598 0 0 0-.65-.846c-.306-.198-.71-.352-1.21-.461a3.345 3.345 0 0 0-1.718.067 4.548 4.548 0 0 0-1.573.901 6.45 6.45 0 0 0-1.293 1.569 8.802 8.802 0 0 0-.932 2.089l-1.156 5.283-2.219-.485 2.383-10.894 2.22.485-.852 3.892c.29-.527.63-1.009 1.021-1.448a6.43 6.43 0 0 1 1.244-1.12c.45-.306.923-.525 1.421-.656a3.344 3.344 0 0 1 1.526-.011c.823.18 1.518.424 2.083.733.568.299 1.009.679 1.323 1.141.314.461.505 1.011.573 1.648.058.635-.006 1.374-.19 2.218l-1.419 6.487zm-23.818-6.025-2.109-.847.968-2.404a4.529 4.529 0 0 1-.432.516 3.522 3.522 0 0 1-.899.691 3.83 3.83 0 0 1-1.317.402c-.502.074-1.06-.011-1.673-.258a7.24 7.24 0 0 1-2.03-1.212 5.517 5.517 0 0 1-1.385-1.745c-.335-.652-.514-1.379-.537-2.181-.026-.793.14-1.634.498-2.525.35-.87.806-1.573 1.365-2.107a4.882 4.882 0 0 1 1.845-1.156 5.597 5.597 0 0 1 2.155-.255 7.865 7.865 0 0 1 2.293.559l5.42 2.176-4.162 10.346zm-1.104-12.219a3.371 3.371 0 0 0-1.643-.246 3.587 3.587 0 0 0-1.564.544c-.502.305-.96.73-1.375 1.276a7.893 7.893 0 0 0-1.092 1.941c-.68 1.692-.893 3.107-.638 4.244.246 1.133.923 1.922 2.032 2.367.495.199.987.276 1.476.231.48-.049.939-.204 1.377-.465a4.74 4.74 0 0 0 1.197-1.088 6.58 6.58 0 0 0 .903-1.603l2.401-5.967-3.074-1.234zm-20.793 2.436-1.989-1.099 5.401-9.757 1.989 1.099-5.4 9.757zm-7.16-10.442c-.593.808-1.26 1.391-1.998 1.749a5.397 5.397 0 0 1-2.306.573 6.29 6.29 0 0 1-2.354-.416 8.658 8.658 0 0 1-3.95-2.892 6.298 6.298 0 0 1-1.105-2.119 5.387 5.387 0 0 1-.147-2.368c.119-.812.475-1.622 1.068-2.43.606-.826 1.282-1.422 2.027-1.789a5.281 5.281 0 0 1 2.286-.546 6.718 6.718 0 0 1 2.355.415 9.023 9.023 0 0 1 3.937 2.884 6.686 6.686 0 0 1 1.105 2.118c.23.75.29 1.534.179 2.352-.126.82-.492 1.643-1.097 2.469zm-8.69.537c.482.353.995.61 1.539.77a3.427 3.427 0 0 0 1.668.052c.563-.117 1.15-.394 1.762-.832.597-.435 1.205-1.074 1.823-1.917.618-.843 1.049-1.618 1.29-2.327.228-.706.316-1.349.265-1.928a3.43 3.43 0 0 0-.552-1.575 4.982 4.982 0 0 0-1.198-1.234 4.833 4.833 0 0 0-1.525-.76 3.41 3.41 0 0 0-1.682-.062c-.577.12-1.164.397-1.761.832-.604.444-1.215 1.087-1.833 1.93-.619.843-1.046 1.614-1.281 2.314-.242.709-.33 1.352-.264 1.929.06.586.247 1.114.564 1.584a4.84 4.84 0 0 0 1.185 1.224z" fill="#fff"/></svg>