<svg width="32" height="32" fill="none" xmlns="http://www.w3.org/2000/svg"><path d="M15.776 31.551c8.712 0 15.775-7.063 15.775-15.775C31.551 7.063 24.488 0 15.776 0 7.063 0 0 7.063 0 15.776 0 24.488 7.063 31.55 15.776 31.55z" fill="#000"/><path d="M21.36 11.507a1.226 1.226 0 1 0 0-2.451 1.226 1.226 0 0 0 0 2.45zm-5.448-.88a5.154 5.154 0 0 0-5.149 5.149 5.154 5.154 0 0 0 5.149 5.148 5.154 5.154 0 0 0 5.148-5.148 5.154 5.154 0 0 0-5.148-5.149zm0 8.446a3.302 3.302 0 0 1-3.298-3.297 3.301 3.301 0 0 1 3.298-3.298 3.301 3.301 0 0 1 3.297 3.298 3.301 3.301 0 0 1-3.297 3.297z" fill="#fff"/><path d="M19.999 26.228h-8.346a6.286 6.286 0 0 1-6.28-6.28v-8.346a6.286 6.286 0 0 1 6.28-6.279h8.346a6.286 6.286 0 0 1 6.28 6.28v8.346a6.286 6.286 0 0 1-6.28 6.279zM11.653 7.29a4.317 4.317 0 0 0-4.313 4.312v8.347a4.317 4.317 0 0 0 4.313 4.312h8.346a4.317 4.317 0 0 0 4.313-4.312v-8.347a4.317 4.317 0 0 0-4.313-4.312h-8.346z" fill="#fff"/></svg>