<svg width="246" height="287" fill="none" xmlns="http://www.w3.org/2000/svg"><path fill-rule="evenodd" clip-rule="evenodd" d="M161.247.04c-3.164.12-7.659.737-11.51 1.58-3.557.777-8.038 2.247-12.308 4.034-1.177.493-5.884 2.85-7.065 3.536-.533.311-1.046.6-1.14.643-.193.09-2.98 1.8-3.418 2.098-.157.108-.665.446-1.129.752-1.152.758-1.31.867-1.621 1.101-.149.112-.706.525-1.239.917-.533.393-1.496 1.12-2.139 1.62a69.212 69.212 0 0 1-1.539 1.164 4.344 4.344 0 0 0-.619.541c-.138.157-.284.284-.325.284-.041 0-.269.154-.506.341-.238.189-.466.343-.508.343-.042 0-.497.26-1.01.578-.513.317-1.034.637-1.158.712a23.81 23.81 0 0 0-.705.448c-.263.172-.513.313-.556.313-.044 0-.368.173-.721.386-.507.305-2.267 1.238-4.231 2.241-.59.302-3.322 1.59-3.372 1.59-.034 0-.327.122-.652.273-.325.151-1.156.514-1.845.803-.69.291-1.433.611-1.652.711-.22.1-.707.297-1.083.439-2.175.816-2.87 1.087-3.047 1.19a.873.873 0 0 1-.349.116c-.083 0-.48.133-.885.296-.403.162-.964.363-1.246.448a25.23 25.23 0 0 0-1.14.378c-.345.125-.909.311-1.253.412a24.74 24.74 0 0 0-1.197.393c-1.209.44-6.932 2.073-8.262 2.357-.407.086-1.074.256-1.482.377-.407.12-.97.254-1.253.297-.282.042-1.128.222-1.88.4-1.492.35-4.597.975-5.414 1.09-.282.039-1.01.17-1.62.29-1.492.294-2.484.416-5.046.618-2.29.18-6.717.681-7.579.858-.282.058-1.383.14-2.448.18-1.38.053-1.979.12-2.088.228a.592.592 0 0 1-.365.153c-.249 0-.404.188-.209.252.073.026-.17.108-.54.187-.637.133-1.407.35-4.106 1.154-.633.19-1.235.345-1.336.345-.308 0-4.47 1.434-5.584 1.922-.303.133-.606.242-.674.242-.068 0-.487.16-.93.354-.445.194-1.167.508-1.606.697-2.363 1.024-6.89 3.352-8.515 4.377-.268.17-.693.437-.943.593-.25.157-.67.43-.93.608-.262.178-.513.323-.56.323-.046 0-.25.127-.454.283-.204.154-.72.52-1.15.813a60.21 60.21 0 0 0-1.92 1.393c-.627.475-1.19.901-1.254.948-.099.075-1.957 1.636-2.96 2.486-1.019.867-3.794 3.612-4.903 4.855-1.256 1.406-1.822 2.057-2.08 2.393-.142.184-.398.509-.57.724a60.26 60.26 0 0 0-1.073 1.425c-.418.567-.893 1.213-1.057 1.433-1.84 2.462-4.828 8.055-5.936 11.11-.114.313-.243.621-.287.683a1.74 1.74 0 0 0-.16.4 37.25 37.25 0 0 1-.399 1.197c-2.833 8.148-3.288 17.831-1.244 26.438.384 1.619 1.377 4.874 1.641 5.38.091.175.166.381.167.459.001.286 1.81 4.303 2.601 5.779.734 1.37.835 1.548 1.242 2.198.206.328.374.637.374.688 0 .05.152.269.337.486.186.217.34.435.342.485.003.05.274.479.603.955l.765 1.106c.091.133.311.421.488.64.353.437.345.427.827 1.083.426.58 1.368 1.721 1.788 2.165.177.188.643.699 1.034 1.135 1.631 1.819 5.246 5.253 6.174 5.866.243.161 1.28.941 2.161 1.627.182.141.417.309.522.373.106.064.47.3.81.526 1.944 1.292 4.82 2.634 6.336 2.959.604.129.716.192.778.442.04.16.145.445.233.633.088.188.26.624.382.969.912 2.572 3.188 6.889 5.002 9.49.207.297.34.599.295.671-.048.078-.03.1.046.053.106-.066.405.296.418.506.002.035.221.292.487.57.266.278.484.555.484.616.001.061-.079-.004-.177-.145-.1-.142-.239-.221-.314-.178-.074.043-.099.038-.055-.011.044-.048-.072-.249-.256-.445-.184-.197-.335-.425-.336-.507 0-.082-.05-.117-.114-.079-.218.135-.11.411.342.882.25.261.456.506.456.544 0 .039.161.189.358.335.197.145.316.193.266.107-.05-.087.108.054.354.314.424.449 2.492 2.416 3.583 3.41.671.611 3.283 2.81 3.51 2.955.098.063.284.207.412.321.13.114.536.421.904.684.368.262.836.618 1.04.79.205.173.423.314.485.314.063 0 .183.082.266.184.084.101.411.334.727.518.315.185.804.511 1.086.726.282.215.718.5.97.634.25.134.545.323.655.419.11.097.3.232.42.3.121.069.645.381 1.165.694a78.06 78.06 0 0 0 3.628 2.073c1.786.969 4.626 2.336 6.21 2.991.502.207 1.01.427 1.131.49.611.317 5.95 2.22 7.303 2.602a74.004 74.004 0 0 0 13.525 2.511c1.9.171 8.276.068 9.836-.159 3.583-.519 5.569-.924 7.693-1.566a73.68 73.68 0 0 1 1.481-.434c.364-.096 1.296-.468 2.963-1.181a9.692 9.692 0 0 0 1.083-.554c.25-.157.699-.412.997-.566.298-.154.541-.319.541-.366 0-.047.066-.086.147-.086.081 0 .324-.151.541-.337.217-.185.441-.339.498-.342.136-.006 1.005-.652 1.5-1.116.217-.203.44-.37.494-.37.447 0 5.823-5.945 5.823-6.439 0-.046.154-.259.342-.473.188-.214.342-.444.342-.51 0-.067.115-.281.256-.476.392-.543 1.313-2.31 1.955-3.753 1.138-2.555 2.236-6.34 2.471-8.518.058-.534.157-1.304.221-1.711.194-1.242.262-4.729.124-6.315-.153-1.748-.31-1.535 1.259-1.717 4.554-.53 8.79-1.364 12.39-2.441.65-.194 1.217-.353 1.259-.353.086 0 .578.971.578 1.142 0 .121 1.69 3.604 2.017 4.157 1.241 2.097 1.801 3.001 1.982 3.198.12.129.217.268.217.308 0 .087 1.014 1.558 1.222 1.773.08.082.146.191.146.242 0 .14 1.653 2.196 3.069 3.816 1.665 1.904 4.103 4.317 5.94 5.876.332.282.683.603.78.713.097.109.214.199.262.199.047 0 .595.426 1.217.946a31.104 31.104 0 0 0 1.912 1.48c.429.294 1.087.754 1.464 1.023.376.269.844.59 1.041.714.197.123.711.455 1.143.737.431.282.885.575 1.009.651a95.036 95.036 0 0 0 2.533 1.479c.266.145.728.4 1.026.566.77.431 3.444 1.747 4.587 2.258.532.238 1.291.58 1.686.76.394.179.761.326.816.326.054 0 .423.154.821.342.397.188.789.342.871.342.082 0 .364.098.627.217s.785.305 1.161.413c.377.107.736.231.798.275.063.043.396.165.741.27l1.709.524c2.233.685 5.936 1.606 6.459 1.606a1.5 1.5 0 0 1 .589.162c.167.089.393.19.502.224.405.127.198.293-.285.229-.266-.035-.612-.012-.769.052-.249.101-.211.117.299.123.321.004.745.04.942.079.3.06.347.041.288-.113-.086-.224.234-.378.438-.211.078.063.343.098.589.077.247-.02.58.027.741.105.416.202 2.432.219 4.11.035 1.443-.159 2.199-.381 3.704-1.09.376-.177.812-.38.969-.451.31-.14 1.357-.744 1.889-1.089l.96-.622c1.301-.843 3.912-3.33 4.332-4.126.08-.153.181-.304.223-.336.601-.445 1.616-2.674 1.656-3.638.03-.727-.424-1.832-.753-1.832-.059 0-.298-.124-.532-.275-.234-.151-.938-.446-1.564-.655l-1.14-.38-2.507.002c-1.937.002-2.792.052-3.761.219-2.659.459-4.455.198-5.495-.798-1.133-1.085 1.168-3.812 4.379-5.189.301-.128.701-.307.89-.397.265-.125 1.023-.17 3.305-.194l2.961-.032 1.218-.414c3.986-1.356 6.101-4.339 5.697-8.036-.102-.935-.052-1.076.579-1.623.467-.406 1.224-1.855 1.224-2.343 0-.628-.943-1.876-1.61-2.132-.117-.045-.213-.126-.213-.181 0-.158-1.794-1.003-2.969-1.399-1.527-.515-5.032-.54-7.231-.051l-2.072.459c-1.077.239-3.339.996-4.993 1.672-.314.128-.878.349-1.254.491-.376.142-1.043.399-1.481.57-1.278.501-3.813 1.269-4.676 1.418-.437.075-1.307.268-1.934.428a12.16 12.16 0 0 1-2.483.351c-1.195.053-1.362.086-1.51.297-.455.649-.063 1.241 1.026 1.553.743.212 1.052.442 2.327 1.725.101.103.518.449.925.769.407.321.861.687 1.009.813 1.68 1.442 5.587 3.48 8.905 4.647l.969.34-.342.152c-1.557.695-4.119 3.185-4.613 4.484-.212.557-.248 1.957-.055 2.117.092.076.167.196.167.267 0 .313.927 1.116 1.724 1.493 1.281.606 3.186.773 5.854.514 4.465-.434 5.739-.364 7.459.408 1.035.464 1.088.837.3 2.086-.162.256-.294.512-.294.567 0 .055-.153.3-.339.544-2.375 3.103-5.296 5.234-8.721 6.36-3.061 1.007-6.311.863-11.658-.514-.708-.183-1.356-.332-1.439-.332-.233 0-4.257-1.243-5.365-1.657a18.523 18.523 0 0 0-.968-.337c-.619-.175-3.198-1.215-4.414-1.779-.39-.181-.74-.33-.776-.33-.166 0-4.704-2.33-5.979-3.07l-1.771-1.029c-.282-.163-2.949-1.929-3.966-2.624a76.106 76.106 0 0 1-1.727-1.277c-.432-.34-1.113-.871-1.386-1.081a15.175 15.175 0 0 1-.741-.627c-.23-.207-.81-.711-1.289-1.118-1.083-.921-4.384-4.178-5.074-5.007a29.59 29.59 0 0 0-.798-.924c-.29-.314-1.174-1.42-2.367-2.958-.65-.84-1.728-2.429-2.167-3.199-.123-.215-.444-.75-.713-1.188-.931-1.518-2.958-5.68-2.958-6.075 0-.051.372-.233.826-.404a60.054 60.054 0 0 0 3.106-1.271l1.766-.798c1.932-.872 3.564-1.741 4.72-2.512.371-.248.756-.501.855-.564.099-.063.36-.242.579-.398.219-.157.655-.46.969-.673.313-.214.754-.548.979-.742.225-.194.533-.45.684-.57.963-.762 2.996-2.722 4.098-3.951 1.674-1.867 3.526-4.179 3.526-4.404 0-.064.081-.185.18-.266.181-.151 1.872-2.679 1.872-2.799 0-.036.098-.203.217-.371.214-.3.627-1.023 1.066-1.866.286-.55.227-.571 1.233.456.754.77 1.423 1.361 2.879 2.542 1.592 1.291 4.829 2.774 7.497 3.434l1.524.377 2.906-.012c2.796-.011 2.949-.023 4.045-.324a42.29 42.29 0 0 1 1.539-.398c2.483-.531 6.402-2.948 8.95-5.52 3.81-3.845 7.118-11.051 7.118-15.506 0-.252.032-.273.264-.184.471.179 1.489.25 2.044.142l.541-.106.001 1.324c.007 5.996 2.535 13.42 5.514 16.188.163.152.297.33.297.397 0 .16 2.298 2.347 2.466 2.347.072 0 .159.073.193.162.15.389 3.016 1.96 4.35 2.382 1.961.622 4.45.82 5.983.476.47-.105 1.076-.237 1.346-.293.271-.056.963-.293 1.539-.526.953-.386 1.391-.609 2.756-1.407 1.283-.751 3.458-2.757 4.565-4.213.309-.408.591-.767.625-.798 1.784-1.627 4.683-9.26 5.121-13.486.206-1.987.363-3.323.393-3.353.017-.016.331-.108.698-.204 1.668-.434 2.29-1.684 1.997-4.017-.131-1.047-.217-1.294-.666-1.908-.875-1.198-7.128-3.479-10.754-3.924-.462-.055-1.481-.183-2.264-.281-4.081-.513-9.996-.188-13.507.745-.5.132-1.114.284-1.365.335-.449.093-2.738.885-3.9 1.35l-.595.239.065-.369c.035-.203.14-.65.232-.996l.167-.626.534-.02c.507-.017 2.844-.716 4.693-1.403 1.934-.719 3.463-.94 5.869-.853 3.197.116 4.655-.355 5.089-1.642.204-.606.064-9.853-.184-12.172-.371-3.469-.72-6.01-1.671-12.172-.558-3.62-.758-4.639-1.466-7.465a84.41 84.41 0 0 1-.465-1.938 9.62 9.62 0 0 0-.35-1.172c-.116-.3-.212-.718-.212-.931 0-.947-1.037-5.735-1.655-7.64-.744-2.293-2.849-6.755-3.773-7.997-.148-.2-.27-.404-.27-.456 0-.05-.171-.349-.381-.663-.209-.313-.695-1.057-1.08-1.652a40.94 40.94 0 0 0-.901-1.354 17.124 17.124 0 0 1-.373-.524c-.634-.939-.97-1.407-1.881-2.622-2.331-3.11-5.865-7.018-8.659-9.575a481.053 481.053 0 0 1-1.231-1.132c-.129-.12-.751-.644-1.383-1.165-2.137-1.764-2.627-2.15-3.655-2.889a44.057 44.057 0 0 0-2.059-1.413c-.372-.244-1.012-.667-1.423-.94-.41-.272-.791-.496-.845-.496-.055 0-.181-.072-.279-.16-.099-.089-.437-.3-.75-.473-.314-.17-.878-.483-1.254-.693-1.663-.927-4.934-2.48-6.552-3.113-.533-.208-1.215-.476-1.515-.596-1.876-.747-6.541-2.105-8.115-2.362a98.736 98.736 0 0 1-2.051-.383c-3.727-.73-8.658-1.08-12.935-.917zm6.496 1.91c3.451.218 8.117.978 10.548 1.72.505.154 1.018.28 1.14.28.121.001.631.154 1.132.342.502.187.979.341 1.06.341.082.001.569.161 1.083.357l1.96.746a87.12 87.12 0 0 1 4.046 1.738c.253.122 1.162.59 1.424.731.125.068.536.286.912.483 1.249.655 1.803.973 2.086 1.195.154.123.333.222.397.222s.275.117.469.26c.194.144.712.48 1.15.748.439.267 1.08.69 1.425.94s.806.58 1.025.732c.22.153.681.486 1.026.738s.755.547.912.655c.156.108.336.252.399.318.062.067.317.271.565.454.249.183.533.41.633.507.099.095.383.342.631.549.905.75 1.33 1.127 2.352 2.075 1.708 1.588 3.397 3.28 3.397 3.405 0 .064.074.159.165.21.22.122 1.774 1.868 2.931 3.291 1.27 1.565 2.488 3.128 2.488 3.196 0 .038.141.238.313.444.559.67 1.055 1.383 1.055 1.515 0 .072.129.271.288.445.158.174.5.648.758 1.055.259.409.697 1.091.973 1.518a38.285 38.285 0 0 1 2.491 4.409c.29.595.651 1.32.801 1.61.15.291.273.584.273.652 0 .069.128.404.284.747.157.342.285.664.285.715-.001.111-.559-.553-.565-.672-.004-.072-.511-.86-1.329-2.069-.365-.54-2.406-2.35-2.649-2.35-.065 0-.159-.073-.209-.161-.119-.211-1.954-1.36-3.408-2.133-1.022-.544-1.23-.71-1.841-1.468a26.206 26.206 0 0 0-1.213-1.397c-.288-.3-.524-.582-.524-.63 0-.224-4.918-5.015-5.279-5.142a.714.714 0 0 1-.248-.18c-.308-.363-2.742-2.013-3.944-2.674-.177-.097-.875-.48-1.551-.853-1.427-.787-2.834-1.49-3.963-1.98l-1.724-.753c-.509-.224-.986-.407-1.059-.407-.073 0-.323-.096-.555-.212-1.136-.57-6.855-2.278-8.286-2.474a23.413 23.413 0 0 1-1.539-.294c-1.258-.282-5.67-.665-7.635-.663-2.263.002-5.36.319-7.863.804-1.815.351-5.276 1.174-5.801 1.377-.163.063-.681.233-1.151.378-2.378.736-6.475 2.54-7.377 3.25-.159.125-.337.227-.395.227-.059 0-.331.154-.604.341-.273.188-.529.342-.568.342-.084 0-2.178 1.357-3.292 2.133-.431.3-.901.623-1.044.716a30.793 30.793 0 0 0-2.845 2.114c-.376.317-1.017.828-1.425 1.136-.407.306-.766.59-.797.628-.032.04-.673.61-1.425 1.27-1.994 1.747-4.842 4.623-6.518 6.583-2.803 3.273-5.524 7.512-7.689 11.974-1.328 2.738-2.26 4.79-2.26 4.977 0 .06-.1.315-.222.566-.122.252-.334.788-.471 1.19-.137.401-.26.744-.273.76-.013.016-.814-.121-1.78-.305-4.408-.842-9.735-1.063-14.348-.597-3.951.398-4.344.447-5.242.641-.47.103-1.163.24-1.539.306-.376.065-1.453.273-2.393.465-.94.19-1.94.386-2.222.433-1.844.32-4.75 1.17-7.408 2.164-.532.2-1.153.431-1.38.515a94.41 94.41 0 0 0-2.779 1.132c-2.884 1.28-3.88 1.785-6.08 3.082-.404.24-2.4 1.627-3.027 2.105a685.6 685.6 0 0 1-1.013.77c-.352.267-.856.69-1.119.94-.264.252-.513.457-.554.457-.227 0-4.037 3.945-4.547 4.709-.594.887-.798 1.194-.993 1.49-.119.181-.294.44-.388.573-.094.134-.273.411-.399.617-.287.472-.573.916-1.102 1.72-1.74 2.64-2.893 5.709-3.236 8.615-.036.311-.135.9-.218 1.306a17.26 17.26 0 0 0-.23 1.739c-.064.817-.11.996-.265.996-1.284 0-7.326 1.471-9.173 2.234-.364.15-.713.273-.775.273-.34 0-4.569 1.974-5.293 2.471-.184.127-.668.44-1.075.699-.795.503-1.173.782-2.715 2.002-1.402 1.11-2.527 2.118-2.527 2.264 0 .13-.988 1.338-1.42 1.738-.136.125-.513.54-.839.921-.325.382-.723.764-.883.85-.206.11-.275.221-.233.379.032.123-.029.357-.135.519-.202.306-.265.41-.777 1.263a7.567 7.567 0 0 1-.632.887c-.178.206-.324.424-.324.484 0 .061.001.136.003.168.001.032-.077.212-.174.399-.097.188-.146.341-.109.341.038 0-.028.141-.145.313-.266.391-.942 1.877-.942 2.071 0 .079-.1.272-.224.429-.294.374-.837 2.161-.755 2.487.04.157-.062.509-.266.924-.423.861-.582 1.537-.308 1.31.238-.198.233-.114-.046.785-1.12 3.611-1.389 11.595-.56 16.581.403 2.423.461 2.723.678 3.476.117.407.247.93.29 1.162l.074.421-.439-.118c-.415-.111-2.024-.776-2.466-1.019l-.853-.463c-.707-.382-2.306-1.382-2.76-1.725a70.602 70.602 0 0 0-1.028-.747 16.478 16.478 0 0 1-.994-.759 16.567 16.567 0 0 0-.568-.485c-1.29-1.048-2.069-1.758-3.718-3.392-.887-.878-1.813-1.827-2.059-2.108-1.457-1.669-1.903-2.192-2.52-2.961-1.104-1.375-1.92-2.534-2.964-4.203-.768-1.229-.932-1.517-1.513-2.654-.309-.606-.663-1.247-.787-1.424-.195-.28-.5-.924-1.396-2.944C1.962 104.364.86 94.537 2.508 85.887c.596-3.13 1.944-7.745 2.72-9.31.13-.263.236-.526.236-.584 0-.057.286-.715.636-1.459.35-.744.707-1.507.794-1.695.086-.188.344-.674.572-1.082.227-.407.521-.947.653-1.197.131-.25.51-.88.843-1.4.332-.52.604-.965.604-.989 0-.072.942-1.48 1.032-1.543.045-.03.178-.215.294-.409.341-.566.866-1.328 1.178-1.712.158-.195.416-.525.573-.732.157-.206.388-.486.513-.62.125-.136.476-.55.78-.922 1.694-2.078 5.013-5.438 6.798-6.883.345-.279.858-.705 1.14-.946.282-.242.564-.477.627-.522.668-.48 2.173-1.674 2.203-1.746.021-.053.104-.095.185-.095.082 0 .213-.077.293-.173.117-.142 1.817-1.334 2.596-1.82l1.1-.694a62.431 62.431 0 0 1 1.714-1.038c.44-.253.977-.567 1.196-.698 1.37-.816 5.198-2.687 7.351-3.592 3.242-1.363 6.862-2.63 9.174-3.213a40.74 40.74 0 0 0 1.424-.39c2.356-.7 7.602-1.714 8.901-1.718.558-.002 2.091-.13 3.407-.286 1.316-.155 3.137-.36 4.045-.453.91-.095 2.114-.273 2.68-.397a25.79 25.79 0 0 1 1.993-.342 23.216 23.216 0 0 0 1.766-.292 41.996 41.996 0 0 1 1.482-.296c1.634-.286 4.617-.927 5.755-1.236.47-.128 1.12-.28 1.444-.337.325-.056.94-.208 1.368-.334a22.922 22.922 0 0 1 1.347-.353c.314-.069.98-.245 1.482-.393.501-.15 1.552-.46 2.336-.69.783-.231 1.86-.563 2.393-.737a23.892 23.892 0 0 1 1.311-.398c.188-.044.65-.196 1.025-.338.376-.143.94-.34 1.254-.44 1.312-.413 5.298-1.883 6.609-2.436a263.358 263.358 0 0 0 4.787-2.064c1.675-.74 7.843-3.835 9.345-4.688 1.417-.806 2.966-1.81 3.414-2.215.128-.114.412-.308.631-.43.219-.123.604-.378.855-.567.251-.189.712-.521 1.025-.74.959-.67 1.21-.862 2.66-2.041 1.665-1.356 2.115-1.699 3.095-2.365.957-.65 2.96-1.91 3.035-1.91.032 0 .282-.153.555-.341.273-.188.527-.343.563-.343.036 0 .54-.273 1.119-.607 1.103-.635 5.073-2.607 6.637-3.294.854-.376 1.294-.554 3.305-1.335 5.327-2.07 12.428-3.67 17.721-3.995a87.174 87.174 0 0 0 2.336-.162c.65-.097 4.068-.042 6.325.1zm8.17 14.658c1.566.13 4.935.608 5.665.803.245.066.912.214 1.482.33 1.747.355 6.462 1.85 7.874 2.497.125.058.587.259 1.025.447 1.56.67 3.088 1.382 3.818 1.777.407.22.972.521 1.254.67.899.47 1.834.991 2.147 1.197.166.11.386.25.487.31.46.273 2.228 1.485 2.397 1.643.103.096.409.355.679.575 1.483 1.203 5.093 4.733 4.969 4.858-.023.021-.576-.142-1.229-.366a25.452 25.452 0 0 0-1.872-.561 33.334 33.334 0 0 1-1.311-.334 21.382 21.382 0 0 0-1.595-.348c-.533-.095-1.379-.25-1.88-.346-3.475-.66-10.415-.543-13.903.235-.689.154-1.33.28-1.424.28-.844-.002-5.308 1.704-7.237 2.764-1.54.846-1.815 1.011-2.059 1.236-.129.12-.287.217-.349.217-.063 0-.261.154-.441.342-.181.188-.373.341-.427.341-.214 0-2.453 2.18-3.22 3.135-.621.773-9.677 9.808-10.883 10.858-2.018 1.757-5.025 3.547-7.465 4.447-2.301.846-2.882 1.047-3.025 1.047-.084 0-.617.15-1.185.333-3.057.982-5.093 1.506-6.616 1.705-2.412.314-5.323.5-6.847.436-4.473-.187-6.351-.329-7.797-.587-.846-.151-2.051-.362-2.678-.47-.627-.107-1.198-.226-1.27-.264-.137-.073.124-.84.773-2.268.179-.394.326-.76.326-.813 0-.354 3.059-6.456 4.116-8.214a36.513 36.513 0 0 1 1.383-2.174c.36-.54.655-1.012.655-1.051 0-.04.315-.498.701-1.017.386-.518.86-1.16 1.054-1.428.194-.266.5-.65.679-.855.18-.203.674-.78 1.099-1.28 1.051-1.242 4.134-4.356 5.527-5.583.627-.553 1.18-1.074 1.231-1.159.05-.084.152-.154.227-.155.076-.002.382-.233.681-.513.3-.28 1.043-.886 1.653-1.343l2.083-1.569a45.533 45.533 0 0 1 1.197-.878 38.342 38.342 0 0 0 1.418-.935c.282-.193.769-.514 1.082-.711a70.77 70.77 0 0 0 1.06-.68c.27-.177.506-.322.525-.322.019 0 .472-.25 1.005-.558 1.516-.872 4.392-2.29 4.644-2.29.056 0 .433-.153.84-.341.406-.19.806-.343.889-.343.082 0 .587-.15 1.121-.332 1.998-.686 5.94-1.648 7.517-1.837a103.36 103.36 0 0 0 2.399-.33c2.531-.371 4.53-.436 7.031-.228zm-67.094 10.904-.392.427.427-.392c.235-.216.427-.409.427-.428 0-.087-.096-.005-.462.393zm-1.994 1.813c-.299.322-.292.514.01.264.202-.167.439-.567.337-.567-.037 0-.193.137-.347.303zm88.437 1.753c1.816.125 4.977.502 5.642.675.22.058.81.184 1.312.283 2.468.489 6.184 1.79 8.424 2.953.558.29 1.062.529 1.119.529.056 0 .326.154.599.341.274.188.539.343.591.343.051 0 .35.193.664.428a43.8 43.8 0 0 0 1.025.738c1.02.7 3.564 3.362 4.167 4.36.668 1.106 2.573 4.916 2.786 5.572.083.258.363 1.033.621 1.722.894 2.39 2.853 10.864 2.853 12.34 0 .195.152 1.268.338 2.383.638 3.822 1.13 7.822 1.253 10.178.067 1.284.15 2.689.185 3.12l.064.783-.322-.073c-2.872-.665-8.027.251-10.348 1.84-.911.623-2.68 2.385-2.68 2.67 0 .052-.169.364-.374.692l-.515.825c-.48.78-1.202 2.526-1.54 3.727-.419 1.49-.99 3.93-.99 4.231 0 1.067-4.721 1.08-5.641.016-.098-.115-1.286-1.12-1.949-1.653-.194-.154-1.232-.844-2.324-1.544-.574-.368-2.942-1.622-3.232-1.712a9.102 9.102 0 0 1-.896-.403c-.359-.18-.719-.326-.8-.326-.081 0-.326-.096-.544-.212-1.46-.775-6.714-2.201-9.685-2.63-3.121-.45-3.611-.484-7.037-.47l-3.448.013-.003-1.854c-.012-5.701-.759-12.027-2.172-18.38-.572-2.57-2.342-8.273-3.101-9.989-.408-.922-.586-2.038-.59-3.687-.009-4.671 2.116-8.893 6.137-12.192 1.24-1.018 3.916-2.599 5.2-3.073.219-.08.629-.247.911-.369 2.405-1.039 6.636-1.94 10.314-2.195 1.84-.127 2.114-.127 3.986 0zM167.323 45.16c-.304.982-.314 1.096-.317 3.69l-.004 2.678.488 1.41c.269.774.567 1.56.662 1.745.179.346.979 2.727 1.39 4.14.897 3.078 1.376 5.12 2.004 8.547.369 2.008.507 2.989.935 6.61.231 1.959.353 10.855.177 12.84-.075.835-.153 1.749-.175 2.03-.105 1.359-.94 6.418-1.373 8.32-.15.659-.306 1.376-.348 1.596-.23 1.218-1.753 6.187-2.341 7.634a285.74 285.74 0 0 0-.681 1.71c-.823 2.079-2.776 6.052-3.418 6.954-.123.173-.263.41-.311.527-.22.533-2.353 3.695-3.134 4.646-.173.21-.314.415-.314.457 0 .081-.834 1.104-1.471 1.804-.387.424-.75.607-.451.227.14-.179.136-.184-.037-.049-.106.083-.168.215-.138.294.031.078-.292.446-.716.818-1.003.877-2.045 1.834-2.504 2.299-.201.203-.397.37-.436.37-.039 0-.415.296-.835.657-.42.362-.955.776-1.19.921-.235.145-.427.311-.427.369 0 .057-.067.104-.149.104-.082 0-.257.1-.387.222-.131.122-.811.57-1.512.997-1.869 1.138-2.295 1.385-2.738 1.585-.219.1-.501.272-.627.383-.125.11-.715.42-1.31.687-.596.267-1.391.626-1.767.797-1.249.568-3.79 1.529-4.672 1.767-.376.102-1.017.28-1.425.396-3.394.971-8.961 2.102-11.51 2.339-11.417 1.061-20.901.157-30.712-2.93-3.16-.994-7.977-2.945-9.572-3.878-.257-.149-.989-.555-2.154-1.193a43.33 43.33 0 0 1-.973-.545c-2.423-1.471-5.109-3.33-5.832-4.037a53.421 53.421 0 0 0-1.012-.92c-.968-.865-.792-.69-2.185-2.182-.605-.649-1.362-1.513-1.682-1.921l-.982-1.253c-.562-.718-1.774-2.42-2.045-2.871-.125-.207-.33-.537-.456-.732-.758-1.175-1.208-1.95-2.142-3.691-.835-1.556-2.133-4.331-2.133-4.56 0-.059-.154-.426-.342-.814-.188-.388-.342-.769-.342-.847 0-.077-.147-.543-.326-1.034-1.347-3.681-2.52-9.328-2.522-12.136v-1.103l.77-.094c3.861-.472 10.838.169 15.526 1.427.908.243 1.908.505 2.222.581.758.184 1.103.278 2.051.55.44.126 1.08.293 1.425.373.344.079 1.267.35 2.051.602l1.424.459h2.052c2.852.001 5.697-.549 8.498-1.642.474-.186.916-.337.983-.337.174 0 1.864-.666 2.2-.868.156-.093.541-.296.854-.45.833-.41 1.594-.869 1.93-1.16.162-.141.339-.256.393-.256.055 0 .169-.084.254-.188.085-.102.335-.302.556-.444.22-.142.631-.472.913-.733l1.466-1.35a46.436 46.436 0 0 0 1.173-1.104c.306-.315.419-.428.643-.637.106-.1.476-.504.82-.898.345-.393.713-.8.818-.9.317-.31 3.008-3.9 3.456-4.615 1.108-1.764 1.588-2.62 2.343-4.174.995-2.049 1.29-2.79 2.494-6.269.076-.218.316-.885.534-1.48.218-.597.527-1.468.687-1.939.16-.47.36-.99.446-1.156.086-.164.207-.498.269-.74.097-.373.924-2.801 1.821-5.346l.244-.69.766.084a20.77 20.77 0 0 1 1.805.31c7.142 1.57 16.189 1.215 22.893-.896.564-.178 1.641-.51 2.393-.74 3.219-.981 5.59-2.03 7.806-3.45 1.475-.944 2.156-1.43 2.212-1.576.033-.087.145-.157.249-.157.19 0 1.759-1.498 5.337-5.09 1.07-1.073 1.961-1.94 1.978-1.923.018.017-.108.485-.281 1.042zM115.2 56.436c2.17.236 5.135.712 5.135.825 0 .118-.26.872-.587 1.695-.178.45-.324.918-.324 1.04 0 .12-.154.593-.342 1.048-.188.457-.342.882-.342.945 0 .064-.161.556-.359 1.096a255.987 255.987 0 0 0-1.121 3.087c-.076.22-.318.886-.536 1.483a46.835 46.835 0 0 0-.576 1.651 34.01 34.01 0 0 1-1.186 3.112c-.178.393-.325.76-.325.813 0 .055-.147.398-.326.765-.18.367-.347.722-.371.788-.297.831-2.925 4.83-4.602 7.005-.973 1.263-4.757 5.108-5.771 5.864-5.782 4.317-12.942 6.331-18.027 5.07-1.48-.367-3.365-.858-5.034-1.311-7.412-2.016-9.154-2.277-15.2-2.277h-4.488l.061-1.082c.034-.596.223-1.871.421-2.835.31-1.505.615-2.499 1.564-5.086.141-.386.976-1.818 1.62-2.779.1-.15.233-.352.296-.45.578-.903 2.381-3.582 2.487-3.694.074-.078.285-.347.47-.597.351-.477 3.418-3.59 3.537-3.59.038 0 .541-.401 1.118-.892a36.635 36.635 0 0 1 1.51-1.224c.252-.184.534-.4.626-.479.224-.194 2.08-1.39 2.788-1.797.313-.18.595-.358.626-.394.085-.103 3.958-1.998 4.616-2.259.313-.124 1.031-.417 1.595-.651 3.498-1.45 6.682-2.44 10.2-3.175 5.988-1.25 7.961-1.547 12.592-1.89 1.795-.132 6.323-.037 8.255.174zm111.091 23.128c.681.22 1.15 4.582.54 5.028-.58.424-1.362.523-3.457.44-2.558-.102-3.913.08-6.076.812-2.212.749-4.245 1.404-4.272 1.377-.028-.029.386-1.07.543-1.367.498-.942.843-1.552 1.025-1.808.118-.166.214-.337.214-.38 0-.175.775-1.176 1.309-1.69 1.361-1.311 2.775-1.954 5.301-2.412.889-.16 4.371-.16 4.873 0zm-38.758 1.21a.821.821 0 0 1-.487.07c-.348-.067-.473.1-.151.203.319.102.751-.018.832-.23.077-.2.078-.2-.194-.042zm-127.402.356c-.372.797-.552 1.909-.308 1.909.062 0 .12-.09.128-.2.03-.41.09-.674.31-1.367.238-.755.16-.962-.13-.341zm112.299 3.12c-.134.15-.13.204.028.362.171.17.185.157.185-.181 0-.418-.002-.42-.213-.18zm8.874.39c7.826.49 16.051 3.492 21.233 7.748 1.699 1.395 3.095 1.93 5.035 1.928 1.541-.002 1.947-.127 4.821-1.492 2.31-1.096 4.276-1.71 7.436-2.323 3.546-.688 9.085-.814 12.382-.28 3.36.543 3.742.63 6.187 1.392 1.671.522 4.39 1.742 4.691 2.103.102.124.166.626.193 1.524.044 1.489.052 1.474-.781 1.642-.446.09-1.786.704-1.885.864-.034.056-.09.553-.122 1.103-.058.965-.218 2.221-.543 4.246-.268 1.668-1.414 5.672-1.79 6.252-.103.157-.109.151-.041-.041 1.154-3.252 1.824-10.605 1.147-12.591-1.094-3.216-3.849-5.198-8.668-6.24-1.579-.34-5.037-.43-6.446-.164-4.946.93-8.552 2.665-11.581 5.575-1.167 1.12-1.296 1.353-1.922 3.446-.723 2.417-.947 5.713-.564 8.291.097.657.148 1.224.114 1.259-.035.035-.064-.035-.064-.155s-.128-.629-.284-1.13c-.602-1.928-.905-4.3-.913-7.144-.009-3.074-.248-3.59-1.343-2.895-.728.462-2.774.473-3.11.016-.213-.29-.968-.331-1.376-.076-.402.251-.427.349-.604 2.292-.294 3.236-1.933 7.903-3.669 10.448-.179.262-.325.502-.325.532 0 .03-.1.175-.223.321-.56.666-1.673 2.084-1.825 2.324a1.188 1.188 0 0 1-.427.383c-.143.065-.26.195-.26.288 0 .093-.115.231-.256.305-.141.075-.488.355-.77.622-4.797 4.546-12.912 5.978-18.926 3.34-.412-.181-.788-.329-.836-.329-.571 0-4.342-2.671-5.673-4.018-1.329-1.345-1.491-1.582-1.344-1.969.137-.36.142-.357.741.574.487.757 3.045 3.362 3.301 3.362.089 0 .203.07.253.156.184.313 2.056 1.387 3.719 2.133 3.679 1.651 10.108 1.21 14.093-.966.407-.222.981-.533 1.274-.69.293-.158.665-.403.827-.545.162-.143.5-.413.752-.601.915-.682 3.415-3.273 3.415-3.537 0-.044.154-.255.342-.469.188-.214.342-.437.342-.494 0-.058.115-.276.257-.485 2.155-3.175 3.401-9.033 2.93-13.777-.102-1.035-.425-2.185-.667-2.377a4.806 4.806 0 0 1-.368-.456c-.655-.878-2.182-2.265-3.355-3.046-1.438-.957-2.64-1.606-3.686-1.992-.351-.129-.693-.276-.759-.328-.066-.053-.4-.17-.741-.261a16.186 16.186 0 0 1-1.133-.353c-.527-.192-2.633-.64-4.045-.862-.439-.067-2.157-.121-3.818-.12-3.112.005-3.605.052-6.131.587-1.402.296-1.255.469-1.124-1.317.13-1.785-.105-1.555 1.697-1.651 1.622-.087 2.132-.075 5.216.118zm-123.596.802c-.042.069-.019.18.051.25.093.094.126.06.126-.123 0-.276-.059-.318-.177-.127zm114.365 3.247c0 .127-.088.168-.303.142-.17-.022-.325.025-.351.105-.027.078.007.142.075.142.068 0 .124.103.124.228 0 .127.051.228.113.228.063 0 .114-.074.114-.163 0-.09.057-.2.127-.242.089-.056.103.058.047.391-.084.498.088.672.21.215.111-.412.083-1.227-.042-1.227-.062 0-.114.082-.114.18zm13.334.169c.971.12 2.022.298 2.336.395.313.097.8.227 1.083.287.751.16 3.034 1.038 3.931 1.511 2.194 1.156 3.927 2.511 5.205 4.073l.419.51.078 2.05c.205 5.407-1.168 10.358-3.729 13.446-1.184 1.427-1.582 1.847-2.393 2.521-4.594 3.818-12.038 5.029-16.378 2.663a8.575 8.575 0 0 0-.695-.34c-.251-.104-.542-.287-1.977-1.243-1.372-.915-3.569-3.478-3.884-4.531a.902.902 0 0 0-.225-.373c-.125-.103-.07-.329.295-1.235 1.232-3.055 2.03-5.509 2.899-8.915.167-.659.327-1.35.354-1.539.027-.188.17-.855.318-1.48a23.46 23.46 0 0 0 .342-1.71c.041-.313.196-1.313.344-2.222.148-.91.303-1.963.344-2.344l.075-.69 1.384-.358c1.227-.319 3.37-.64 5.03-.755.974-.067 3.001.05 4.844.279zM59.078 92.356c.044.61.155 1.675.245 2.364.091.69.217 1.663.281 2.165.271 2.143 1.724 7.453 2.498 9.132.12.26.253.619.297.798.043.179.225.63.404 1.001.178.372.325.722.325.779 0 .382 2.631 5.391 3.701 7.044.283.438.515.826.515.862 0 .036.154.26.342.497.188.238.342.465.342.505 0 .064.616.919 1.847 2.559a6.6 6.6 0 0 0 .631.733c.141.128.257.282.257.342 0 .06.115.221.256.358.141.137.436.476.656.753.522.661 3.19 3.327 3.982 3.981.342.282.778.659.97.837.19.178.527.441.747.583.22.142.47.343.555.445.086.103.22.187.298.187.08 0 .204.073.278.162.123.148 2.347 1.579 3.111 2.001.171.095.607.349.968.564 2.567 1.527 5.752 3.025 9.442 4.44.507.195.963.354 1.014.354.051 0 .51.148 1.016.329 1.096.39 3.085 1.002 3.487 1.074.157.027.747.179 1.311.337 2.214.618 6.613 1.472 8.661 1.681.626.064 1.729.195 2.45.292 1.699.229 7.017.389 10.159.306l2.467-.066.081.965c.186 2.24-.005 6.619-.38 8.683-.715 3.93-2.263 8.244-3.893 10.843a208.295 208.295 0 0 1-.789 1.254c-1.431 2.275-3.946 5.113-5.814 6.56-.278.215-.592.468-.697.562-2.554 2.288-7.341 4.276-13.043 5.418-4.963.994-11.71 1.061-17.219.17a70.724 70.724 0 0 1-13.863-3.699c-.423-.161-1.09-.413-1.482-.559a13.495 13.495 0 0 1-1.192-.513c-.264-.136-.53-.247-.59-.247-.117 0-2.782-1.246-3.887-1.817-2.727-1.408-3.928-2.072-5.62-3.108-.492-.3-.91-.545-.933-.545-.065 0-3.506-2.293-3.832-2.553a15.684 15.684 0 0 0-.57-.432c-.612-.438-2.68-1.983-2.89-2.162-.127-.106-.69-.557-1.255-1.004-1.73-1.369-3.919-3.615-5.968-6.125-1.014-1.243-3.776-5.399-3.776-5.683 0-.028-.12-.242-.266-.476-1.262-2.012-3.497-8.048-3.998-10.796a56.065 56.065 0 0 0-.342-1.709c-1.015-4.601-.689-12.839.7-17.721.728-2.558 2.648-7.04 3.457-8.068.122-.155.221-.334.221-.398s.13-.284.285-.49c.157-.205.336-.492.4-.637.327-.759 3-4.086 4.515-5.62 1.998-2.025 4.822-4.135 6.652-4.969.157-.07.644-.3 1.083-.508 2.388-1.131 5.308-2.058 8.433-2.678a47.132 47.132 0 0 0 1.595-.338c.188-.05.554-.096.813-.1l.471-.011.08 1.112zm171.235-.15c3.718.873 6.12 2.3 6.99 4.156l.433.922-.049 3.104c-.063 3.966-.658 7.297-1.677 9.397-.128.263-.233.526-.233.583 0 .131-.947 1.947-1.351 2.593-3.236 5.163-9.224 7.342-14.147 5.147-1.156-.515-1.449-.659-1.95-.963-1.069-.648-2.221-1.56-2.847-2.255a56.655 56.655 0 0 0-.587-.642c-.154-.166-.51-.653-.791-1.083-2.733-4.187-3.228-9.01-1.458-14.22.555-1.633 2.43-3.276 5.581-4.891 1.96-1.005 4.596-1.816 6.553-2.017 1.334-.137 4.66-.035 5.533.17zM31.977 105.224c-.116.154-.184.308-.152.34.033.033.147-.075.255-.239.253-.387.171-.468-.103-.101zm-1.407 3.684c-.157.416-.01.459.175.052.156-.343.161-.394.043-.394-.049 0-.147.154-.218.342zm-1.12 2.285c-.11.175.04.288.185.142.082-.082.084-.145.006-.193-.064-.04-.15-.017-.192.051zm186.637 6.588c.421.322.797.586.834.586.038 0 .283.141.545.313 3.139 2.064 7.851 2.632 11.069 1.336.876-.353.936-.295.09.088-4.36 1.975-9.36 1.004-13.003-2.527-.425-.411-.667-.666-.537-.566l1.002.77zm-56.093 3.033c0 .102.066.141.171.101.094-.036.17-.111.17-.167 0-.056-.076-.102-.17-.102a.17.17 0 0 0-.171.168zm47.293 17.597a9.393 9.393 0 0 1 3.394 1.538c.574.418.597.83.083 1.504-.278.365-.872.807-.692.515.115-.186-.114-.152-.274.041-.075.091-.107.214-.071.273.154.25-2.005 1.16-3.409 1.437-3.999.79-16.68.514-19.932-.433-.125-.037 1.653-.532 1.91-.532.205 0 2.355-.702 3.151-1.029 5.542-2.278 7.997-3.009 11.851-3.529 1.077-.145 2.876-.048 3.989.215zm2.047 6.765c-.048 4.526-4.198 6.835-10.594 5.896-1.968-.289-4.628-1.069-6.219-1.824-1.547-.734-2.084-1.008-2.525-1.288-.265-.168-.511-.305-.547-.305-.036 0-.525-.308-1.089-.684-.563-.376-1.047-.684-1.075-.684-.092 0-1.657-1.285-1.615-1.326.022-.022.805.082 1.74.232 5.132.821 13.259 1.103 17.085.592 2.201-.294 3.416-.517 4.052-.743.815-.289.792-.293.787.134zm-19.882 28.809c-.231.045 0 .096.719.157.583.05 1.084.067 1.114.037.095-.095-1.482-.262-1.833-.194zm-68.433 22.51c0 .136 12.346 24.094 12.416 24.094.071 0 12.112-23.737 12.179-24.01.029-.117-.257-.149-1.311-.149h-1.349l-4.728 9.343c-2.601 5.138-4.759 9.344-4.796 9.345-.037 0-2.243-4.191-4.903-9.315l-4.836-9.316-1.336-.032c-.735-.018-1.336 0-1.336.04zm-61.082 27.271c0 14.972.032 27.382.071 27.578l.071.356h21.624v-2.508H68.598v-3.533h13.105v-2.621H68.598v-14.473h13.105v-2.507h-15.67l.036 8.485.036 8.484-1.745.034-1.763.034c-.009 0-.055-4.628-.1-10.285l-.085-10.284h19.32l-.072-.357c-.039-.195-.07-.76-.07-1.253v-.898H68.597v-14.814H81.59v-2.621h-5.395c-2.967 0-6.48.033-7.806.075l-2.41.075v17.285h-3.534V199.19l.256-.068c.141-.038 4.45-.07 9.573-.071l9.316-.001v-2.507H59.937v27.222zm30.883.299v27.521h24.273v-2.393H99.367v-3.648h15.612v-2.393H99.367v-46.609h-2.545l.075 23.304.076 23.305h-3.646v-46.609H90.82v27.521zm75.203-27.351c-4.535.858-8.684 4.591-10.008 9.003-.591 1.972-.578 1.457-.579 24.473l-.001 21.396h2.62l.029-9.613.029-9.614 1.795 1.024 1.795 1.024v17.178h2.62l.029-7.841.029-7.842 4.131 2.382 4.131 2.382v10.919h2.621l-.002-6.239-.002-6.239-3.217-1.824a2143.582 2143.582 0 0 1-5.439-3.092l-2.223-1.27-.091-2.02c-.05-1.111-.066-2.045-.036-2.076.031-.03.995.482 2.143 1.139 5.363 3.069 8.753 4.983 8.823 4.983.189 0-.048-26.468-.243-27.179-1.164-4.226-5.838-6.299-9.684-4.294-1.578.822-2.96 2.57-3.409 4.31-.159.617-.181 2.066-.181 12.108 0 6.275-.038 11.406-.085 11.404-.047-.003-.855-.454-1.795-1.003l-1.71-.998v-10.65c0-10.116.011-10.692.218-11.502 2.713-10.601 17.066-10.726 20.168-.176.233.795.235.957.268 22.71l.034 21.908h2.623l-.036-21.965c-.041-24.525.026-22.461-.8-24.648-2.205-5.843-8.492-9.408-14.565-8.259zm35.224-.091c-11.924 1.277-17.396 14.764-9.611 23.69 1.572 1.802 3.545 3.206 7.845 5.582 8.476 4.683 10.292 6.669 9.758 10.677-.926 6.953-8.293 8.246-14.274 2.506l-1.123-1.079-.428.373c-.236.206-.685.603-.999.882l-.569.509 1.115 1.063c8.183 7.794 18.884 4.863 18.884-5.171 0-4.726-2.198-7.12-11.111-12.102-5.055-2.826-6.63-4.032-8.109-6.212-4.814-7.095-.619-16.494 8.039-18.009 4.596-.804 9.448 1.048 12.557 4.794l.975 1.175.242.293.943-.622 1.067-.703c.305-.197-1.398-2.298-2.885-3.558-3.688-3.124-7.989-4.552-12.316-4.088zm-170.349.155c-3.155.297-6.733 1.828-8.324 3.559l-.268.292.042 18.841.043 18.84.443.783c1.25 2.212 3.122 4.091 5.051 5.072l.485.247v6.484l.598.172c4.755 1.365 10.334.659 14.635-1.853 10.403-6.076 12.471-20.585 4.177-29.317l-.602-.635.336-.799c1.362-3.242 1.476-7.622.291-11.151-2.359-7.022-9.17-11.266-16.907-10.535zm4.002 2.556c8.984 1.355 13.934 11.46 9.574 19.544l-.522.967.442.338c6.533 4.99 7.856 15.402 2.832 22.298-3.53 4.845-10.04 7.548-15.808 6.563l-.54-.093v-3.597l.768.149c6.495 1.257 13.207-3.006 14.847-9.43 1.55-6.072-1.729-12.692-7.43-14.999-.884-.358-.892-.369-.459-.624 1.684-.995 3.365-3.714 3.85-6.224 1.446-7.5-5.92-13.629-13.144-10.935l-.94.351-.028 18.918-.029 18.918-.74-.567c-.812-.621-1.635-1.568-2.213-2.546l-.37-.63-.079-17.96-.078-17.96.714-.464a13.36 13.36 0 0 1 9.353-2.017zm166.917 3.481c-5.85.651-9.275 6.486-6.786 11.563.926 1.891 2.341 3.122 6.012 5.231 5.038 2.895 5.525 3.184 6.963 4.136 2.416 1.598 3.849 2.887 5.195 4.675 4.04 5.362 2.542 14.347-3.021 18.122-5.971 4.053-13.738 2.769-19.9-3.29l-1.137-1.118-.956.815c-1.151.98-1.172.7.154 2.054 7.88 8.042 18.987 8.7 25.742 1.527 2.962-3.147 4.45-8.003 3.913-12.778-.651-5.799-4.093-9.841-12.418-14.585-7.575-4.316-8.772-5.436-8.77-8.207.003-5.584 7.007-7.534 11.357-3.163 1.241 1.247.955 1.19 2.138.427 1.115-.72 1.083-.649.618-1.35-1.829-2.762-5.61-4.447-9.104-4.059zm-56.895 2.76c-.528 1.018-3.311 6.48-6.185 12.137-2.873 5.656-5.256 10.285-5.294 10.285-.038 0-2.803-5.321-6.143-11.824-3.341-6.503-6.121-11.872-6.177-11.931-.062-.065-.104 9.435-.104 23.618v23.726h2.507l.029-18.47.028-18.471 1.726 3.286 1.726 3.285.069 4.444c.037 2.445.068 9.278.069 15.186v10.74h2.392l.029-12.678.029-12.678 1.881 3.561c1.034 1.958 1.909 3.561 1.945 3.561.036 0 .891-1.679 1.899-3.731l1.835-3.733.021 7.009c.012 3.855.033 7.085.047 7.179.014.094.034 2.723.045 5.841l.02 5.669h2.717l-.052-15.299-.052-15.299 1.703-3.419 1.703-3.419.01 18.718.01 18.718h2.622v-23.931c0-13.163-.022-23.932-.048-23.932-.026 0-.479.833-1.007 1.852zm-110.114-.14c4.871 1.487 6.882 7.425 3.853 11.38-1.722 2.248-4.697 3.422-7.206 2.843l-.578-.134v-14.192l.541-.073c.298-.041.593-.094.655-.12.277-.114 2.008.073 2.735.295zm135.509.336c1.2.591 1.978 1.677 2.205 3.08.118.733.183 21.539.067 21.539-.03 0-.709-.374-1.51-.831-.801-.457-2.673-1.521-4.161-2.365l-2.705-1.534-.001-8.034c0-4.558.046-8.321.108-8.697.479-2.923 3.376-4.448 5.997-3.158zM36.375 222.819c6.055 1.253 9.6 7.978 7.293 13.838-1.884 4.788-7.487 7.565-12.364 6.129l-.428-.126.03-9.804.028-9.803.588-.149c1.527-.387 3.248-.417 4.853-.085zm60.6 24.55v1.823h-3.649v-3.647h3.648v1.824zm-30.885.057v1.766h-3.532v-3.533h3.532v1.767zm34.644 29.288v9.173h2.052V267.54h-2.052v9.174zm57.436-5.11v4.064l-.31-.399c-1.895-2.43-6.644-2.546-8.919-.218-2.788 2.853-2.182 8.514 1.102 10.291 2.616 1.416 6.495.749 7.89-1.357l.351-.53v.516c0 .283.033.831.073 1.216l.074.7h1.942l-.076-5.555a862.437 862.437 0 0 1-.075-9.174v-3.618h-2.052v4.064zm-62.705-3.088c-.615.333-.852 1.335-.47 1.982.78 1.321 2.908.62 2.741-.903-.113-1.028-1.313-1.599-2.27-1.079zm68.49 0c-.615.333-.852 1.335-.47 1.982.78 1.321 2.908.62 2.741-.903-.113-1.028-1.313-1.599-2.271-1.079zm-38.055 2.699c-.058 2.097-.301 2.365-2.148 2.365h-.909v1.595h2.95l.036 4.302c.04 4.809.049 4.87.902 5.723.808.808 2.827 1.122 4.915.766l.541-.093v-.86c0-.773-.02-.851-.199-.78-.527.208-2.828.207-3.269-.002-.827-.393-.857-.567-.86-5.096l-.002-3.96h2.112c2.4 0 2.293.048 2.166-.97l-.078-.625h-4.2v-3.875h-1.915l-.042 1.51zm-11.251 2.362c-1.94.527-2.747 1.454-2.747 3.158 0 2.06 1.184 3.065 4.555 3.867 2.495.594 3.254 1.194 3.028 2.395-.386 2.059-4.296 2.03-6.295-.046-.653-.678-.603-.679-1.43.012-.684.573-.681.605.142 1.367 4.031 3.732 11.551 1.211 9.415-3.156-.534-1.091-1.5-1.617-4.107-2.236-2.481-.59-3.419-1.322-3.199-2.496.341-1.815 3.311-2.039 5.567-.421l.863.619.577-.665.577-.666-.488-.39c-1.705-1.364-4.35-1.914-6.458-1.342zm58.849-.065c-3.73.726-5.878 4.154-4.968 7.931 1.481 6.151 11.324 6.288 12.886.179 1.291-5.049-2.69-9.127-7.918-8.11zm-102.9.068c-.868.156-2.146.84-2.66 1.424-.546.62-.594.582-.594-.475v-.835h-1.822v12.307h2.05v-3.517c0-5.913.707-7.271 3.761-7.23 2.75.038 3.181 1.01 3.187 7.186l.004 3.561h2.051v-3.732c-.003-5.565-.178-6.504-1.429-7.648-.958-.876-2.939-1.329-4.548-1.041zm12.928.057c-6.106 1.384-6.219 11.138-.144 12.425 2.565.543 5.026-.224 6.253-1.949l.387-.545v.516c0 .284.033.832.073 1.217l.074.7h1.904v-2.545c0-1.4-.034-4.169-.075-6.154l-.075-3.608h-1.758l-.072.356c-.039.196-.07.721-.07 1.168l-.002.812-.21-.342c-1.036-1.688-3.845-2.605-6.285-2.051zm11.738 6.097v6.153h2.052V273.58h-2.052v6.154zm38.891-1.909c.057 4.549.066 4.626.697 5.87 1.377 2.718 6.418 3.263 8.736.945 1.247-1.247 1.359-1.822 1.361-6.986l.002-4.074H142.9l-.004 4.017c-.004 4.348-.042 4.66-.672 5.576-1.287 1.868-4.36 1.698-5.539-.306-.421-.715-.507-1.671-.508-5.612l-.001-3.675h-2.074l.053 4.245zm29.599 1.909v6.153h2.052V273.58h-2.052v6.154zm-9.234-4.552c4.931.8 4.933 8.25.002 9.109-3.167.551-5.646-2.051-5.13-5.384.355-2.296 1.763-3.557 4.277-3.832.062-.007.445.042.851.107zm21.884.133c2.193.657 3.426 2.756 3.074 5.233-.695 4.902-7.862 5.183-8.874.348-.777-3.713 2.266-6.641 5.8-5.581zm-89.27.221c1.983.734 3.127 2.851 2.765 5.118-.808 5.062-7.904 5.119-8.772.07-.635-3.691 2.571-6.46 6.006-5.188z" fill="#000"/></svg>