<svg xmlns="http://www.w3.org/2000/svg" width="128" height="128" xml:space="preserve"><path d="m118.408 38.842-26-11.818a3.002 3.002 0 0 0-2.482 0l-8.56 3.891c.33.879.339 1.876-.177 2.819a14.54 14.54 0 0 1-2.694 3.488c-.124.21-.255.417-.386.622-.241.485-.477.972-.705 1.462l13.764-6.256 23 10.454v63.137l-21.759-9.89a3.002 3.002 0 0 0-2.482 0l-24.759 11.254-24.76-11.253a3.002 3.002 0 0 0-2.482 0l-21.759 9.89V43.505l23-10.454 12.715 5.779c-.78-1.028-1.577-2.114-2.523-3.221-1.286-1.506-1.043-3.313-.12-4.571l-8.831-4.014a3.002 3.002 0 0 0-2.482 0l-26 11.818a3 3 0 0 0-1.759 2.731V111.3a3.001 3.001 0 0 0 4.241 2.731l24.759-11.254 24.759 11.254a3.002 3.002 0 0 0 2.482 0l24.759-11.254 24.759 11.254a2.996 2.996 0 0 0 2.865-.208 3 3 0 0 0 1.376-2.523V41.573a3 3 0 0 0-1.759-2.731z"/><path d="M13.169 92.298a1.999 1.999 0 0 1-1.996-2.157c.006-.072.149-1.794.87-4.305a2 2 0 0 1 3.845 1.103c-.601 2.095-.727 3.511-.728 3.525a2.003 2.003 0 0 1-1.991 1.834zm71.998-.997c-2.78 0-5.203-.351-7.408-1.07A2.001 2.001 0 0 1 79 86.428c1.798.587 3.815.872 6.167.873.19 0 .378-.004.563-.014a1.996 1.996 0 0 1 2.096 1.899 1.999 1.999 0 0 1-1.899 2.096c-.249.013-.503.019-.76.019zm7.594-2.674a2 2 0 0 1-1.255-3.559c1.493-1.2 2.879-2.881 4.36-5.29a2 2 0 1 1 3.407 2.095c-1.729 2.811-3.4 4.817-5.262 6.313-.368.296-.81.441-1.25.441zm-20.73-2.239a1.993 1.993 0 0 1-1.416-.588c-1.883-1.888-3.354-4.084-4.821-6.355a2 2 0 0 1 3.361-2.169c1.396 2.164 2.683 4.086 4.292 5.7a2 2 0 0 1-1.416 3.412zm-55.065-4.931a2 2 0 0 1-1.714-3.029 29.174 29.174 0 0 1 5.084-6.313 2.001 2.001 0 0 1 2.733 2.921 25.154 25.154 0 0 0-4.386 5.448 1.997 1.997 0 0 1-1.717.973zm84.228-5.288a2 2 0 0 1-1.774-2.923c1.19-2.289 2.476-4.699 3.957-6.782a2 2 0 0 1 3.26 2.318c-1.333 1.874-2.542 4.144-3.667 6.308a2 2 0 0 1-1.776 1.079zm-38.095-1.983a1.997 1.997 0 0 1-1.511-.688c-1.62-1.864-3.294-3.188-5.269-4.168a2 2 0 1 1 1.777-3.583c2.431 1.206 4.561 2.883 6.511 5.128a1.999 1.999 0 0 1-1.508 3.311zm-35.218-2.951a2 2 0 0 1-.921-3.777c2.289-1.186 4.815-2.131 7.508-2.81a2 2 0 0 1 .977 3.879c-2.394.603-4.629 1.438-6.645 2.482a1.978 1.978 0 0 1-.919.226zm22.099-3.727c-.076 0-.153-.004-.23-.013a31.78 31.78 0 0 0-3.583-.194 45.88 45.88 0 0 0-3.599.123 1.994 1.994 0 0 1-2.135-1.855 2 2 0 0 1 1.855-2.135 45.611 45.611 0 0 1 3.88-.132c1.407 0 2.766.074 4.038.22a2 2 0 0 1-.226 3.986zm60.789-2.945a2 2 0 0 1-.774-3.845 12.003 12.003 0 0 1 4.672-.917 2 2 0 0 1 0 4c-1.13 0-2.153.198-3.125.606a1.995 1.995 0 0 1-.773.156z"/><path d="M39.167 101.482a2 2 0 0 1-2-2V31.301a2 2 0 0 1 4 0v68.182a2 2 0 0 1-2 1.999zm26 10.819a2 2 0 0 1-2-2v-55a2 2 0 0 1 4 0v55a2 2 0 0 1-2 2zm26-10.819a2 2 0 0 1-2-2V31.301a2 2 0 0 1 4 0v68.182a2 2 0 0 1-2 1.999z"/><path d="M65.667 59.578a2.998 2.998 0 0 1-2.326-1.106c-1.994-2.448-19.476-24.241-19.476-35.37 0-12.022 9.78-21.802 21.802-21.802 12.021 0 21.802 9.78 21.802 21.802 0 11.129-17.482 32.921-19.476 35.37a2.998 2.998 0 0 1-2.326 1.106zm0-52.277c-8.713 0-15.802 7.089-15.802 15.802 0 6.074 8.906 19.677 15.801 28.638 6.896-8.964 15.802-22.569 15.802-28.638 0-8.713-7.088-15.802-15.801-15.802z"/><path d="M65.667 31.981c-4.896 0-8.879-3.983-8.879-8.878 0-4.896 3.983-8.879 8.879-8.879 4.896 0 8.879 3.983 8.879 8.879 0 4.895-3.983 8.878-8.879 8.878zm0-13.757a4.884 4.884 0 0 0-4.879 4.879 4.883 4.883 0 0 0 4.879 4.878 4.885 4.885 0 0 0 4.879-4.878 4.884 4.884 0 0 0-4.879-4.879z"/></svg>