<svg xmlns="http://www.w3.org/2000/svg" width="32" height="32" fill="none"><rect width="100%" height="100%"/><g class="currentLayer"><path fill="#000" d="M-.112 16.128C-.112 7.308 6.991.162 15.76.162c8.768 0 15.871 7.145 15.871 15.966S24.528 32.095 15.76 32.095c-8.77 0-15.872-7.146-15.872-15.967z"/><path d="M21.987 8.582c1.118.592 1.857 2.237 1.84 3.552.05.312 0 .608-.066 1.003-.131.789-.526 1.94-1.76 3.862-1.382 2.203-3.848 4.224-6.824 5.653l-.099-.016c-.987.444-2.845 1.248-4.62.952-2.17-.362-3.074-1.629-3.501-2.105-.41-.576-.591-1.316-.46-2.105l.083-.493c.115-.69.395-1.15 1.463-1.48l.855-.262c.839-.164 1.792-.41 1.908-.493.64-.197 1.134-.114 1.578.264.28.148.443.378.608.608.18.132.263.247.246.346l.165.23c.542-.214 1.529-.657 2.35-1.33 1.284-1.003 1.728-1.842 2.007-2.302-.164-.23-.526-.493-.772-.838l-.18-.132c-.609-.609-.674-1.43-.247-2.17.263-.362 1.612-2.367 1.612-2.367l.132-.18c.246-.264.41-.642.838-.773.954-.246 2.187.264 2.844.576z" fill="#fff"/></g></svg>