<svg width="48" height="48" xmlns="http://www.w3.org/2000/svg"><path fill="none" d="M-1-1h582v402H-1z"/><ellipse ry="21.429" rx="22.174" cy="24.615" cx="23.752" fill-opacity="null" stroke-opacity="null" stroke-width="1.5" stroke="#000" fill="#fff"/><path d="M0 24c0 13.255 10.745 24 24 24s24-10.745 24-24S37.255 0 24 0 0 10.745 0 24zm39.062-.918c-.003 7.866-6.402 14.267-14.27 14.27h-.007c-2.388 0-4.735-.6-6.82-1.736L10.4 37.6l2.025-7.395a14.246 14.246 0 0 1-1.905-7.135c.003-7.868 6.405-14.27 14.27-14.27a14.18 14.18 0 0 1 10.096 4.185 14.184 14.184 0 0 1 4.176 10.096z" clip-rule="evenodd" fill-rule="evenodd"/><path d="m13.826 34.21 4.49-1.178.433.257a11.845 11.845 0 0 0 6.037 1.653h.005c6.538 0 11.859-5.32 11.862-11.861a11.79 11.79 0 0 0-3.471-8.392 11.78 11.78 0 0 0-8.386-3.479c-6.543 0-11.864 5.321-11.867 11.861 0 2.241.626 4.424 1.814 6.313l.282.448-1.199 4.378zm17.666-8.056c.25.12.417.201.489.321.089.149.089.863-.208 1.696s-1.722 1.593-2.407 1.695c-.614.092-1.392.13-2.246-.141a20.476 20.476 0 0 1-2.033-.751c-3.343-1.444-5.602-4.684-6.029-5.296a4.23 4.23 0 0 0-.062-.088l-.003-.004c-.189-.252-1.453-1.94-1.453-3.685 0-1.643.806-2.504 1.178-2.9l.07-.075a1.31 1.31 0 0 1 .95-.446c.238 0 .476.002.684.012.026.002.052.001.08.001.208 0 .467-.002.722.611l.394.956c.307.747.646 1.573.706 1.692.089.179.148.387.03.625-.019.036-.035.07-.05.102-.09.182-.156.316-.307.493-.06.07-.121.144-.183.22-.123.149-.245.298-.352.405-.179.177-.365.37-.157.727s.924 1.525 1.984 2.47c1.14 1.017 2.13 1.446 2.632 1.664.098.043.178.077.236.106.356.179.564.15.772-.089.208-.238.892-1.041 1.13-1.398.237-.357.475-.298.802-.179.327.12 2.08.982 2.436 1.16l.195.096z" clip-rule="evenodd" fill-rule="evenodd"/></svg>