<svg width="32" height="32" viewBox="0 0 32 32" fill="none" xmlns="http://www.w3.org/2000/svg">
<path d="M15.7756 31.5512C24.4883 31.5512 31.5512 24.4883 31.5512 15.7756C31.5512 7.06299 24.4883 0 15.7756 0C7.06299 0 0 7.06299 0 15.7756C0 24.4883 7.06299 31.5512 15.7756 31.5512Z" fill="black"/>
<path d="M21.3602 11.5069C22.037 11.5069 22.5857 10.9582 22.5857 10.2813C22.5857 9.60448 22.037 9.05579 21.3602 9.05579C20.6833 9.05579 20.1346 9.60448 20.1346 10.2813C20.1346 10.9582 20.6833 11.5069 21.3602 11.5069Z" fill="white"/>
<path d="M15.9116 10.6274C13.073 10.6274 10.7634 12.9369 10.7634 15.7756C10.7634 18.6143 13.073 20.9238 15.9116 20.9238C18.7503 20.9238 21.0597 18.6143 21.0597 15.7756C21.0597 12.9369 18.7503 10.6274 15.9116 10.6274ZM15.9116 19.0734C14.0932 19.0734 12.6138 17.594 12.6138 15.7756C12.6138 13.9571 14.0932 12.4778 15.9116 12.4778C17.7301 12.4778 19.2093 13.9571 19.2093 15.7756C19.2093 17.594 17.7301 19.0734 15.9116 19.0734Z" fill="white"/>
<path d="M19.9986 26.2279H11.6526C8.19019 26.2279 5.37344 23.4112 5.37344 19.9488V11.6024C5.37344 8.13994 8.19018 5.32324 11.6526 5.32324H19.9986C23.461 5.32324 26.2781 8.13994 26.2781 11.6024V19.9488C26.2781 23.4112 23.461 26.2279 19.9986 26.2279ZM11.6526 7.28991C9.27452 7.28991 7.34011 9.22432 7.34011 11.6024V19.9488C7.34011 22.3269 9.27452 24.2613 11.6526 24.2613H19.9986C22.3767 24.2613 24.3115 22.3269 24.3115 19.9488V11.6024C24.3115 9.22432 22.3767 7.28991 19.9986 7.28991H11.6526Z" fill="white"/>
</svg>
