<svg width="246" height="287" viewBox="0 0 246 287" fill="none" xmlns="http://www.w3.org/2000/svg">
<path fill-rule="evenodd" clip-rule="evenodd" d="M161.247 0.0394603C158.083 0.16046 153.588 0.777462 149.737 1.62046C146.18 2.39746 141.699 3.86746 137.429 5.65446C136.252 6.14746 131.545 8.50346 130.364 9.19046C129.831 9.50146 129.318 9.79046 129.224 9.83346C129.031 9.92246 126.244 11.6325 125.806 11.9315C125.649 12.0385 125.141 12.3765 124.677 12.6825C123.525 13.4415 123.367 13.5495 123.056 13.7845C122.907 13.8965 122.35 14.3095 121.817 14.7015C121.284 15.0935 120.321 15.8215 119.678 16.3205C119.034 16.8185 118.341 17.3435 118.139 17.4855C117.937 17.6275 117.658 17.8715 117.52 18.0265C117.382 18.1825 117.236 18.3095 117.195 18.3095C117.154 18.3095 116.926 18.4635 116.689 18.6515C116.451 18.8395 116.223 18.9935 116.181 18.9935C116.139 18.9935 115.684 19.2535 115.171 19.5715C114.658 19.8885 114.137 20.2095 114.013 20.2835C113.888 20.3575 113.571 20.5585 113.308 20.7315C113.045 20.9035 112.795 21.0445 112.752 21.0445C112.708 21.0445 112.384 21.2185 112.031 21.4315C111.524 21.7365 109.764 22.6695 107.8 23.6725C107.21 23.9745 104.478 25.2615 104.428 25.2615C104.394 25.2615 104.101 25.3845 103.776 25.5355C103.451 25.6865 102.62 26.0485 101.931 26.3385C101.241 26.6295 100.498 26.9495 100.279 27.0495C100.059 27.1495 99.5723 27.3465 99.1963 27.4875C97.0213 28.3035 96.3263 28.5745 96.1493 28.6785C96.0403 28.7415 95.8833 28.7935 95.8003 28.7935C95.7173 28.7935 95.3193 28.9265 94.9153 29.0895C94.5123 29.2515 93.9513 29.4535 93.6693 29.5375C93.3873 29.6215 92.8743 29.7915 92.5293 29.9165C92.1843 30.0415 91.6203 30.2275 91.2763 30.3285C90.9313 30.4305 90.3923 30.6065 90.0793 30.7205C88.8703 31.1605 83.1473 32.7935 81.8173 33.0775C81.4103 33.1645 80.7433 33.3345 80.3353 33.4545C79.9283 33.5755 79.3643 33.7085 79.0823 33.7515C78.8003 33.7945 77.9543 33.9745 77.2023 34.1515C75.7103 34.5025 72.6053 35.1275 71.7883 35.2415C71.5063 35.2805 70.7773 35.4115 70.1673 35.5315C68.6763 35.8255 67.6843 35.9475 65.1223 36.1495C62.8313 36.3295 58.4053 36.8315 57.5433 37.0085C57.2613 37.0665 56.1603 37.1475 55.0953 37.1885C53.7143 37.2415 53.1163 37.3075 53.0073 37.4165C52.9243 37.5005 52.7593 37.5685 52.6423 37.5685C52.3933 37.5685 52.2383 37.7565 52.4333 37.8215C52.5063 37.8465 52.2633 37.9295 51.8933 38.0075C51.2563 38.1405 50.4863 38.3575 47.7873 39.1625C47.1543 39.3515 46.5523 39.5065 46.4513 39.5065C46.1433 39.5065 41.9803 40.9405 40.8673 41.4295C40.5643 41.5625 40.2613 41.6715 40.1933 41.6715C40.1253 41.6715 39.7063 41.8305 39.2623 42.0245C38.8183 42.2185 38.0963 42.5325 37.6573 42.7225C35.2943 43.7465 30.7663 46.0745 29.1423 47.0995C28.8743 47.2695 28.4493 47.5355 28.1993 47.6915C27.9483 47.8485 27.5293 48.1215 27.2683 48.2995C27.0073 48.4775 26.7563 48.6225 26.7093 48.6225C26.6633 48.6225 26.4583 48.7495 26.2553 48.9055C26.0513 49.0605 25.5343 49.4265 25.1043 49.7185C24.6753 50.0105 23.8113 50.6385 23.1843 51.1125C22.5583 51.5875 21.9943 52.0135 21.9313 52.0605C21.8323 52.1345 19.9743 53.6955 18.9713 54.5465C17.9523 55.4125 15.1773 58.1585 14.0683 59.4015C12.8123 60.8075 12.2463 61.4585 11.9873 61.7945C11.8463 61.9775 11.5903 62.3025 11.4183 62.5175C11.2463 62.7325 10.7633 63.3735 10.3453 63.9425C9.92728 64.5105 9.45228 65.1555 9.28828 65.3755C7.44728 67.8385 4.46029 73.4315 3.35229 76.4865C3.23829 76.7995 3.10928 77.1075 3.06528 77.1695C3.02128 77.2325 2.94829 77.4125 2.90429 77.5685C2.85929 77.7255 2.68029 78.2635 2.50629 78.7655C-0.326714 86.9145 -0.781717 96.5975 1.26228 105.204C1.64628 106.823 2.63929 110.078 2.90329 110.584C2.99429 110.759 3.06929 110.965 3.07029 111.043C3.07129 111.329 4.87929 115.346 5.67129 116.822C6.40529 118.192 6.50628 118.37 6.91328 119.02C7.11928 119.348 7.28728 119.657 7.28728 119.708C7.28728 119.758 7.43928 119.977 7.62428 120.194C7.81028 120.411 7.96429 120.629 7.96629 120.679C7.96929 120.729 8.24028 121.158 8.56928 121.634C8.89828 122.11 9.24229 122.607 9.33429 122.74C9.42529 122.873 9.64529 123.161 9.82229 123.38C10.1753 123.817 10.1673 123.807 10.6493 124.463C11.0753 125.043 12.0173 126.184 12.4373 126.628C12.6143 126.816 13.0803 127.327 13.4713 127.763C15.1023 129.582 18.7173 133.016 19.6453 133.629C19.8883 133.79 20.9243 134.57 21.8063 135.256C21.9883 135.397 22.2233 135.565 22.3283 135.629C22.4343 135.693 22.7983 135.929 23.1373 136.155C25.0823 137.447 27.9573 138.789 29.4743 139.114C30.0783 139.243 30.1903 139.306 30.2523 139.556C30.2923 139.716 30.3973 140.001 30.4853 140.189C30.5733 140.377 30.7453 140.813 30.8673 141.158C31.7793 143.73 34.0553 148.047 35.8693 150.648C36.0763 150.945 36.2093 151.247 36.1643 151.319C36.1163 151.397 36.1343 151.419 36.2103 151.372C36.3163 151.306 36.6153 151.668 36.6283 151.878C36.6303 151.913 36.8493 152.17 37.1153 152.448C37.3813 152.726 37.5993 153.003 37.5993 153.064C37.6003 153.125 37.5203 153.06 37.4223 152.919C37.3223 152.777 37.1833 152.698 37.1083 152.741C37.0343 152.784 37.0093 152.779 37.0533 152.73C37.0973 152.682 36.9813 152.481 36.7973 152.285C36.6133 152.088 36.4623 151.86 36.4613 151.778C36.4613 151.696 36.4103 151.661 36.3473 151.699C36.1293 151.834 36.2363 152.11 36.6893 152.581C36.9393 152.842 37.1453 153.087 37.1453 153.125C37.1453 153.164 37.3063 153.314 37.5033 153.46C37.7003 153.605 37.8193 153.653 37.7693 153.567C37.7183 153.48 37.8773 153.621 38.1233 153.881C38.5473 154.33 40.6153 156.297 41.7063 157.291C42.3773 157.902 44.9893 160.101 45.2163 160.246C45.3143 160.309 45.5003 160.453 45.6283 160.567C45.7573 160.681 46.1643 160.988 46.5323 161.251C46.9003 161.513 47.3683 161.869 47.5723 162.041C47.7773 162.214 47.9953 162.355 48.0573 162.355C48.1203 162.355 48.2403 162.437 48.3233 162.539C48.4073 162.64 48.7343 162.873 49.0503 163.057C49.3653 163.242 49.8543 163.568 50.1363 163.783C50.4183 163.998 50.8543 164.283 51.1053 164.417C51.3553 164.551 51.6513 164.74 51.7613 164.836C51.8713 164.933 52.0603 165.068 52.1813 165.136C52.3023 165.205 52.8263 165.517 53.3463 165.83C54.6943 166.643 55.4953 167.101 56.9743 167.903C58.7603 168.872 61.6003 170.239 63.1843 170.894C63.6863 171.101 64.1943 171.321 64.3153 171.384C64.9263 171.701 70.2653 173.604 71.6183 173.986C76.0873 175.25 80.6163 176.091 85.1433 176.497C87.0423 176.668 93.4193 176.565 94.9793 176.338C98.5623 175.819 100.548 175.414 102.672 174.772C103.267 174.592 103.934 174.397 104.153 174.338C104.517 174.242 105.449 173.87 107.116 173.157C107.461 173.009 107.948 172.76 108.199 172.603C108.449 172.446 108.898 172.191 109.196 172.037C109.494 171.883 109.737 171.718 109.737 171.671C109.737 171.624 109.803 171.585 109.884 171.585C109.965 171.585 110.208 171.434 110.425 171.248C110.642 171.063 110.866 170.909 110.923 170.906C111.059 170.9 111.928 170.254 112.423 169.79C112.64 169.587 112.863 169.42 112.917 169.42C113.364 169.42 118.74 163.475 118.74 162.981C118.74 162.935 118.894 162.722 119.082 162.508C119.27 162.294 119.424 162.064 119.424 161.998C119.424 161.931 119.539 161.717 119.68 161.522C120.072 160.979 120.993 159.212 121.635 157.769C122.773 155.214 123.871 151.429 124.106 149.251C124.164 148.717 124.263 147.947 124.327 147.54C124.521 146.298 124.589 142.811 124.451 141.225C124.298 139.477 124.141 139.69 125.71 139.508C130.264 138.978 134.5 138.144 138.1 137.067C138.75 136.873 139.317 136.714 139.359 136.714C139.445 136.714 139.937 137.685 139.937 137.856C139.937 137.977 141.627 141.46 141.954 142.013C143.195 144.11 143.755 145.014 143.936 145.211C144.056 145.34 144.153 145.479 144.153 145.519C144.153 145.606 145.167 147.077 145.375 147.292C145.455 147.374 145.521 147.483 145.521 147.534C145.521 147.674 147.174 149.73 148.59 151.35C150.255 153.254 152.693 155.667 154.53 157.226C154.862 157.508 155.213 157.829 155.31 157.939C155.407 158.048 155.524 158.138 155.572 158.138C155.619 158.138 156.167 158.564 156.789 159.084C157.411 159.605 158.272 160.271 158.701 160.564C159.13 160.858 159.788 161.318 160.165 161.587C160.541 161.856 161.009 162.177 161.206 162.301C161.403 162.424 161.917 162.756 162.349 163.038C162.78 163.32 163.234 163.613 163.358 163.689C163.984 164.072 165.464 164.936 165.891 165.168C166.157 165.313 166.619 165.568 166.917 165.734C167.687 166.165 170.361 167.481 171.504 167.992C172.036 168.23 172.795 168.572 173.19 168.752C173.584 168.931 173.951 169.078 174.006 169.078C174.06 169.078 174.429 169.232 174.827 169.42C175.224 169.608 175.616 169.762 175.698 169.762C175.78 169.762 176.062 169.86 176.325 169.979C176.588 170.098 177.11 170.284 177.486 170.392C177.863 170.499 178.222 170.623 178.284 170.667C178.347 170.71 178.68 170.832 179.025 170.937C179.37 171.042 180.139 171.278 180.734 171.461C182.967 172.146 186.67 173.067 187.193 173.067C187.351 173.067 187.616 173.14 187.782 173.229C187.949 173.318 188.175 173.419 188.284 173.453C188.689 173.58 188.482 173.746 187.999 173.682C187.733 173.647 187.387 173.67 187.23 173.734C186.981 173.835 187.019 173.851 187.529 173.857C187.85 173.861 188.274 173.897 188.471 173.936C188.771 173.996 188.818 173.977 188.759 173.823C188.673 173.599 188.993 173.445 189.197 173.612C189.275 173.675 189.54 173.71 189.786 173.689C190.033 173.669 190.366 173.716 190.527 173.794C190.943 173.996 192.959 174.013 194.637 173.829C196.08 173.67 196.836 173.448 198.341 172.739C198.717 172.562 199.153 172.359 199.31 172.288C199.62 172.148 200.667 171.544 201.199 171.199C201.382 171.08 201.814 170.8 202.159 170.577C203.46 169.734 206.071 167.247 206.491 166.451C206.571 166.298 206.672 166.147 206.714 166.115C207.315 165.67 208.33 163.441 208.37 162.477C208.4 161.75 207.946 160.645 207.617 160.645C207.558 160.645 207.319 160.521 207.085 160.37C206.851 160.219 206.147 159.924 205.521 159.715L204.381 159.335L201.874 159.337C199.937 159.339 199.082 159.389 198.113 159.556C195.454 160.015 193.658 159.754 192.618 158.758C191.485 157.673 193.786 154.946 196.997 153.569C197.298 153.441 197.698 153.262 197.887 153.172C198.152 153.047 198.91 153.002 201.192 152.978L204.153 152.946L205.371 152.532C209.357 151.176 211.472 148.193 211.068 144.496C210.966 143.561 211.016 143.42 211.647 142.873C212.114 142.467 212.871 141.018 212.871 140.53C212.871 139.902 211.928 138.654 211.261 138.398C211.144 138.353 211.048 138.272 211.048 138.217C211.048 138.059 209.254 137.214 208.079 136.818C206.552 136.303 203.047 136.278 200.848 136.767C200.096 136.934 199.164 137.14 198.776 137.226C197.699 137.465 195.437 138.222 193.783 138.898C193.469 139.026 192.905 139.247 192.529 139.389C192.153 139.531 191.486 139.788 191.048 139.959C189.77 140.46 187.235 141.228 186.372 141.377C185.935 141.452 185.065 141.645 184.438 141.805C183.676 142 182.854 142.116 181.955 142.156C180.76 142.209 180.593 142.242 180.445 142.453C179.99 143.102 180.382 143.694 181.471 144.006C182.214 144.218 182.523 144.448 183.798 145.731C183.899 145.834 184.316 146.18 184.723 146.5C185.13 146.821 185.584 147.187 185.732 147.313C187.412 148.755 191.319 150.793 194.637 151.96L195.606 152.3L195.264 152.452C193.707 153.147 191.145 155.637 190.651 156.936C190.439 157.493 190.403 158.893 190.596 159.053C190.688 159.129 190.763 159.249 190.763 159.32C190.763 159.633 191.69 160.436 192.487 160.813C193.768 161.419 195.673 161.586 198.341 161.327C202.806 160.893 204.08 160.963 205.8 161.735C206.835 162.199 206.888 162.572 206.1 163.821C205.938 164.077 205.806 164.333 205.806 164.388C205.806 164.443 205.653 164.688 205.467 164.932C203.092 168.035 200.171 170.166 196.746 171.292C193.685 172.299 190.435 172.155 185.088 170.778C184.38 170.595 183.732 170.446 183.649 170.446C183.416 170.446 179.392 169.203 178.284 168.789C177.908 168.648 177.472 168.497 177.316 168.452C176.697 168.277 174.118 167.237 172.902 166.673C172.512 166.492 172.162 166.343 172.126 166.343C171.96 166.343 167.422 164.013 166.147 163.273C165.364 162.818 164.567 162.355 164.376 162.244C164.094 162.081 161.427 160.315 160.41 159.62C160.18 159.462 158.948 158.552 158.683 158.343C158.251 158.003 157.57 157.472 157.297 157.262C157.119 157.125 156.786 156.843 156.556 156.635C156.326 156.428 155.746 155.924 155.267 155.517C154.184 154.596 150.883 151.339 150.193 150.51C149.911 150.171 149.552 149.755 149.395 149.586C149.105 149.272 148.221 148.166 147.028 146.628C146.378 145.788 145.3 144.199 144.861 143.429C144.738 143.214 144.417 142.679 144.148 142.241C143.217 140.723 141.19 136.561 141.19 136.166C141.19 136.115 141.562 135.933 142.016 135.762C143.031 135.38 144.362 134.836 145.122 134.491C145.435 134.349 146.23 133.99 146.888 133.693C148.82 132.821 150.452 131.952 151.608 131.181C151.979 130.933 152.364 130.68 152.463 130.617C152.562 130.554 152.823 130.375 153.042 130.219C153.261 130.062 153.697 129.759 154.011 129.546C154.324 129.332 154.765 128.998 154.99 128.804C155.215 128.61 155.523 128.354 155.674 128.234C156.637 127.472 158.67 125.512 159.772 124.283C161.446 122.416 163.298 120.104 163.298 119.879C163.298 119.815 163.379 119.694 163.478 119.613C163.659 119.462 165.35 116.934 165.35 116.814C165.35 116.778 165.448 116.611 165.567 116.443C165.781 116.143 166.194 115.42 166.633 114.577C166.919 114.027 166.86 114.006 167.866 115.033C168.62 115.803 169.289 116.394 170.745 117.575C172.337 118.866 175.574 120.349 178.242 121.009L179.766 121.386L182.672 121.374C185.468 121.363 185.621 121.351 186.717 121.05C187.344 120.878 188.036 120.699 188.256 120.652C190.739 120.121 194.658 117.704 197.206 115.132C201.016 111.287 204.324 104.081 204.324 99.6265C204.324 99.3745 204.356 99.3525 204.588 99.4415C205.059 99.6205 206.077 99.6915 206.632 99.5835L207.173 99.4785L207.174 100.802C207.181 106.798 209.709 114.222 212.688 116.99C212.851 117.142 212.985 117.32 212.985 117.387C212.985 117.547 215.283 119.734 215.451 119.734C215.523 119.734 215.61 119.807 215.644 119.896C215.794 120.285 218.66 121.856 219.994 122.278C221.955 122.9 224.444 123.098 225.977 122.754C226.447 122.649 227.053 122.517 227.323 122.461C227.594 122.405 228.286 122.168 228.862 121.935C229.815 121.549 230.253 121.326 231.618 120.528C232.901 119.777 235.076 117.771 236.183 116.315C236.492 115.907 236.774 115.548 236.808 115.517C238.592 113.89 241.491 106.257 241.929 102.031C242.135 100.044 242.292 98.7085 242.322 98.6785C242.339 98.6615 242.653 98.5695 243.02 98.4735C244.688 98.0395 245.31 96.7895 245.017 94.4575C244.886 93.4095 244.8 93.1625 244.351 92.5485C243.476 91.3515 237.223 89.0705 233.597 88.6255C233.135 88.5695 232.116 88.4425 231.333 88.3435C227.252 87.8305 221.337 88.1565 217.826 89.0885C217.326 89.2205 216.712 89.3725 216.461 89.4245C216.012 89.5175 213.723 90.3095 212.561 90.7745L211.966 91.0125L212.031 90.6445C212.066 90.4415 212.171 89.9935 212.263 89.6485L212.43 89.0215L212.964 89.0025C213.471 88.9845 215.808 88.2855 217.657 87.5985C219.591 86.8805 221.12 86.6585 223.526 86.7455C226.723 86.8615 228.181 86.3915 228.615 85.1035C228.819 84.4975 228.679 75.2515 228.431 72.9315C228.06 69.4635 227.711 66.9215 226.76 60.7595C226.202 57.1395 226.002 56.1215 225.294 53.2955C225.113 52.5745 224.904 51.7025 224.829 51.3575C224.753 51.0135 224.596 50.4855 224.479 50.1855C224.363 49.8855 224.267 49.4665 224.267 49.2535C224.267 48.3065 223.23 43.5185 222.612 41.6145C221.868 39.3205 219.763 34.8585 218.839 33.6165C218.691 33.4165 218.569 33.2125 218.569 33.1615C218.569 33.1105 218.398 32.8125 218.188 32.4985C217.979 32.1845 217.493 31.4405 217.108 30.8455C216.723 30.2495 216.318 29.6405 216.207 29.4925C216.096 29.3435 215.928 29.1075 215.834 28.9685C215.2 28.0295 214.864 27.5615 213.953 26.3455C211.622 23.2365 208.088 19.3285 205.294 16.7715C204.747 16.2695 204.193 15.7605 204.063 15.6395C203.934 15.5195 203.312 14.9945 202.68 14.4735C200.543 12.7105 200.053 12.3235 199.025 11.5855C198.083 10.9105 197.987 10.8445 196.966 10.1725C196.594 9.92846 195.954 9.50546 195.543 9.23246C195.133 8.96046 194.752 8.73646 194.698 8.73646C194.643 8.73646 194.517 8.66446 194.419 8.57646C194.32 8.48746 193.982 8.27546 193.669 8.10346C193.355 7.93246 192.791 7.62046 192.415 7.41046C190.752 6.48346 187.481 4.92946 185.863 4.29746C185.33 4.08946 184.648 3.82146 184.348 3.70146C182.472 2.95446 177.807 1.59646 176.233 1.33946C175.92 1.28846 174.996 1.11546 174.182 0.95646C170.455 0.22546 165.524 -0.12354 161.247 0.0394603ZM167.743 1.95046C171.194 2.16846 175.86 2.92846 178.291 3.67046C178.796 3.82446 179.309 3.95046 179.431 3.95046C179.552 3.95146 180.062 4.10446 180.563 4.29246C181.065 4.47946 181.542 4.63346 181.623 4.63346C181.705 4.63446 182.192 4.79446 182.706 4.99046C183.22 5.18546 184.102 5.52146 184.666 5.73646C185.495 6.05246 187.929 7.09746 188.712 7.47446C188.965 7.59646 189.874 8.06346 190.136 8.20546C190.261 8.27346 190.672 8.49146 191.048 8.68846C192.297 9.34346 192.851 9.66146 193.134 9.88346C193.288 10.0055 193.467 10.1045 193.531 10.1045C193.595 10.1045 193.806 10.2215 194 10.3655C194.194 10.5095 194.712 10.8455 195.15 11.1125C195.589 11.3795 196.23 11.8025 196.575 12.0525C196.92 12.3025 197.381 12.6325 197.6 12.7855C197.82 12.9385 198.281 13.2705 198.626 13.5225C198.971 13.7755 199.381 14.0705 199.538 14.1785C199.694 14.2865 199.874 14.4295 199.937 14.4965C199.999 14.5635 200.254 14.7675 200.502 14.9505C200.751 15.1325 201.035 15.3605 201.135 15.4565C201.234 15.5525 201.518 15.7995 201.766 16.0055C202.671 16.7565 203.096 17.1325 204.118 18.0815C205.826 19.6685 207.515 21.3615 207.515 21.4865C207.515 21.5505 207.589 21.6445 207.68 21.6955C207.9 21.8185 209.454 23.5645 210.611 24.9875C211.881 26.5515 213.099 28.1145 213.099 28.1825C213.099 28.2205 213.24 28.4205 213.412 28.6265C213.971 29.2965 214.467 30.0095 214.467 30.1425C214.467 30.2135 214.596 30.4135 214.755 30.5865C214.913 30.7605 215.255 31.2355 215.513 31.6425C215.772 32.0505 216.21 32.7335 216.486 33.1605C217.502 34.7315 218.173 35.9185 218.977 37.5685C219.267 38.1645 219.628 38.8895 219.778 39.1795C219.928 39.4705 220.051 39.7635 220.051 39.8315C220.051 39.8995 220.179 40.2355 220.335 40.5785C220.492 40.9205 220.62 41.2425 220.62 41.2935C220.619 41.4045 220.061 40.7395 220.055 40.6205C220.051 40.5495 219.544 39.7605 218.726 38.5525C218.361 38.0125 216.32 36.2015 216.077 36.2015C216.012 36.2015 215.918 36.1285 215.868 36.0405C215.749 35.8295 213.914 34.6805 212.46 33.9075C211.438 33.3645 211.23 33.1985 210.619 32.4405C210.24 31.9705 209.694 31.3415 209.406 31.0425C209.118 30.7435 208.882 30.4605 208.882 30.4135C208.882 30.1885 203.964 25.3985 203.603 25.2715C203.529 25.2455 203.418 25.1635 203.355 25.0905C203.047 24.7285 200.613 23.0785 199.411 22.4175C199.234 22.3205 198.536 21.9365 197.86 21.5645C196.433 20.7775 195.026 20.0745 193.897 19.5835C193.458 19.3925 192.682 19.0535 192.173 18.8305C191.664 18.6065 191.187 18.4235 191.114 18.4235C191.041 18.4235 190.791 18.3275 190.559 18.2115C189.423 17.6415 183.704 15.9335 182.273 15.7375C181.959 15.6955 181.267 15.5625 180.734 15.4435C179.476 15.1625 175.064 14.7795 173.099 14.7815C170.836 14.7835 167.739 15.0995 165.236 15.5855C163.421 15.9365 159.96 16.7585 159.435 16.9615C159.272 17.0245 158.754 17.1945 158.284 17.3405C155.906 18.0755 151.809 19.8805 150.907 20.5895C150.748 20.7145 150.57 20.8165 150.512 20.8165C150.453 20.8165 150.181 20.9705 149.908 21.1585C149.635 21.3465 149.379 21.5005 149.34 21.5005C149.256 21.5005 147.162 22.8565 146.048 23.6325C145.617 23.9325 145.147 24.2555 145.004 24.3495C144.052 24.9725 143.012 25.7445 142.159 26.4635C141.783 26.7805 141.142 27.2915 140.734 27.5985C140.327 27.9055 139.968 28.1885 139.937 28.2275C139.905 28.2665 139.264 28.8375 138.512 29.4965C136.518 31.2445 133.67 34.1205 131.994 36.0795C129.191 39.3535 126.47 43.5915 124.305 48.0535C122.977 50.7925 122.045 52.8435 122.045 53.0315C122.045 53.0905 121.945 53.3455 121.823 53.5975C121.701 53.8495 121.489 54.3855 121.352 54.7865C121.215 55.1885 121.092 55.5305 121.079 55.5465C121.066 55.5625 120.265 55.4255 119.299 55.2415C114.891 54.3995 109.564 54.1785 104.951 54.6445C101 55.0435 100.607 55.0915 99.7093 55.2865C99.2393 55.3895 98.5463 55.5265 98.1703 55.5915C97.7943 55.6565 96.7173 55.8655 95.7773 56.0565C94.8373 56.2465 93.8373 56.4425 93.5553 56.4905C91.7113 56.8105 88.8053 57.6595 86.1473 58.6545C85.6153 58.8535 84.9943 59.0855 84.7673 59.1695C84.2593 59.3595 82.4513 60.0945 81.9883 60.3005C79.1043 61.5815 78.1083 62.0865 75.9083 63.3835C75.5043 63.6225 73.5083 65.0095 72.8813 65.4885C72.6753 65.6455 72.2203 65.9915 71.8683 66.2585C71.5163 66.5245 71.0123 66.9485 70.7493 67.1985C70.4853 67.4495 70.2363 67.6545 70.1953 67.6545C69.9683 67.6545 66.1583 71.5995 65.6483 72.3635C65.0543 73.2515 64.8503 73.5575 64.6553 73.8535C64.5363 74.0355 64.3613 74.2934 64.2673 74.4275C64.1733 74.5615 63.9943 74.8385 63.8683 75.0445C63.5813 75.5155 63.2953 75.9605 62.7663 76.7635C61.0253 79.4045 59.8733 82.4725 59.5303 85.3795C59.4943 85.6905 59.3953 86.2785 59.3123 86.6855C59.2283 87.0925 59.1253 87.8755 59.0823 88.4235C59.0183 89.2415 58.9713 89.4205 58.8173 89.4205C57.5333 89.4205 51.4913 90.8915 49.6443 91.6545C49.2803 91.8045 48.9313 91.9275 48.8693 91.9275C48.5293 91.9275 44.3003 93.9015 43.5763 94.3985C43.3923 94.5245 42.9083 94.8385 42.5013 95.0965C41.7063 95.5995 41.3283 95.8785 39.7863 97.0985C38.3843 98.2085 37.2593 99.2175 37.2593 99.3635C37.2593 99.4935 36.2713 100.701 35.8393 101.101C35.7033 101.226 35.3263 101.641 35.0003 102.022C34.6753 102.404 34.2773 102.786 34.1173 102.872C33.9113 102.982 33.8423 103.093 33.8843 103.251C33.9163 103.374 33.8553 103.608 33.7493 103.77C33.5473 104.076 33.4843 104.18 32.9723 105.033C32.8033 105.315 32.5193 105.714 32.3403 105.92C32.1623 106.126 32.0163 106.344 32.0163 106.404C32.0163 106.465 32.0173 106.54 32.0193 106.572C32.0203 106.604 31.9423 106.784 31.8453 106.971C31.7483 107.159 31.6993 107.312 31.7363 107.312C31.7743 107.312 31.7083 107.453 31.5913 107.625C31.3253 108.016 30.6493 109.502 30.6493 109.696C30.6493 109.775 30.5483 109.968 30.4253 110.125C30.1313 110.499 29.5883 112.286 29.6703 112.612C29.7103 112.769 29.6083 113.121 29.4043 113.536C28.9813 114.397 28.8223 115.073 29.0963 114.846C29.3343 114.648 29.3293 114.732 29.0503 115.631C27.9303 119.242 27.6613 127.226 28.4903 132.212C28.8933 134.635 28.9513 134.935 29.1683 135.688C29.2853 136.095 29.4153 136.618 29.4573 136.85L29.5323 137.271L29.0933 137.153C28.6783 137.042 27.0693 136.377 26.6273 136.134C26.5143 136.072 26.1313 135.864 25.7743 135.671C25.0673 135.289 23.4683 134.289 23.0143 133.946C22.8573 133.827 22.3953 133.492 21.9863 133.199C21.5783 132.907 21.1313 132.565 20.9923 132.44C20.8543 132.315 20.5983 132.096 20.4243 131.955C19.1343 130.907 18.3553 130.197 16.7063 128.563C15.8193 127.685 14.8933 126.736 14.6473 126.455C13.1903 124.786 12.7443 124.263 12.1273 123.494C11.0233 122.119 10.2063 120.96 9.16328 119.291C8.39528 118.062 8.23128 117.774 7.65028 116.637C7.34128 116.031 6.98729 115.39 6.86329 115.213C6.66829 114.933 6.36328 114.289 5.46728 112.269C1.96228 104.364 0.860285 94.5375 2.50829 85.8875C3.10429 82.7575 4.45229 78.1425 5.22729 76.5775C5.35729 76.3135 5.46429 76.0505 5.46429 75.9935C5.46429 75.9355 5.75029 75.2785 6.10029 74.5345C6.45029 73.7905 6.80729 73.0275 6.89429 72.8395C6.98029 72.6515 7.23829 72.1645 7.46629 71.7565C7.69328 71.3495 7.98728 70.8105 8.11928 70.5605C8.25028 70.3095 8.62929 69.6795 8.96229 69.1605C9.29429 68.6405 9.56628 68.1955 9.56628 68.1715C9.56628 68.0995 10.5083 66.6915 10.5983 66.6285C10.6433 66.5975 10.7763 66.4135 10.8923 66.2195C11.2333 65.6535 11.7583 64.8905 12.0703 64.5075C12.2283 64.3125 12.4863 63.9825 12.6433 63.7755C12.8003 63.5685 13.0313 63.2885 13.1563 63.1545C13.2813 63.0195 13.6323 62.6055 13.9353 62.2335C15.6303 60.1545 18.9493 56.7945 20.7343 55.3505C21.0793 55.0715 21.5923 54.6455 21.8743 54.4045C22.1563 54.1625 22.4383 53.9275 22.5013 53.8825C23.1693 53.4015 24.6743 52.2075 24.7043 52.1355C24.7253 52.0835 24.8083 52.0415 24.8893 52.0415C24.9713 52.0415 25.1023 51.9635 25.1823 51.8675C25.2993 51.7265 26.9993 50.5345 27.7783 50.0475C27.8783 49.9845 28.3733 49.6735 28.8773 49.3545C29.3823 49.0365 30.1533 48.5695 30.5923 48.3165C31.0313 48.0635 31.5693 47.7495 31.7883 47.6185C33.1573 46.8025 36.9863 44.9315 39.1393 44.0265C42.3813 42.6635 46.0013 41.3955 48.3133 40.8135C48.7203 40.7115 49.3613 40.5355 49.7373 40.4235C52.0933 39.7225 57.3393 38.7095 58.6383 38.7045C59.1963 38.7035 60.7293 38.5745 62.0453 38.4185C63.3613 38.2635 65.1823 38.0595 66.0903 37.9655C66.9993 37.8715 68.2043 37.6935 68.7693 37.5695C69.3333 37.4465 70.2303 37.2915 70.7633 37.2275C71.2963 37.1625 72.0903 37.0305 72.5293 36.9345C72.9683 36.8375 73.6353 36.7055 74.0113 36.6395C75.6453 36.3535 78.6283 35.7125 79.7663 35.4035C80.2363 35.2745 80.8863 35.1235 81.2103 35.0665C81.5353 35.0095 82.1503 34.8585 82.5783 34.7325C83.0053 34.6055 83.6123 34.4465 83.9253 34.3785C84.2393 34.3105 84.9053 34.1335 85.4073 33.9855C85.9083 33.8365 86.9593 33.5265 87.7433 33.2955C88.5263 33.0645 89.6033 32.7335 90.1363 32.5585C90.6693 32.3835 91.2593 32.2045 91.4473 32.1605C91.6353 32.1175 92.0963 31.9655 92.4723 31.8225C92.8483 31.6805 93.4123 31.4825 93.7263 31.3835C95.0383 30.9695 99.0243 29.4995 100.335 28.9465C102.213 28.1555 103.412 27.6385 105.122 26.8825C106.797 26.1425 112.965 23.0475 114.467 22.1945C115.884 21.3885 117.433 20.3845 117.881 19.9805C118.009 19.8655 118.293 19.6715 118.512 19.5495C118.731 19.4265 119.116 19.1725 119.367 18.9835C119.618 18.7945 120.079 18.4615 120.392 18.2425C121.351 17.5735 121.602 17.3805 123.052 16.2015C124.717 14.8465 125.167 14.5035 126.147 13.8375C127.104 13.1875 129.107 11.9275 129.182 11.9275C129.214 11.9275 129.464 11.7735 129.737 11.5855C130.01 11.3975 130.264 11.2435 130.3 11.2435C130.336 11.2435 130.84 10.9705 131.419 10.6365C132.522 10.0005 136.492 8.02946 138.056 7.34246C138.91 6.96646 139.35 6.78846 141.361 6.00746C146.688 3.93646 153.789 2.33646 159.082 2.01246C160.241 1.94146 161.293 1.86846 161.418 1.85046C162.068 1.75346 165.486 1.80846 167.743 1.95046ZM175.913 16.6075C177.479 16.7385 180.848 17.2165 181.578 17.4115C181.823 17.4765 182.49 17.6255 183.06 17.7415C184.807 18.0965 189.522 19.5915 190.934 20.2375C191.059 20.2955 191.521 20.4965 191.959 20.6845C193.519 21.3555 195.047 22.0665 195.777 22.4615C196.184 22.6825 196.749 22.9835 197.031 23.1315C197.93 23.6015 198.865 24.1235 199.178 24.3295C199.344 24.4395 199.564 24.5785 199.665 24.6385C200.125 24.9115 201.893 26.1235 202.062 26.2815C202.165 26.3785 202.471 26.6375 202.741 26.8565C204.224 28.0595 207.834 31.5895 207.71 31.7145C207.687 31.7365 207.134 31.5725 206.481 31.3495C205.827 31.1275 204.985 30.8745 204.609 30.7875C204.233 30.7015 203.643 30.5515 203.298 30.4545C202.954 30.3585 202.236 30.2015 201.703 30.1065C201.17 30.0115 200.324 29.8555 199.823 29.7605C196.348 29.1005 189.408 29.2175 185.92 29.9955C185.231 30.1495 184.59 30.2755 184.496 30.2755C183.652 30.2735 179.188 31.9785 177.259 33.0385C175.719 33.8855 175.444 34.0505 175.2 34.2755C175.071 34.3945 174.913 34.4915 174.851 34.4915C174.788 34.4915 174.59 34.6455 174.41 34.8335C174.229 35.0215 174.037 35.1755 173.983 35.1755C173.769 35.1755 171.53 37.3545 170.763 38.3095C170.142 39.0825 161.086 48.1185 159.88 49.1685C157.862 50.9245 154.855 52.7155 152.415 53.6145C150.114 54.4615 149.533 54.6625 149.39 54.6625C149.306 54.6625 148.773 54.8115 148.205 54.9945C145.148 55.9765 143.112 56.5005 141.589 56.6995C139.177 57.0145 136.266 57.2005 134.742 57.1365C130.269 56.9495 128.391 56.8075 126.945 56.5495C126.099 56.3975 124.894 56.1865 124.267 56.0795C123.64 55.9725 123.069 55.8535 122.997 55.8145C122.86 55.7415 123.121 54.9745 123.77 53.5465C123.949 53.1525 124.096 52.7865 124.096 52.7345C124.096 52.3805 127.155 46.2775 128.212 44.5205C128.848 43.4645 128.87 43.4295 129.595 42.3465C129.955 41.8065 130.25 41.3335 130.25 41.2945C130.25 41.2545 130.565 40.7975 130.951 40.2785C131.337 39.7595 131.811 39.1175 132.005 38.8505C132.199 38.5845 132.505 38.1995 132.684 37.9955C132.864 37.7925 133.358 37.2155 133.783 36.7145C134.834 35.4735 137.917 32.3595 139.31 31.1325C139.937 30.5795 140.49 30.0585 140.541 29.9735C140.591 29.8885 140.693 29.8185 140.768 29.8175C140.844 29.8165 141.15 29.5855 141.449 29.3055C141.749 29.0245 142.492 28.4195 143.102 27.9615C143.711 27.5035 144.649 26.7975 145.185 26.3935C145.722 25.9905 146.26 25.5955 146.382 25.5155C146.504 25.4365 146.757 25.2735 146.945 25.1535C147.133 25.0325 147.518 24.7755 147.8 24.5805C148.082 24.3865 148.569 24.0655 148.882 23.8685C149.196 23.6715 149.673 23.3665 149.942 23.1895C150.212 23.0125 150.448 22.8675 150.467 22.8675C150.486 22.8675 150.939 22.6165 151.472 22.3095C152.988 21.4375 155.864 20.0185 156.116 20.0185C156.172 20.0185 156.549 19.8655 156.956 19.6775C157.362 19.4885 157.762 19.3355 157.845 19.3355C157.927 19.3355 158.432 19.1855 158.966 19.0025C160.964 18.3175 164.906 17.3545 166.483 17.1655C166.957 17.1095 168.036 16.9615 168.882 16.8365C171.413 16.4645 173.412 16.3995 175.913 16.6075ZM108.819 27.5115L108.427 27.9395L108.854 27.5465C109.089 27.3305 109.281 27.1385 109.281 27.1195C109.281 27.0325 109.185 27.1145 108.819 27.5115ZM106.825 29.3245C106.526 29.6465 106.533 29.8385 106.835 29.5885C107.037 29.4215 107.274 29.0215 107.172 29.0215C107.135 29.0215 106.979 29.1585 106.825 29.3245ZM195.262 31.0785C197.078 31.2025 200.239 31.5795 200.904 31.7525C201.124 31.8105 201.714 31.9375 202.216 32.0365C204.684 32.5245 208.4 33.8265 210.64 34.9895C211.198 35.2795 211.702 35.5175 211.759 35.5175C211.815 35.5175 212.085 35.6715 212.358 35.8595C212.632 36.0475 212.897 36.2015 212.949 36.2015C213 36.2025 213.299 36.3945 213.613 36.6295C213.927 36.8635 214.388 37.1965 214.638 37.3685C215.658 38.0685 218.202 40.7305 218.805 41.7285C219.473 42.8345 221.378 46.6445 221.591 47.3005C221.674 47.5575 221.954 48.3325 222.212 49.0215C223.106 51.4125 225.065 59.8855 225.065 61.3625C225.065 61.5575 225.217 62.6305 225.403 63.7455C226.041 67.5675 226.533 71.5665 226.656 73.9225C226.723 75.2065 226.806 76.6115 226.841 77.0425L226.905 77.8265L226.583 77.7525C223.711 77.0885 218.556 78.0045 216.235 79.5925C215.324 80.2155 213.555 81.9775 213.555 82.2625C213.555 82.3155 213.386 82.6274 213.181 82.9555C212.975 83.2835 212.743 83.6545 212.666 83.7795C212.186 84.5605 211.464 86.3065 211.126 87.5075C210.707 88.9965 210.136 91.4365 210.136 91.7385C210.136 92.8045 205.415 92.8175 204.495 91.7535C204.397 91.6395 203.209 90.6335 202.546 90.1015C202.352 89.9465 201.314 89.2565 200.222 88.5565C199.648 88.1895 197.28 86.9354 196.99 86.8455C196.856 86.8035 196.452 86.6225 196.094 86.4425C195.735 86.2625 195.375 86.1155 195.294 86.1155C195.213 86.1155 194.968 86.0205 194.75 85.9045C193.29 85.1295 188.036 83.7025 185.065 83.2735C181.944 82.8235 181.454 82.7905 178.028 82.8035L174.58 82.8165L174.577 80.9625C174.565 75.2615 173.818 68.9355 172.405 62.5835C171.833 60.0125 170.063 54.3105 169.304 52.5945C168.896 51.6725 168.718 50.5555 168.714 48.9075C168.705 44.2355 170.83 40.0135 174.851 36.7145C176.091 35.6975 178.767 34.1165 180.051 33.6425C180.27 33.5615 180.68 33.3955 180.962 33.2735C183.367 32.2345 187.598 31.3335 191.276 31.0785C193.116 30.9515 193.39 30.9515 195.262 31.0785ZM167.323 45.1605C167.019 46.1415 167.009 46.2555 167.006 48.8505L167.002 51.5285L167.49 52.9375C167.759 53.7125 168.057 54.4975 168.152 54.6835C168.331 55.0295 169.131 57.4105 169.542 58.8225C170.439 61.9005 170.918 63.9435 171.546 67.3695C171.915 69.3785 172.053 70.3585 172.481 73.9795C172.712 75.9385 172.834 84.8355 172.658 86.8195C172.583 87.6545 172.505 88.5685 172.483 88.8505C172.378 90.2085 171.543 95.2675 171.11 97.1695C170.96 97.8285 170.804 98.5455 170.762 98.7655C170.532 99.9845 169.009 104.953 168.421 106.4C168.307 106.682 168 107.451 167.74 108.11C166.917 110.189 164.964 114.162 164.322 115.064C164.199 115.237 164.059 115.474 164.011 115.591C163.791 116.124 161.658 119.286 160.877 120.237C160.704 120.447 160.563 120.652 160.563 120.694C160.563 120.775 159.729 121.798 159.092 122.498C158.705 122.922 158.342 123.105 158.641 122.725C158.781 122.546 158.777 122.541 158.604 122.676C158.498 122.759 158.436 122.891 158.466 122.97C158.497 123.048 158.174 123.416 157.75 123.788C156.747 124.665 155.705 125.622 155.246 126.087C155.045 126.29 154.849 126.457 154.81 126.457C154.771 126.457 154.395 126.753 153.975 127.114C153.555 127.476 153.02 127.89 152.785 128.035C152.55 128.18 152.358 128.346 152.358 128.404C152.358 128.461 152.291 128.508 152.209 128.508C152.127 128.508 151.952 128.608 151.822 128.73C151.691 128.852 151.011 129.3 150.31 129.727C148.441 130.865 148.015 131.112 147.572 131.312C147.353 131.412 147.071 131.584 146.945 131.695C146.82 131.805 146.23 132.115 145.635 132.382C145.039 132.649 144.244 133.008 143.868 133.179C142.619 133.747 140.078 134.708 139.196 134.946C138.82 135.048 138.179 135.226 137.771 135.342C134.377 136.313 128.81 137.444 126.261 137.681C114.844 138.742 105.36 137.838 95.5493 134.751C92.3893 133.757 87.5723 131.806 85.9773 130.873C85.7203 130.724 84.9883 130.318 83.8233 129.68C83.3913 129.443 82.9533 129.198 82.8503 129.135C80.4273 127.664 77.7413 125.805 77.0183 125.098C76.9173 124.999 76.4623 124.585 76.0063 124.178C75.0383 123.313 75.2143 123.488 73.8213 121.996C73.2163 121.347 72.4593 120.483 72.1393 120.075C71.8203 119.668 71.3783 119.104 71.1573 118.822C70.5953 118.104 69.3833 116.402 69.1123 115.951C68.9873 115.744 68.7823 115.414 68.6563 115.219C67.8983 114.044 67.4483 113.269 66.5143 111.528C65.6793 109.972 64.3813 107.197 64.3813 106.968C64.3813 106.909 64.2273 106.542 64.0393 106.154C63.8513 105.766 63.6973 105.385 63.6973 105.307C63.6973 105.23 63.5503 104.764 63.3713 104.273C62.0243 100.592 60.8503 94.9454 60.8493 92.1365L60.8483 91.0345L61.6183 90.9405C65.4803 90.4675 72.4573 91.1085 77.1453 92.3665C78.0533 92.6105 79.0533 92.8725 79.3673 92.9485C80.1253 93.1325 80.4703 93.2255 81.4183 93.4975C81.8573 93.6235 82.4983 93.7915 82.8433 93.8705C83.1873 93.9495 84.1103 94.2205 84.8943 94.4725L86.3183 94.9315L88.3703 94.9325C91.2223 94.9335 94.0673 94.3835 96.8683 93.2905C97.3423 93.1045 97.7843 92.9535 97.8513 92.9535C98.0253 92.9535 99.7153 92.2865 100.051 92.0855C100.207 91.9915 100.592 91.7885 100.905 91.6345C101.738 91.2244 102.499 90.7665 102.835 90.4745C102.997 90.3335 103.174 90.2185 103.228 90.2185C103.283 90.2185 103.397 90.1345 103.482 90.0315C103.567 89.9295 103.817 89.7295 104.038 89.5875C104.258 89.4455 104.669 89.1155 104.951 88.8545C105.233 88.5925 105.893 87.9855 106.417 87.5035C106.941 87.0225 107.469 86.5265 107.59 86.4005C107.896 86.0855 108.009 85.9725 108.233 85.7635C108.339 85.6635 108.709 85.2595 109.053 84.8655C109.398 84.4715 109.766 84.0655 109.871 83.9645C110.188 83.6555 112.879 80.0645 113.327 79.3505C114.435 77.5855 114.915 76.7295 115.67 75.1755C116.665 73.1275 116.96 72.3865 118.164 68.9075C118.24 68.6885 118.48 68.0215 118.698 67.4265C118.916 66.8305 119.225 65.9595 119.385 65.4885C119.545 65.0185 119.745 64.4985 119.831 64.3325C119.917 64.1675 120.038 63.8335 120.1 63.5925C120.197 63.2185 121.024 60.7905 121.921 58.2465L122.165 57.5555L122.931 57.6395C123.353 57.6855 124.165 57.8255 124.736 57.9505C131.878 59.5195 140.925 59.1655 147.629 57.0545C148.193 56.8765 149.27 56.5435 150.022 56.3145C153.241 55.3325 155.612 54.2845 157.828 52.8645C159.303 51.9195 159.984 51.4345 160.04 51.2875C160.073 51.2005 160.185 51.1305 160.289 51.1305C160.479 51.1305 162.048 49.6335 165.626 46.0415C166.696 44.9675 167.587 44.1015 167.604 44.1175C167.622 44.1345 167.496 44.6035 167.323 45.1605ZM115.2 56.4355C117.37 56.6725 120.335 57.1485 120.335 57.2605C120.335 57.3795 120.075 58.1335 119.748 58.9565C119.57 59.4065 119.424 59.8745 119.424 59.9955C119.424 60.1165 119.27 60.5885 119.082 61.0445C118.894 61.5005 118.74 61.9255 118.74 61.9885C118.74 62.0525 118.579 62.5455 118.381 63.0845C117.603 65.2105 117.393 65.7895 117.26 66.1725C117.184 66.3925 116.942 67.0585 116.724 67.6545C116.505 68.2495 116.246 68.9935 116.148 69.3065C115.883 70.1545 115.33 71.6045 114.962 72.4175C114.784 72.8115 114.637 73.1785 114.637 73.2315C114.637 73.2855 114.49 73.6285 114.311 73.9955C114.131 74.3625 113.964 74.7175 113.94 74.7845C113.643 75.6155 111.015 79.6144 109.338 81.7895C108.365 83.0515 104.581 86.8965 103.567 87.6535C97.7853 91.9705 90.6253 93.9845 85.5403 92.7235C84.0603 92.3565 82.1753 91.8655 80.5063 91.4115C73.0943 89.3965 71.3523 89.1355 65.3063 89.1355H60.8183L60.8793 88.0535C60.9133 87.4575 61.1023 86.1815 61.3003 85.2175C61.6093 83.7135 61.9153 82.7195 62.8643 80.1325C63.0053 79.7455 63.8403 78.3145 64.4843 77.3535C64.5843 77.2035 64.7173 77.0005 64.7803 76.9025C65.3583 76.0005 67.1613 73.3215 67.2673 73.2095C67.3413 73.1315 67.5523 72.8625 67.7363 72.6115C68.0883 72.1345 71.1553 69.0215 71.2743 69.0215C71.3123 69.0215 71.8153 68.6205 72.3923 68.1305C72.9693 67.6405 73.6483 67.0895 73.9013 66.9055C74.1543 66.7215 74.4363 66.5065 74.5283 66.4275C74.7523 66.2335 76.6073 65.0375 77.3163 64.6305C77.6293 64.4505 77.9113 64.2725 77.9423 64.2355C78.0273 64.1335 81.9003 62.2385 82.5583 61.9775C82.8713 61.8525 83.5893 61.5595 84.1533 61.3255C87.6513 59.8765 90.8353 58.8855 94.3533 58.1505C100.341 56.9005 102.314 56.6045 106.945 56.2615C108.74 56.1295 113.268 56.2245 115.2 56.4355ZM226.291 79.5645C226.972 79.7835 227.441 84.1455 226.831 84.5915C226.251 85.0155 225.469 85.1155 223.374 85.0315C220.816 84.9305 219.461 85.1115 217.298 85.8435C215.086 86.5925 213.053 87.2475 213.026 87.2205C212.998 87.1925 213.412 86.1515 213.569 85.8545C214.067 84.9125 214.412 84.3025 214.594 84.0465C214.712 83.8805 214.808 83.7095 214.808 83.6665C214.808 83.4905 215.583 82.4895 216.117 81.9755C217.478 80.6645 218.892 80.0215 221.418 79.5645C222.307 79.4035 225.789 79.4035 226.291 79.5645ZM187.533 80.7745C187.418 80.8415 187.199 80.8725 187.046 80.8435C186.698 80.7765 186.573 80.9445 186.895 81.0465C187.214 81.1485 187.646 81.0294 187.727 80.8175C187.804 80.6165 187.805 80.6165 187.533 80.7745ZM60.1313 81.1305C59.7593 81.9275 59.5793 83.0385 59.8233 83.0385C59.8853 83.0385 59.9433 82.9495 59.9513 82.8395C59.9813 82.4285 60.0413 82.1655 60.2603 81.4715C60.4993 80.7165 60.4213 80.5095 60.1313 81.1305ZM172.43 84.2505C172.296 84.4005 172.3 84.4545 172.458 84.6125C172.629 84.7825 172.643 84.7685 172.643 84.4305C172.643 84.0125 172.641 84.0115 172.43 84.2505ZM181.304 84.6405C189.13 85.1305 197.355 88.1315 202.537 92.3885C204.236 93.7835 205.632 94.3185 207.572 94.3165C209.113 94.3145 209.519 94.1895 212.393 92.8245C214.703 91.7285 216.669 91.1135 219.829 90.5005C223.375 89.8135 228.914 89.6875 232.211 90.2215C235.571 90.7645 235.953 90.8505 238.398 91.6135C240.069 92.1355 242.788 93.3545 243.089 93.7165C243.191 93.8395 243.255 94.3415 243.282 95.2395C243.326 96.7285 243.334 96.7135 242.501 96.8815C242.055 96.9725 240.715 97.5864 240.616 97.7465C240.582 97.8025 240.526 98.2985 240.494 98.8485C240.436 99.8145 240.276 101.07 239.951 103.095C239.683 104.763 238.537 108.767 238.161 109.347C238.058 109.504 238.052 109.498 238.12 109.306C239.274 106.054 239.944 98.7015 239.267 96.7145C238.173 93.4995 235.418 91.5175 230.599 90.4755C229.02 90.1345 225.562 90.0455 224.153 90.3105C219.207 91.2405 215.601 92.9764 212.572 95.8865C211.405 97.0065 211.276 97.2385 210.65 99.3315C209.927 101.749 209.703 105.045 210.086 107.623C210.183 108.28 210.234 108.847 210.2 108.882C210.165 108.917 210.136 108.847 210.136 108.727C210.136 108.607 210.008 108.098 209.852 107.597C209.25 105.669 208.947 103.297 208.939 100.453C208.93 97.3795 208.691 96.8635 207.596 97.5585C206.868 98.0205 204.822 98.0315 204.486 97.5745C204.273 97.2845 203.518 97.2425 203.11 97.4975C202.708 97.7495 202.683 97.8465 202.506 99.7905C202.212 103.026 200.573 107.693 198.837 110.238C198.658 110.5 198.512 110.74 198.512 110.77C198.512 110.8 198.412 110.945 198.289 111.091C197.729 111.757 196.616 113.175 196.464 113.415C196.372 113.561 196.179 113.733 196.037 113.798C195.894 113.863 195.777 113.993 195.777 114.086C195.777 114.179 195.662 114.317 195.521 114.391C195.38 114.466 195.033 114.746 194.751 115.013C189.954 119.559 181.839 120.991 175.825 118.353C175.413 118.172 175.037 118.024 174.989 118.024C174.418 118.024 170.647 115.353 169.316 114.006C167.987 112.661 167.825 112.424 167.972 112.037C168.109 111.677 168.114 111.68 168.713 112.611C169.2 113.368 171.758 115.973 172.014 115.973C172.103 115.973 172.217 116.043 172.267 116.129C172.451 116.442 174.323 117.516 175.986 118.262C179.665 119.913 186.094 119.472 190.079 117.296C190.486 117.074 191.06 116.763 191.353 116.606C191.646 116.448 192.018 116.203 192.18 116.061C192.342 115.918 192.68 115.648 192.932 115.46C193.847 114.778 196.347 112.187 196.347 111.923C196.347 111.879 196.501 111.668 196.689 111.454C196.877 111.24 197.031 111.017 197.031 110.96C197.031 110.902 197.146 110.684 197.288 110.475C199.443 107.3 200.689 101.442 200.218 96.6975C200.116 95.6625 199.793 94.5125 199.551 94.3205C199.512 94.2895 199.346 94.0845 199.183 93.8655C198.528 92.9865 197.001 91.5995 195.828 90.8185C194.39 89.8625 193.188 89.2125 192.142 88.8275C191.791 88.6985 191.449 88.5505 191.383 88.4985C191.317 88.4464 190.983 88.3285 190.642 88.2375C190.301 88.1465 189.791 87.9885 189.509 87.8855C188.982 87.6935 186.876 87.2455 185.464 87.0235C185.025 86.9555 183.307 86.9015 181.646 86.9035C178.534 86.9085 178.041 86.9555 175.515 87.4895C174.113 87.7855 174.26 87.9585 174.391 86.1725C174.521 84.3885 174.286 84.6175 176.088 84.5215C177.71 84.4355 178.22 84.4475 181.304 84.6405ZM57.7083 85.4415C57.6663 85.5105 57.6893 85.6225 57.7593 85.6925C57.8523 85.7855 57.8853 85.7525 57.8853 85.5685C57.8853 85.2935 57.8263 85.2515 57.7083 85.4415ZM172.073 88.6885C172.073 88.8155 171.985 88.8565 171.77 88.8305C171.6 88.8094 171.445 88.8565 171.419 88.9365C171.392 89.0145 171.426 89.0785 171.494 89.0785C171.562 89.0785 171.618 89.1815 171.618 89.3065C171.618 89.4325 171.669 89.5345 171.731 89.5345C171.794 89.5345 171.845 89.4605 171.845 89.3705C171.845 89.2805 171.902 89.1705 171.972 89.1285C172.061 89.0725 172.075 89.1875 172.019 89.5205C171.935 90.0175 172.107 90.1915 172.229 89.7345C172.34 89.3225 172.312 88.5085 172.187 88.5085C172.125 88.5085 172.073 88.5895 172.073 88.6885ZM185.407 88.8575C186.378 88.9785 187.429 89.1565 187.743 89.2535C188.056 89.3505 188.543 89.4795 188.826 89.5395C189.577 89.7005 191.86 90.5785 192.757 91.0515C194.951 92.2075 196.684 93.5625 197.962 95.1235L198.381 95.6345L198.459 97.6845C198.664 103.091 197.291 108.042 194.73 111.13C193.546 112.557 193.148 112.977 192.337 113.651C187.743 117.469 180.299 118.68 175.959 116.314C175.734 116.191 175.421 116.038 175.264 115.974C175.013 115.87 174.722 115.687 173.287 114.731C171.915 113.816 169.718 111.253 169.403 110.2C169.363 110.064 169.261 109.897 169.178 109.827C169.053 109.724 169.108 109.498 169.473 108.592C170.705 105.537 171.503 103.083 172.372 99.6775C172.539 99.0185 172.699 98.3265 172.726 98.1385C172.753 97.9505 172.896 97.2835 173.044 96.6575C173.191 96.0305 173.345 95.2615 173.386 94.9475C173.427 94.6345 173.582 93.6345 173.73 92.7255C173.878 91.8165 174.033 90.7625 174.074 90.3825L174.149 89.6915L175.533 89.3335C176.76 89.0155 178.903 88.6935 180.563 88.5785C181.537 88.5115 183.564 88.6285 185.407 88.8575ZM59.0783 92.3555C59.1223 92.9665 59.2333 94.0305 59.3233 94.7195C59.4143 95.4095 59.5403 96.3835 59.6043 96.8855C59.8753 99.0285 61.3283 104.338 62.1023 106.017C62.2213 106.277 62.3553 106.636 62.3993 106.815C62.4423 106.994 62.6243 107.445 62.8033 107.816C62.9813 108.188 63.1283 108.538 63.1283 108.595C63.1283 108.977 65.7593 113.986 66.8293 115.639C67.1123 116.077 67.3443 116.465 67.3443 116.501C67.3443 116.537 67.4983 116.761 67.6863 116.998C67.8743 117.236 68.0283 117.463 68.0283 117.503C68.0283 117.567 68.6443 118.422 69.8753 120.062C70.0813 120.337 70.3653 120.667 70.5063 120.795C70.6473 120.923 70.7633 121.077 70.7633 121.137C70.7633 121.197 70.8783 121.358 71.0193 121.495C71.1603 121.632 71.4553 121.971 71.6753 122.248C72.1973 122.909 74.8653 125.575 75.6573 126.229C75.9993 126.511 76.4353 126.888 76.6263 127.066C76.8173 127.244 77.1543 127.507 77.3743 127.649C77.5943 127.791 77.8443 127.992 77.9293 128.094C78.0153 128.197 78.1493 128.281 78.2273 128.281C78.3063 128.281 78.4313 128.354 78.5053 128.443C78.6283 128.591 80.8523 130.022 81.6163 130.444C81.7873 130.539 82.2233 130.793 82.5843 131.008C85.1513 132.535 88.3363 134.033 92.0263 135.448C92.5333 135.643 92.9893 135.802 93.0403 135.802C93.0913 135.802 93.5493 135.95 94.0563 136.131C95.1523 136.521 97.1413 137.133 97.5433 137.205C97.7003 137.232 98.2903 137.384 98.8543 137.542C101.068 138.16 105.467 139.014 107.515 139.223C108.141 139.287 109.244 139.418 109.965 139.515C111.664 139.744 116.982 139.904 120.124 139.821L122.591 139.755L122.672 140.72C122.858 142.96 122.667 147.339 122.292 149.403C121.577 153.333 120.029 157.647 118.399 160.246C118.242 160.497 118.048 160.805 117.969 160.93C117.89 161.055 117.728 161.312 117.61 161.5C116.179 163.775 113.664 166.613 111.796 168.06C111.518 168.275 111.204 168.528 111.099 168.622C108.545 170.91 103.758 172.898 98.0563 174.04C93.0933 175.034 86.3463 175.101 80.8373 174.21C76.0553 173.438 71.3973 172.194 66.9743 170.511C66.5513 170.35 65.8843 170.098 65.4923 169.952C65.1003 169.806 64.5643 169.575 64.3003 169.439C64.0363 169.303 63.7703 169.192 63.7093 169.192C63.5933 169.192 60.9283 167.946 59.8233 167.375C57.0963 165.967 55.8953 165.303 54.2023 164.267C53.7113 163.967 53.2923 163.722 53.2703 163.722C53.2053 163.722 49.7643 161.429 49.4383 161.169C49.2743 161.038 49.0173 160.843 48.8683 160.737C48.2563 160.299 46.1883 158.754 45.9773 158.575C45.8513 158.469 45.2873 158.018 44.7233 157.571C42.9933 156.202 40.8043 153.956 38.7553 151.446C37.7413 150.203 34.9793 146.047 34.9793 145.763C34.9793 145.735 34.8593 145.521 34.7133 145.287C33.4513 143.275 31.2163 137.239 30.7153 134.491C30.6243 133.99 30.4703 133.221 30.3733 132.782C29.3583 128.181 29.6843 119.943 31.0733 115.061C31.8013 112.503 33.7213 108.021 34.5303 106.993C34.6523 106.838 34.7513 106.659 34.7513 106.595C34.7513 106.531 34.8803 106.311 35.0363 106.105C35.1933 105.9 35.3723 105.613 35.4353 105.468C35.7633 104.709 38.4363 101.382 39.9513 99.8475C41.9493 97.8225 44.7733 95.7135 46.6033 94.8795C46.7603 94.8085 47.2473 94.5795 47.6863 94.3715C50.0743 93.2395 52.9943 92.3125 56.1193 91.6925C56.8083 91.5555 57.5263 91.4035 57.7143 91.3545C57.9023 91.3045 58.2683 91.2595 58.5273 91.2545L58.9983 91.2435L59.0783 92.3555ZM230.313 92.2065C234.031 93.0795 236.433 94.5065 237.303 96.3615L237.736 97.2835L237.687 100.388C237.624 104.354 237.029 107.685 236.01 109.785C235.882 110.048 235.777 110.311 235.777 110.368C235.777 110.499 234.83 112.315 234.426 112.961C231.19 118.124 225.202 120.303 220.279 118.108C219.123 117.593 218.83 117.449 218.329 117.145C217.26 116.497 216.108 115.585 215.482 114.89C215.313 114.702 215.049 114.413 214.895 114.248C214.741 114.082 214.385 113.595 214.104 113.165C211.371 108.978 210.876 104.155 212.646 98.9445C213.201 97.3115 215.076 95.6685 218.227 94.0535C220.187 93.0495 222.823 92.2384 224.78 92.0375C226.114 91.9005 229.44 92.0025 230.313 92.2065ZM31.9773 105.223C31.8613 105.377 31.7933 105.531 31.8253 105.563C31.8583 105.596 31.9723 105.488 32.0803 105.324C32.3333 104.937 32.2513 104.856 31.9773 105.223ZM30.5703 108.907C30.4133 109.323 30.5593 109.366 30.7453 108.959C30.9013 108.616 30.9063 108.565 30.7883 108.565C30.7393 108.565 30.6413 108.719 30.5703 108.907ZM29.4493 111.192C29.3403 111.367 29.4893 111.48 29.6353 111.334C29.7173 111.252 29.7193 111.189 29.6413 111.141C29.5773 111.101 29.4913 111.124 29.4493 111.192ZM216.087 117.78C216.508 118.102 216.884 118.366 216.921 118.366C216.959 118.366 217.204 118.507 217.466 118.679C220.605 120.743 225.317 121.311 228.535 120.015C229.411 119.662 229.471 119.72 228.625 120.103C224.265 122.078 219.265 121.107 215.622 117.576C215.197 117.165 214.955 116.91 215.085 117.01C215.215 117.111 215.666 117.457 216.087 117.78ZM159.994 120.813C159.994 120.915 160.06 120.954 160.165 120.914C160.259 120.878 160.335 120.803 160.335 120.747C160.335 120.691 160.259 120.645 160.165 120.645C160.071 120.645 159.994 120.721 159.994 120.813ZM207.287 138.41C208.549 138.709 209.691 139.226 210.681 139.948C211.255 140.366 211.278 140.778 210.764 141.452C210.486 141.817 209.892 142.259 210.072 141.967C210.187 141.781 209.958 141.815 209.798 142.008C209.723 142.099 209.691 142.222 209.727 142.281C209.881 142.531 207.722 143.441 206.318 143.718C202.319 144.508 189.638 144.232 186.386 143.285C186.261 143.248 188.039 142.753 188.296 142.753C188.501 142.753 190.651 142.051 191.447 141.724C196.989 139.446 199.444 138.715 203.298 138.195C204.375 138.05 206.174 138.147 207.287 138.41ZM209.334 145.175C209.286 149.701 205.136 152.01 198.74 151.071C196.772 150.782 194.112 150.002 192.521 149.247C190.974 148.513 190.437 148.239 189.996 147.959C189.731 147.791 189.485 147.654 189.449 147.654C189.413 147.654 188.924 147.346 188.36 146.97C187.797 146.594 187.313 146.286 187.285 146.286C187.193 146.286 185.628 145.001 185.67 144.96C185.692 144.938 186.475 145.042 187.41 145.192C192.542 146.013 200.669 146.295 204.495 145.784C206.696 145.49 207.911 145.267 208.547 145.041C209.362 144.752 209.339 144.748 209.334 145.175ZM189.452 173.984C189.221 174.029 189.452 174.08 190.171 174.141C190.754 174.191 191.255 174.208 191.285 174.178C191.38 174.083 189.803 173.916 189.452 173.984ZM121.019 196.494C121.019 196.63 133.365 220.588 133.435 220.588C133.506 220.588 145.547 196.851 145.614 196.578C145.643 196.461 145.357 196.429 144.303 196.429H142.954L138.226 205.772C135.625 210.91 133.467 215.116 133.43 215.117C133.393 215.117 131.187 210.926 128.527 205.802L123.691 196.486L122.355 196.454C121.62 196.436 121.019 196.454 121.019 196.494ZM59.9373 223.765C59.9373 238.737 59.9693 251.147 60.0083 251.343L60.0793 251.699H70.8913H81.7033V250.446V249.192H75.1503H68.5983V247.426V245.659H75.1503H81.7033V244.349V243.038H75.1503H68.5983V235.802V228.565H75.1503H81.7033V227.312V226.058H73.8683H66.0333L66.0693 234.543L66.1053 243.027L64.3603 243.061C63.4003 243.08 62.6073 243.095 62.5973 243.095C62.5883 243.095 62.5423 238.467 62.4963 232.81L62.4123 222.526H72.0723H81.7313L81.6603 222.169C81.6213 221.974 81.5893 221.409 81.5893 220.916V220.018H75.0933H68.5983V212.611V205.204H75.0933H81.5893V203.893V202.583H76.1943C73.2273 202.583 69.7143 202.616 68.3883 202.658L65.9773 202.733V211.376V220.018H64.2103H62.4443V209.604V199.19L62.7003 199.122C62.8413 199.084 67.1493 199.052 72.2733 199.051L81.5893 199.05V197.796V196.543H70.7633H59.9373V223.765ZM90.8203 224.064V251.585H102.957H115.093V250.389V249.192H107.23H99.3673V247.369V245.545H107.173H114.979V244.349V243.152H107.173H99.3673V219.847V196.543H98.0943H96.8223L96.8973 219.847L96.9733 243.152H95.1503H93.3273V219.847V196.543H92.0733H90.8203V224.064ZM166.023 196.713C161.488 197.571 157.339 201.304 156.015 205.716C155.424 207.688 155.437 207.173 155.436 230.189L155.435 251.585H156.745H158.055L158.084 241.972L158.113 232.358L159.908 233.382L161.703 234.406V242.996V251.585H163.013H164.323L164.352 243.744L164.381 235.902L168.512 238.284L172.643 240.666V246.126V251.585H173.954H175.264L175.262 245.346L175.26 239.107L172.043 237.283C170.274 236.281 167.826 234.889 166.604 234.191L164.381 232.921L164.29 230.901C164.24 229.79 164.224 228.856 164.254 228.825C164.285 228.795 165.249 229.307 166.397 229.964C171.76 233.033 175.15 234.947 175.22 234.947C175.409 234.947 175.172 208.479 174.977 207.768C173.813 203.542 169.139 201.469 165.293 203.474C163.715 204.296 162.333 206.044 161.884 207.784C161.725 208.401 161.703 209.85 161.703 219.892C161.703 226.167 161.665 231.298 161.618 231.296C161.571 231.293 160.763 230.842 159.823 230.293L158.113 229.295V218.645C158.113 208.529 158.124 207.953 158.331 207.143C161.044 196.542 175.397 196.417 178.499 206.967C178.732 207.762 178.734 207.924 178.767 229.677L178.801 251.585H180.113H181.424L181.388 229.62C181.347 205.095 181.414 207.159 180.588 204.972C178.383 199.129 172.096 195.564 166.023 196.713ZM201.247 196.622C189.323 197.899 183.851 211.386 191.636 220.312C193.208 222.114 195.181 223.518 199.481 225.894C207.957 230.577 209.773 232.563 209.239 236.571C208.313 243.524 200.946 244.817 194.965 239.077L193.842 237.998L193.414 238.371C193.178 238.577 192.729 238.974 192.415 239.253L191.846 239.762L192.961 240.825C201.144 248.619 211.845 245.688 211.845 235.654C211.845 230.928 209.647 228.534 200.734 223.552C195.679 220.726 194.104 219.52 192.625 217.34C187.811 210.245 192.006 200.846 200.664 199.331C205.26 198.527 210.112 200.379 213.221 204.125C213.624 204.61 214.063 205.139 214.196 205.3L214.438 205.593L215.381 204.971C215.899 204.629 216.379 204.313 216.448 204.268C216.753 204.071 215.05 201.97 213.563 200.71C209.875 197.586 205.574 196.158 201.247 196.622ZM30.8983 196.777C27.7433 197.074 24.1653 198.605 22.5743 200.336L22.3063 200.628L22.3483 219.469L22.3913 238.309L22.8343 239.092C24.0843 241.304 25.9563 243.183 27.8853 244.164L28.3703 244.411V247.653V250.895L28.9683 251.067C33.7233 252.432 39.3023 251.726 43.6033 249.214C54.0063 243.138 56.0743 228.629 47.7803 219.897L47.1783 219.262L47.5143 218.463C48.8763 215.221 48.9903 210.841 47.8053 207.312C45.4463 200.29 38.6353 196.046 30.8983 196.777ZM34.9003 199.333C43.8843 200.688 48.8343 210.793 44.4743 218.877L43.9523 219.844L44.3943 220.182C50.9273 225.172 52.2503 235.584 47.2263 242.48C43.6963 247.325 37.1863 250.028 31.4183 249.043L30.8773 248.95V247.152V245.353L31.6463 245.502C38.1413 246.759 44.8533 242.496 46.4933 236.072C48.0433 230 44.7643 223.38 39.0633 221.073C38.1793 220.715 38.1713 220.704 38.6043 220.449C40.2883 219.454 41.9693 216.735 42.4533 214.225C43.9003 206.725 36.5343 200.596 29.3103 203.29L28.3703 203.641L28.3423 222.559L28.3133 241.477L27.5723 240.91C26.7613 240.289 25.9383 239.342 25.3603 238.364L24.9893 237.734L24.9113 219.774L24.8333 201.814L25.5473 201.35C28.3323 199.541 31.6023 198.836 34.9003 199.333ZM201.817 202.814C195.967 203.465 192.542 209.3 195.031 214.377C195.957 216.268 197.372 217.499 201.043 219.608C206.081 222.503 206.568 222.792 208.006 223.744C210.422 225.342 211.855 226.631 213.201 228.419C217.241 233.781 215.743 242.766 210.18 246.541C204.209 250.594 196.442 249.31 190.28 243.251L189.143 242.133L188.187 242.948C187.036 243.928 187.015 243.648 188.341 245.002C196.221 253.044 207.328 253.702 214.083 246.529C217.045 243.382 218.533 238.526 217.996 233.751C217.345 227.952 213.903 223.91 205.578 219.166C198.003 214.85 196.806 213.73 196.808 210.959C196.811 205.375 203.815 203.425 208.165 207.796C209.406 209.043 209.12 208.986 210.303 208.223C211.418 207.503 211.386 207.574 210.921 206.873C209.092 204.111 205.311 202.426 201.817 202.814ZM144.922 205.574C144.394 206.592 141.611 212.054 138.737 217.711C135.864 223.367 133.481 227.996 133.443 227.996C133.405 227.996 130.64 222.675 127.3 216.172C123.959 209.669 121.179 204.3 121.123 204.241C121.061 204.176 121.019 213.676 121.019 227.859V251.585H122.272H123.526L123.555 233.115L123.583 214.644L125.309 217.93L127.035 221.215L127.104 225.659C127.141 228.104 127.172 234.937 127.173 240.845V251.585H128.369H129.565L129.594 238.907L129.623 226.229L131.504 229.79C132.538 231.748 133.413 233.351 133.449 233.351C133.485 233.351 134.34 231.672 135.348 229.62L137.183 225.887L137.204 232.896C137.216 236.751 137.237 239.981 137.251 240.075C137.265 240.169 137.285 242.798 137.296 245.916L137.316 251.585H138.674H140.033L139.981 236.286L139.929 220.987L141.632 217.568L143.335 214.149L143.345 232.867L143.355 251.585H144.666H145.977V227.654C145.977 214.491 145.955 203.722 145.929 203.722C145.903 203.722 145.45 204.555 144.922 205.574ZM34.8083 205.434C39.6793 206.921 41.6903 212.859 38.6613 216.814C36.9393 219.062 33.9643 220.236 31.4553 219.657L30.8773 219.523V212.427V205.332L31.4183 205.259C31.7163 205.218 32.0113 205.165 32.0733 205.139C32.3503 205.025 34.0813 205.212 34.8083 205.434ZM170.317 205.77C171.517 206.361 172.295 207.447 172.522 208.85C172.64 209.583 172.705 230.389 172.589 230.389C172.559 230.389 171.88 230.015 171.079 229.558C170.278 229.101 168.406 228.037 166.918 227.193L164.213 225.659L164.212 217.625C164.212 213.067 164.258 209.304 164.32 208.928C164.799 206.005 167.696 204.48 170.317 205.77ZM36.3753 222.819C42.4303 224.072 45.9753 230.797 43.6683 236.657C41.7843 241.445 36.1813 244.222 31.3043 242.786L30.8763 242.66L30.9053 232.856L30.9343 223.053L31.5223 222.904C33.0493 222.517 34.7703 222.487 36.3753 222.819ZM96.9743 247.369V249.192H95.1503H93.3273V247.369V245.545H95.1503H96.9743V247.369ZM66.0903 247.426V249.192H64.3243H62.5583V247.426V245.659H64.3243H66.0903V247.426ZM100.734 276.714V285.887H101.76H102.786V276.714V267.54H101.76H100.734V276.714ZM158.17 271.604V275.668L157.86 275.269C155.965 272.839 151.216 272.723 148.941 275.051C146.153 277.904 146.759 283.565 150.043 285.342C152.659 286.758 156.538 286.091 157.933 283.985L158.284 283.455V283.971C158.284 284.254 158.317 284.802 158.357 285.187L158.431 285.887H159.402H160.373L160.297 280.332C160.256 277.276 160.222 273.148 160.222 271.158V267.54H159.196H158.17V271.604ZM95.4653 268.516C94.8503 268.849 94.6133 269.851 94.9953 270.498C95.7753 271.819 97.9033 271.118 97.7363 269.595C97.6233 268.567 96.4233 267.996 95.4653 268.516ZM163.955 268.516C163.34 268.849 163.103 269.851 163.485 270.498C164.265 271.819 166.393 271.118 166.226 269.595C166.113 268.567 164.913 267.996 163.955 268.516ZM125.9 271.215C125.842 273.312 125.599 273.58 123.752 273.58H122.843V274.377V275.175H124.318H125.793L125.829 279.477C125.869 284.286 125.878 284.347 126.731 285.2C127.539 286.008 129.558 286.322 131.646 285.966L132.187 285.873V285.013C132.187 284.24 132.167 284.162 131.988 284.233C131.461 284.441 129.16 284.44 128.719 284.231C127.892 283.838 127.862 283.664 127.859 279.135L127.857 275.175H129.969C132.369 275.175 132.262 275.223 132.135 274.205L132.057 273.58H129.957H127.857V271.642V269.705H126.899H125.942L125.9 271.215ZM114.649 273.577C112.709 274.104 111.902 275.031 111.902 276.735C111.902 278.795 113.086 279.8 116.457 280.602C118.952 281.196 119.711 281.796 119.485 282.997C119.099 285.056 115.189 285.027 113.19 282.951C112.537 282.273 112.587 282.272 111.76 282.963C111.076 283.536 111.079 283.568 111.902 284.33C115.933 288.062 123.453 285.541 121.317 281.174C120.783 280.083 119.817 279.557 117.21 278.938C114.729 278.348 113.791 277.616 114.011 276.442C114.352 274.627 117.322 274.403 119.578 276.021L120.441 276.64L121.018 275.975L121.595 275.309L121.107 274.919C119.402 273.555 116.757 273.005 114.649 273.577ZM173.498 273.512C169.768 274.238 167.62 277.666 168.53 281.443C170.011 287.594 179.854 287.731 181.416 281.622C182.707 276.573 178.726 272.495 173.498 273.512ZM70.5983 273.58C69.7303 273.736 68.4523 274.42 67.9383 275.004C67.3923 275.624 67.3443 275.586 67.3443 274.529V273.694H66.4323H65.5213V279.847V286.001H66.5463H67.5723V282.484C67.5723 276.571 68.2793 275.213 71.3333 275.254C74.0833 275.292 74.5143 276.264 74.5203 282.44L74.5243 286.001H75.5493H76.5753L76.5743 282.269C76.5723 276.704 76.3973 275.765 75.1463 274.621C74.1883 273.745 72.2073 273.292 70.5983 273.58ZM83.5263 273.637C77.4203 275.021 77.3073 284.775 83.3823 286.062C85.9473 286.605 88.4083 285.838 89.6353 284.113L90.0223 283.568V284.084C90.0223 284.368 90.0553 284.916 90.0953 285.301L90.1693 286.001H91.1213H92.0733V283.456C92.0733 282.056 92.0393 279.287 91.9983 277.302L91.9233 273.694H91.0443H90.1653L90.0933 274.05C90.0543 274.246 90.0223 274.771 90.0223 275.218L90.0213 276.03L89.8113 275.688C88.7753 274 85.9663 273.083 83.5263 273.637ZM95.2643 279.734V285.887H96.2903H97.3163V279.734V273.58H96.2903H95.2643V279.734ZM134.155 277.825C134.212 282.374 134.221 282.451 134.852 283.695C136.229 286.413 141.27 286.958 143.588 284.64C144.835 283.393 144.947 282.818 144.949 277.654L144.951 273.58H143.925H142.9L142.896 277.597C142.892 281.945 142.854 282.257 142.224 283.173C140.937 285.041 137.864 284.871 136.685 282.867C136.264 282.152 136.178 281.196 136.177 277.255L136.176 273.58H135.139H134.102L134.155 277.825ZM163.754 279.734V285.887H164.78H165.806V279.734V273.58H164.78H163.754V279.734ZM154.52 275.182C159.451 275.982 159.453 283.432 154.522 284.291C151.355 284.842 148.876 282.24 149.392 278.907C149.747 276.611 151.155 275.35 153.669 275.075C153.731 275.068 154.114 275.117 154.52 275.182ZM176.404 275.315C178.597 275.972 179.83 278.071 179.478 280.548C178.783 285.45 171.616 285.731 170.604 280.896C169.827 277.183 172.87 274.255 176.404 275.315ZM87.1333 275.536C89.1173 276.27 90.2613 278.387 89.8993 280.654C89.0913 285.716 81.9953 285.773 81.1273 280.724C80.4923 277.033 83.6983 274.264 87.1333 275.536Z" fill="black"/>
</svg>
