<svg xmlns="http://www.w3.org/2000/svg" width="32" height="32" fill="none" style=""><rect id="backgroundrect" width="100%" height="100%" x="0" y="0" fill="none" stroke="none" class="" style=""/>


<g class="currentLayer" style=""><title>Layer 1</title><path fill="black" fill-opacity="1" stroke="none" stroke-opacity="1" stroke-width="1" stroke-dasharray="none" stroke-linejoin="miter" stroke-linecap="butt" stroke-dashoffset="" fill-rule="nonzero" opacity="1" marker-start="" marker-mid="" marker-end="" d="M-0.11175273158120459,16.12846479824246 C-0.11175273158120459,7.307444037492999 6.9909341982288735,0.16241722128593092 15.759683494290705,0.16241722128593092 C24.528432790352518,0.16241722128593092 31.631119720162598,7.307444037492999 31.631119720162598,16.12846479824246 C31.631119720162598,24.949485558991924 24.528432790352518,32.09451237519899 15.759683494290705,32.09451237519899 C6.9909341982288735,32.09451237519899 -0.11175273158120459,24.949485558991924 -0.11175273158120459,16.12846479824246 z" id="svg_4" class=""/><path d="M23.412918683886527,21.265550196170807 C23.01291868388653,22.465550196170806 21.51291868388653,23.465550196170806 20.212918683886528,23.665550196170805 C19.912918683886527,23.765550196170807 19.612918683886527,23.765550196170807 19.212918683886528,23.765550196170807 C18.412918683886527,23.765550196170807 17.212918683886528,23.565550196170808 15.112918683886528,22.665550196170805 C12.712918683886528,21.665550196170805 10.31291868388653,19.565550196170808 8.412918683886527,16.86555019617081 V16.765550196170807 C7.812918683886528,15.865550196170807 6.712918683886528,14.165550196170807 6.712918683886528,12.365550196170807 C6.712918683886528,10.165550196170807 7.812918683886528,9.065550196170808 8.212918683886528,8.565550196170808 C8.712918683886528,8.065550196170808 9.412918683886527,7.765550196170807 10.212918683886528,7.765550196170807 C10.412918683886527,7.765550196170807 10.512918683886529,7.765550196170807 10.712918683886528,7.765550196170807 C11.412918683886527,7.765550196170807 11.912918683886527,7.965550196170807 12.412918683886527,8.965550196170806 L12.812918683886528,9.765550196170807 C13.112918683886528,10.565550196170808 13.512918683886529,11.465550196170806 13.612918683886528,11.565550196170808 C13.912918683886527,12.165550196170807 13.912918683886527,12.665550196170807 13.612918683886528,13.165550196170807 C13.512918683886529,13.465550196170806 13.31291868388653,13.665550196170807 13.112918683886528,13.865550196170807 C13.012918683886529,14.065550196170808 12.912918683886527,14.165550196170807 12.812918683886528,14.165550196170807 C12.712918683886528,14.265550196170807 12.712918683886528,14.265550196170807 12.612918683886528,14.365550196170807 C12.912918683886527,14.865550196170807 13.512918683886529,15.765550196170807 14.31291868388653,16.465550196170806 C15.512918683886529,17.565550196170808 16.412918683886527,17.86555019617081 16.912918683886527,18.065550196170808 C17.112918683886527,17.86555019617081 17.31291868388653,17.465550196170806 17.612918683886527,17.165550196170805 L17.712918683886528,16.965550196170806 C18.212918683886528,16.265550196170807 19.01291868388653,16.065550196170808 19.81291868388653,16.36555019617081 C20.212918683886528,16.565550196170808 22.412918683886527,17.565550196170808 22.412918683886527,17.565550196170808 L22.612918683886527,17.665550196170805 C22.912918683886527,17.86555019617081 23.31291868388653,17.965550196170806 23.51291868388653,18.36555019617081 C23.912918683886527,19.265550196170807 23.612918683886527,20.565550196170808 23.412918683886527,21.265550196170807 z" fill="white" id="svg_2" class="" transform="rotate(-80.51904296875 15.21150207519531,15.765548706054686) "/></g></svg>