<svg width="300" height="300" viewBox="0 0 300 300" fill="none" xmlns="http://www.w3.org/2000/svg">
<path d="M32.8566 232.057C32.3261 230.998 31.9766 230.1 31.808 229.363C31.6307 228.631 31.5819 228.012 31.6617 227.506C31.7416 226.999 31.9245 226.577 32.2106 226.239C32.4818 225.899 32.8024 225.603 33.1723 225.35C33.6744 225.007 34.1588 224.799 34.6256 224.725C35.0836 224.658 35.5327 224.719 35.973 224.91C36.4133 225.1 36.8552 225.424 37.2987 225.884C37.7449 226.328 38.209 226.902 38.6909 227.606C39.1668 228.302 39.5252 228.948 39.7661 229.546C40.0158 230.138 40.1422 230.691 40.1454 231.205C40.1337 231.717 39.9899 232.196 39.714 232.643C39.4381 233.09 39.0139 233.509 38.4414 233.9L36.746 232.074C37.2128 231.755 37.6354 231.447 38.0137 231.15C38.3831 230.859 38.6636 230.551 38.8551 230.226C39.0406 229.893 39.1132 229.527 39.073 229.128C39.0328 228.729 38.8349 228.27 38.4795 227.751C38.1 227.196 37.7409 226.738 37.4022 226.375C37.0634 226.012 36.7274 225.757 36.3942 225.61C36.0609 225.463 35.72 225.418 35.3715 225.475C35.0141 225.539 34.624 225.715 34.2012 226.003C33.9017 226.208 33.7005 226.462 33.5975 226.765C33.4858 227.073 33.4604 227.433 33.5215 227.843C33.5766 228.245 33.7019 228.702 33.8974 229.214C34.0868 229.718 34.3317 230.274 34.6319 230.883C35.0021 231.65 35.2719 232.319 35.4415 232.887C35.5962 233.453 35.6554 233.956 35.6191 234.394C35.5681 234.829 35.4275 235.209 35.1976 235.534C34.9588 235.865 34.628 236.175 34.2052 236.464C33.7824 236.753 33.355 236.902 32.923 236.913C32.4822 236.93 32.0535 236.842 31.6368 236.649C31.2113 236.461 30.8056 236.189 30.4196 235.833C30.0335 235.477 29.6839 235.07 29.3707 234.612C28.9309 233.969 28.5922 233.361 28.3546 232.787C28.1109 232.204 27.9861 231.663 27.9802 231.163C27.9594 230.661 28.0663 230.194 28.301 229.762C28.5268 229.337 28.8952 228.95 29.406 228.601L30.9221 230.278C30.4816 230.579 30.0973 230.867 29.7691 231.143C29.426 231.416 29.1824 231.711 29.0382 232.03C28.8879 232.339 28.8492 232.688 28.9218 233.078C28.9945 233.467 29.2146 233.931 29.5821 234.468C29.811 234.802 30.0677 235.111 30.3522 235.395C30.6279 235.684 30.9192 235.912 31.226 236.077C31.5328 236.242 31.8462 236.331 32.166 236.345C32.4858 236.359 32.8043 236.258 33.1214 236.042C33.3151 235.909 33.47 235.739 33.5859 235.53C33.693 235.328 33.7417 235.069 33.7321 234.752C33.7224 234.436 33.6513 234.058 33.5189 233.619C33.3776 233.186 33.1568 232.665 32.8566 232.057Z" fill="white"/>
<path d="M20.8327 220.227L20.6022 220.338L15.6055 210.012L15.836 209.9L17.8361 214.034L27.6477 209.295L28.6373 211.34L18.8327 216.093L20.8327 220.227Z" fill="white"/>
<path d="M11.235 199.461L10.5802 197.285L16.9393 195.374C17.7974 195.117 18.4951 194.862 19.0324 194.612C19.5594 194.364 19.9521 194.096 20.2104 193.807C20.4686 193.518 20.6099 193.191 20.6341 192.828C20.6583 192.464 20.5966 192.037 20.449 191.547C20.2768 190.975 19.9791 190.485 19.5557 190.078C19.1221 189.673 18.6047 189.361 18.0037 189.14C17.4027 188.92 16.7364 188.797 16.0047 188.772C15.27 188.737 14.5103 188.803 13.7257 188.972L8.54642 190.528L7.89156 188.353L18.5719 185.144L19.2268 187.32L15.4113 188.466C16.0121 188.464 16.5992 188.527 17.1726 188.655C17.7428 188.773 18.2708 188.954 18.7563 189.198C19.2419 189.442 19.6632 189.75 20.0201 190.122C20.3669 190.497 20.6171 190.939 20.7708 191.45C21.0137 192.257 21.1375 192.983 21.1421 193.627C21.157 194.269 21.0389 194.839 20.788 195.337C20.5371 195.836 20.1497 196.27 19.6258 196.639C19.0989 196.998 18.4217 197.301 17.5942 197.55L11.235 199.461Z" fill="white"/>
<path d="M4.93503 175.734L4.65115 173.48L7.22291 173.156C7.10383 173.15 6.8835 173.108 6.56192 173.03C6.22976 172.953 5.88297 172.803 5.52157 172.58C5.15883 172.346 4.82843 172.028 4.53037 171.624C4.22172 171.222 4.02608 170.693 3.94345 170.037C3.83949 169.212 3.86391 168.424 4.0167 167.673C4.16815 166.913 4.45265 166.226 4.87018 165.615C5.27713 165.005 5.82573 164.495 6.516 164.086C7.19569 163.678 8.01178 163.414 8.96429 163.294C9.89563 163.177 10.7305 163.233 11.469 163.463C12.2062 163.682 12.8416 164.032 13.3752 164.514C13.8983 164.996 14.3215 165.583 14.645 166.273C14.9579 166.965 15.1663 167.723 15.2703 168.549L16 174.343L4.93503 175.734ZM15.08 168.831C15.0054 168.238 14.811 167.72 14.4971 167.275C14.1818 166.82 13.7699 166.453 13.2616 166.173C12.752 165.882 12.1577 165.688 11.4789 165.591C10.7988 165.483 10.0565 165.479 9.25217 165.58C7.44241 165.808 6.1026 166.309 5.23273 167.085C4.36152 167.851 4.00056 168.826 4.14983 170.011C4.21647 170.54 4.38823 171.008 4.66513 171.414C4.94069 171.809 5.29888 172.135 5.7397 172.391C6.17919 172.637 6.69005 172.81 7.2723 172.908C7.84262 172.998 8.45587 173.001 9.11204 172.919L15.4938 172.117L15.08 168.831Z" fill="white"/>
<path d="M2.85646 151.86L2.85154 149.588L14.0035 149.564L14.0084 151.836L2.85646 151.86Z" fill="white"/>
<path d="M8.51041 140.534C7.51559 140.408 6.68236 140.11 6.01073 139.639C5.32851 139.166 4.78863 138.587 4.39109 137.903C3.99356 137.218 3.73369 136.465 3.61149 135.644C3.47871 134.821 3.46435 133.997 3.5684 133.171C3.67246 132.346 3.89092 131.551 4.22381 130.786C4.54611 130.02 4.98473 129.355 5.53968 128.791C6.09464 128.226 6.76124 127.8 7.53951 127.51C8.3072 127.22 9.18845 127.137 10.1833 127.263C11.1993 127.39 12.0484 127.691 12.7306 128.164C13.4022 128.635 13.9315 129.212 14.3185 129.895C14.7054 130.578 14.9653 131.331 15.0981 132.154C15.2203 132.976 15.2293 133.8 15.1253 134.625C15.0226 135.44 14.8101 136.23 14.4878 136.996C14.1549 137.761 13.7162 138.426 13.1719 138.991C12.6275 139.557 11.9708 139.991 11.2018 140.292C10.4235 140.581 9.5264 140.661 8.51041 140.534ZM3.8224 133.203C3.7477 133.796 3.77224 134.369 3.89604 134.922C4.02117 135.464 4.27601 135.959 4.66057 136.405C5.03587 136.839 5.56339 137.217 6.24311 137.539C6.91359 137.849 7.76741 138.07 8.80457 138.2C9.84172 138.331 10.7288 138.329 11.4659 138.196C12.1938 138.051 12.7987 137.816 13.2806 137.489C13.7639 137.152 14.1334 136.737 14.3893 136.242C14.6465 135.737 14.8125 135.188 14.8872 134.595C14.9619 134.003 14.9367 133.435 14.8115 132.892C14.6877 132.339 14.4336 131.84 14.049 131.393C13.6644 130.947 13.1369 130.569 12.4664 130.259C11.7854 129.948 10.9263 129.727 9.88912 129.596C8.85197 129.466 7.97013 129.468 7.24363 129.602C6.50654 129.735 5.90165 129.971 5.42896 130.309C4.94569 130.646 4.57545 131.067 4.31826 131.572C4.06239 132.067 3.89711 132.61 3.8224 133.203Z" fill="white"/>
<path d="M12.5518 97.3466L15.4636 98.5536C15.3633 98.4889 15.1641 98.3429 14.8659 98.1153C14.5579 97.8837 14.2686 97.579 13.9981 97.2013C13.7317 96.8138 13.5375 96.3638 13.4153 95.8513C13.2932 95.3388 13.3631 94.7673 13.6249 94.1369C13.7845 93.7527 13.9846 93.368 14.2254 92.9829C14.4662 92.5977 14.7469 92.2695 15.0675 91.9982C15.388 91.727 15.746 91.5463 16.1415 91.4562C16.541 91.3562 16.9822 91.4063 17.4651 91.6065C17.8001 91.7454 18.0818 91.943 18.3103 92.1994C18.5388 92.4557 18.7103 92.752 18.8248 93.0881C18.9335 93.4103 18.9845 93.7605 18.9775 94.1387C18.9649 94.5029 18.8956 94.8783 18.7697 95.2649C19.0014 94.8183 19.2614 94.4007 19.5498 94.0122C19.8382 93.6237 20.1604 93.3069 20.5162 93.0618C20.8721 92.8167 21.2683 92.6692 21.7049 92.6192C22.1357 92.5553 22.6122 92.6316 23.1344 92.8481C23.8636 93.1503 24.3618 93.5359 24.6292 94.0046C24.8907 94.4594 25.0099 94.965 24.9869 95.5212C24.9678 96.0676 24.8504 96.6424 24.6345 97.2457C24.4087 97.8449 24.1752 98.4352 23.9338 99.0164L21.9824 103.715L11.6804 99.4448L12.5518 97.3466ZM17.252 99.2949L22.6025 101.513L23.4309 99.518C23.6641 98.9565 23.849 98.4558 23.9855 98.0159C24.1261 97.5661 24.1699 97.1686 24.1169 96.8233C24.0582 96.4641 23.885 96.1441 23.5974 95.8632C23.3041 95.5684 22.847 95.2923 22.2262 95.035C21.6941 94.8144 21.2221 94.6996 20.8101 94.6905C20.3981 94.6813 20.0313 94.7718 19.7098 94.9618C19.3925 95.142 19.1105 95.4177 18.8639 95.7889C18.6116 96.1462 18.3791 96.581 18.1663 97.0932L17.252 99.2949ZM13.8062 94.3679C13.5648 94.9491 13.5368 95.5033 13.7221 96.0304C13.9017 96.5436 14.1858 97.0136 14.5746 97.4403C14.9575 97.8531 15.3847 98.2149 15.8562 98.5258C16.3219 98.8228 16.7133 99.0485 17.0303 99.203L18.184 96.4251C18.278 96.1985 18.3266 95.9703 18.3296 95.7407C18.3367 95.5011 18.2793 95.2637 18.1576 95.0285C18.0399 94.7834 17.8418 94.5512 17.5633 94.3318C17.2889 94.1026 16.9152 93.89 16.4422 93.6939C16.0284 93.5224 15.677 93.4229 15.3881 93.3955C15.0934 93.3542 14.8435 93.3718 14.6384 93.4485C14.4374 93.5153 14.2734 93.6321 14.1464 93.7988C14.0137 93.9516 13.9003 94.1413 13.8062 94.3679Z" fill="white"/>
<path d="M20.7353 79.5639L25.2084 72.0042L25.4288 72.1344L22.1127 77.7388L26.3835 80.2611L28.9744 75.8823L29.1949 76.0124L26.6039 80.3913L31.2604 83.1415L34.5765 77.5371L34.8107 77.6754L30.3376 85.2352L20.7353 79.5639Z" fill="white"/>
<path d="M45.3034 63.2048L39.895 70.0857L31.121 63.2021L32.525 61.4158L32.5376 61.4257L32.5475 61.4131L41.1074 68.1289L45.102 63.0468L45.3034 63.2048Z" fill="white"/>
<path d="M43.6735 48.0469L45.3463 46.4859L51.9 47.5919L51.2185 41.0059L52.903 39.434L60.5191 47.5802L58.858 49.1303L51.526 41.2879L52.206 47.9191L45.6187 46.8006L52.9507 54.643L51.2897 56.1931L43.6735 48.0469Z" fill="white"/>
<path d="M65.9901 29.2633L67.9999 27.9225L77.7905 34.7968L75.8073 36.1198L71.796 33.3143L68.0027 35.8449L69.2322 40.5063L68.9926 40.6661L65.9901 29.2633ZM67.9314 35.5655L71.565 33.1414L66.3188 29.4671L67.9314 35.5655Z" fill="white"/>
<path d="M87.6021 21.3603C88.7322 21.0064 89.675 20.8052 90.4303 20.757C91.181 20.699 91.8003 20.75 92.2881 20.9098C92.7758 21.0696 93.1637 21.3177 93.4515 21.6539C93.7444 21.9759 93.9863 22.3396 94.177 22.745C94.4358 23.2951 94.5643 23.8063 94.5625 24.2785C94.5561 24.7411 94.424 25.1744 94.166 25.5783C93.9081 25.9822 93.517 26.3662 92.9928 26.7302C92.4827 27.0993 91.8415 27.4653 91.0691 27.828C90.3063 28.1861 89.6106 28.4362 88.9819 28.5783C88.3578 28.7299 87.7913 28.7661 87.2825 28.6869C86.7788 28.5934 86.3283 28.3749 85.9308 28.0312C85.5334 27.6876 85.1871 27.2021 84.892 26.5747L86.9656 25.1944C87.2063 25.7059 87.4433 26.1721 87.6766 26.5928C87.9053 27.0039 88.1648 27.3299 88.4549 27.5707C88.7547 27.807 89.1048 27.9373 89.5051 27.9614C89.9055 27.9855 90.3905 27.8638 90.9601 27.5963C91.5684 27.3107 92.0787 27.0298 92.4911 26.7537C92.9034 26.4776 93.2087 26.1869 93.407 25.8817C93.6053 25.5765 93.7039 25.2474 93.7028 24.8943C93.6972 24.5316 93.5855 24.1186 93.3675 23.6554C93.2131 23.3272 92.9946 23.0881 92.7118 22.938C92.4245 22.7784 92.0733 22.6958 91.6581 22.6904C91.2527 22.6805 90.7813 22.7309 90.2441 22.8418C89.7165 22.9482 89.1281 23.1007 88.479 23.2995C87.6617 23.5418 86.9586 23.7011 86.3697 23.7773C85.7859 23.8393 85.2805 23.8174 84.8535 23.7115C84.4316 23.5915 84.0784 23.392 83.794 23.1131C83.505 22.8246 83.2515 22.4487 83.0336 21.9854C82.8156 21.5221 82.7356 21.0765 82.7937 20.6486C82.8472 20.211 83.0026 19.8022 83.2599 19.4221C83.5127 19.0324 83.8459 18.6756 84.2594 18.3518C84.6729 18.028 85.1307 17.7482 85.6327 17.5125C86.3376 17.1815 86.9924 16.9447 87.5972 16.8021C88.2117 16.655 88.7663 16.6185 89.2609 16.6926C89.7606 16.7525 90.2049 16.9328 90.5939 17.2333C90.9782 17.5242 91.3021 17.9495 91.5655 18.5093L89.6673 19.7365C89.4403 19.2539 89.2166 18.8286 88.9964 18.4607C88.7812 18.0786 88.528 17.7909 88.2368 17.5977C87.9551 17.4 87.6161 17.3058 87.2197 17.3152C86.8234 17.3246 86.3307 17.4676 85.7417 17.7441C85.3748 17.9164 85.0286 18.1202 84.7032 18.3555C84.3732 18.5812 84.1022 18.8321 83.8904 19.1084C83.6785 19.3847 83.5401 19.6794 83.4753 19.9927C83.4105 20.3059 83.4598 20.6363 83.6233 20.9838C83.7232 21.1961 83.8668 21.3761 84.0542 21.5238C84.237 21.6619 84.4854 21.7514 84.7994 21.7925C85.1135 21.8336 85.4979 21.8239 85.9528 21.7635C86.4032 21.6935 86.9529 21.5591 87.6021 21.3603Z" fill="white"/>
<path d="M118.874 17.5621L116.874 6.59091L119.109 6.1842C119.267 6.15556 119.485 6.13216 119.763 6.11399C120.04 6.08534 120.348 6.08339 120.689 6.10815C121.028 6.12241 121.395 6.17483 121.791 6.26541C122.187 6.35598 122.583 6.50619 122.979 6.71601C124.257 7.3617 125.234 8.46869 125.91 10.037L125.012 5.11015L127.247 4.70345L129.247 15.6747L127.012 16.0814L126.269 12.0046C126.031 10.9962 125.72 10.1529 125.336 9.47467C124.963 8.79451 124.548 8.2465 124.093 7.83061C123.646 7.40233 123.176 7.08137 122.682 6.86774C122.198 6.6522 121.733 6.50916 121.286 6.43863C120.838 6.3576 120.426 6.32951 120.051 6.35436C119.686 6.37731 119.389 6.40979 119.158 6.45179L121.109 17.1554L118.874 17.5621Z" fill="white"/>
<path d="M143.358 3.10617L145.773 3.04254L150.386 14.0769L148.003 14.1397L146.107 9.62803L141.549 9.74812L140.102 14.3478L139.814 14.3554L143.358 3.10617ZM141.637 9.47369L146.004 9.35866L143.527 3.45383L141.637 9.47369Z" fill="white"/>
<path d="M161.355 3.41275L163.618 3.61196L162.639 14.7209L160.376 14.5216L161.355 3.41275Z" fill="white"/>
<path d="M179.704 17.3657L171.115 15.6857L173.259 4.74187L175.489 5.17797L175.486 5.19368L175.502 5.19675L173.41 15.8737L179.753 17.1145L179.704 17.3657Z" fill="white"/>
<path d="M209.307 19.9123C210.301 20.5558 211.057 21.1526 211.576 21.7028C212.1 22.2433 212.456 22.7522 212.644 23.2294C212.832 23.7066 212.888 24.1631 212.813 24.5991C212.752 25.0299 212.626 25.448 212.435 25.8534C212.176 26.4036 211.864 26.8286 211.499 27.1286C211.139 27.4188 210.721 27.5937 210.245 27.653C209.769 27.7124 209.223 27.6566 208.608 27.4856C207.998 27.3288 207.307 27.0691 206.535 26.7064C205.772 26.3482 205.135 25.9726 204.625 25.5796C204.109 25.1963 203.72 24.7837 203.456 24.3417C203.207 23.8947 203.088 23.4086 203.099 22.8836C203.11 22.3586 203.264 21.7824 203.559 21.155L205.946 21.8693C205.705 22.3809 205.497 22.8606 205.322 23.3086C205.151 23.7469 205.065 24.1544 205.065 24.5313C205.074 24.9127 205.197 25.2651 205.434 25.5884C205.671 25.9118 206.074 26.2072 206.644 26.4747C207.252 26.7603 207.794 26.9737 208.27 27.1146C208.746 27.2556 209.165 27.305 209.526 27.2627C209.888 27.2205 210.205 27.0863 210.476 26.8602C210.752 26.6245 210.999 26.275 211.217 25.8117C211.371 25.4835 211.416 25.1628 211.351 24.8496C211.291 24.5267 211.131 24.2038 210.87 23.8811C210.619 23.5628 210.279 23.2324 209.851 22.8899C209.432 22.552 208.939 22.1967 208.372 21.8242C207.663 21.3502 207.092 20.911 206.658 20.5067C206.237 20.0972 205.932 19.6944 205.741 19.2984C205.564 18.8972 205.492 18.4983 205.526 18.1015C205.564 17.6951 205.692 17.2602 205.91 16.797C206.128 16.3337 206.42 15.9878 206.787 15.7594C207.158 15.5213 207.572 15.38 208.029 15.3354C208.491 15.2811 208.979 15.3097 209.492 15.4212C210.005 15.5326 210.513 15.7063 211.015 15.942C211.72 16.273 212.32 16.6256 212.816 16.9998C213.322 17.3786 213.704 17.7819 213.962 18.2097C214.235 18.6323 214.38 19.0891 214.396 19.5801C214.417 20.0613 214.296 20.5819 214.033 21.1417L211.876 20.4647C212.103 19.9821 212.288 19.5387 212.431 19.1345C212.588 18.7251 212.648 18.3468 212.611 17.9995C212.584 17.6567 212.44 17.3358 212.18 17.0369C211.92 16.738 211.495 16.4502 210.906 16.1737C210.539 16.0014 210.161 15.8651 209.772 15.7649C209.388 15.6551 209.022 15.6068 208.673 15.6201C208.325 15.6334 208.01 15.7151 207.727 15.8651C207.444 16.0152 207.221 16.2639 207.058 16.6114C206.958 16.8237 206.911 17.0491 206.917 17.2875C206.927 17.5162 207.016 17.7645 207.185 18.0322C207.354 18.3 207.607 18.5896 207.943 18.9009C208.285 19.2027 208.739 19.5398 209.307 19.9123Z" fill="white"/>
<path d="M225.677 24.0167L225.819 23.8039L235.362 30.1705L235.22 30.3833L231.4 27.8349L225.345 36.8938L223.455 35.6329L229.497 26.5651L225.677 24.0167Z" fill="white"/>
<path d="M244.488 37.0531L246.156 38.5958L241.643 43.4661C241.034 44.1233 240.561 44.696 240.225 45.1842C239.896 45.6647 239.693 46.0949 239.618 46.4751C239.542 46.8553 239.585 47.2082 239.749 47.5338C239.912 47.8595 240.182 48.1962 240.558 48.5438C240.997 48.9495 241.502 49.2205 242.073 49.3569C242.652 49.4855 243.256 49.4924 243.886 49.3777C244.516 49.2629 245.153 49.0309 245.797 48.6817C246.448 48.3398 247.069 47.8971 247.66 47.3538L251.336 43.3872L253.004 44.93L245.423 53.1096L243.755 51.5669L246.463 48.6447C245.947 48.9513 245.408 49.1946 244.849 49.3745C244.297 49.5618 243.75 49.6734 243.208 49.7093C242.666 49.7453 242.147 49.6936 241.65 49.5543C241.161 49.4071 240.721 49.1524 240.33 48.7903C239.711 48.2181 239.236 47.6554 238.905 47.1023C238.567 46.557 238.38 46.0059 238.343 45.449C238.307 44.8922 238.421 44.3219 238.685 43.7384C238.958 43.162 239.387 42.557 239.975 41.9233L244.488 37.0531Z" fill="white"/>
<path d="M261.96 54.312L263.348 56.1105L261.295 57.6925C261.401 57.6377 261.612 57.5624 261.929 57.4665C262.254 57.3641 262.629 57.3175 263.054 57.3268C263.485 57.3445 263.932 57.4516 264.393 57.6481C264.863 57.838 265.301 58.1948 265.705 58.7183C266.213 59.3769 266.592 60.0682 266.84 60.7921C267.096 61.5244 267.199 62.2599 267.149 62.9984C267.108 63.7305 266.893 64.4477 266.506 65.1503C266.127 65.8463 265.557 66.4872 264.796 67.0731C264.053 67.646 263.304 68.0206 262.551 68.197C261.805 68.3818 261.079 68.4021 260.375 68.2579C259.679 68.1072 259.017 67.8164 258.388 67.3854C257.767 66.9479 257.203 66.3999 256.694 65.7413L253.126 61.1183L261.96 54.312ZM256.715 65.4019C257.08 65.8748 257.511 66.223 258.007 66.4468C258.509 66.6789 259.051 66.7869 259.631 66.7707C260.218 66.7629 260.829 66.6289 261.464 66.3689C262.105 66.1172 262.746 65.744 263.389 65.2493C264.833 64.136 265.734 63.0247 266.091 61.9153C266.453 60.8143 266.27 59.791 265.54 58.8452C265.214 58.4231 264.829 58.1072 264.384 57.8977C263.946 57.6967 263.472 57.5974 262.962 57.5999C262.458 57.6109 261.93 57.7213 261.378 57.9313C260.841 58.1431 260.31 58.4509 259.787 58.8545L254.691 62.7801L256.715 65.4019Z" fill="white"/>
<path d="M275.868 73.8363L277.025 75.7917L267.423 81.4629L266.266 79.5075L275.868 73.8363Z" fill="white"/>
<path d="M276.743 86.463C277.664 86.0669 278.534 85.9019 279.352 85.968C280.18 86.0299 280.939 86.255 281.629 86.6433C282.319 87.0317 282.925 87.549 283.447 88.1952C283.979 88.8372 284.41 89.5402 284.739 90.3043C285.069 91.0684 285.284 91.8642 285.385 92.6916C285.495 93.5148 285.455 94.3102 285.263 95.0778C285.071 95.8454 284.713 96.5509 284.189 97.1944C283.674 97.8336 282.956 98.3512 282.035 98.7474C281.095 99.1519 280.21 99.3232 279.382 99.2613C278.564 99.1952 277.815 98.9659 277.135 98.5733C276.454 98.1808 275.848 97.6635 275.316 97.0215C274.794 96.3753 274.368 95.6701 274.039 94.906C273.714 94.1517 273.496 93.363 273.385 92.5398C273.284 91.7124 273.325 90.9169 273.507 90.1536C273.689 89.3902 274.035 88.684 274.545 88.035C275.07 87.3915 275.802 86.8675 276.743 86.463ZM284.504 90.4055C284.268 89.8569 283.956 89.3756 283.568 88.9617C283.185 88.5575 282.715 88.2606 282.157 88.0709C281.613 87.8868 280.966 87.8282 280.217 87.895C279.482 87.9674 278.634 88.2101 277.673 88.623C276.713 89.036 275.949 89.4865 275.381 89.9746C274.827 90.4682 274.425 90.9778 274.176 91.5032C273.93 92.0384 273.822 92.584 273.853 93.1399C273.887 93.7055 274.023 94.2626 274.259 94.8112C274.496 95.3598 274.805 95.8362 275.189 96.2403C275.576 96.6543 276.049 96.9561 276.607 97.1458C277.165 97.3355 277.811 97.3941 278.547 97.3217C279.292 97.2451 280.144 97.0003 281.105 96.5873C282.065 96.1743 282.824 95.7259 283.382 95.2421C283.95 94.754 284.352 94.2445 284.588 93.7135C284.833 93.1782 284.939 92.6278 284.904 92.0621C284.874 91.5063 284.74 90.954 284.504 90.4055Z" fill="white"/>
<path d="M295.179 125.734L292.057 126.169C292.176 126.174 292.422 126.199 292.794 126.244C293.177 126.287 293.581 126.403 294.006 126.592C294.432 126.791 294.828 127.081 295.193 127.461C295.559 127.84 295.788 128.368 295.883 129.045C295.94 129.457 295.963 129.89 295.951 130.344C295.939 130.798 295.863 131.223 295.725 131.619C295.586 132.015 295.369 132.352 295.074 132.63C294.781 132.919 294.375 133.099 293.857 133.171C293.498 133.221 293.155 133.194 292.828 133.088C292.501 132.983 292.203 132.815 291.934 132.583C291.676 132.36 291.455 132.084 291.269 131.755C291.095 131.434 290.964 131.076 290.876 130.679C290.903 131.181 290.891 131.673 290.84 132.154C290.788 132.635 290.672 133.071 290.489 133.462C290.307 133.854 290.04 134.182 289.689 134.446C289.351 134.719 288.901 134.895 288.341 134.973C287.56 135.082 286.935 135.002 286.466 134.733C286.01 134.474 285.651 134.098 285.388 133.607C285.127 133.127 284.937 132.572 284.817 131.942C284.707 131.311 284.609 130.684 284.522 130.061L283.819 125.022L294.865 123.484L295.179 125.734ZM290.139 126.436L284.403 127.234L284.701 129.374C284.785 129.976 284.88 130.501 284.985 130.949C285.092 131.408 285.256 131.773 285.477 132.044C285.71 132.324 286.022 132.512 286.412 132.609C286.815 132.714 287.349 132.72 288.014 132.628C288.585 132.548 289.05 132.408 289.41 132.207C289.769 132.007 290.039 131.743 290.22 131.416C290.402 131.1 290.505 130.719 290.529 130.275C290.565 129.839 290.545 129.346 290.469 128.797L290.139 126.436ZM295.609 128.937C295.522 128.314 295.265 127.822 294.838 127.462C294.423 127.11 293.939 126.849 293.388 126.678C292.848 126.516 292.296 126.421 291.732 126.392C291.18 126.371 290.728 126.375 290.377 126.403L290.792 129.382C290.826 129.625 290.9 129.846 291.014 130.045C291.13 130.256 291.3 130.431 291.524 130.572C291.75 130.724 292.038 130.824 292.39 130.872C292.742 130.93 293.172 130.924 293.679 130.854C294.123 130.792 294.476 130.7 294.739 130.577C295.014 130.463 295.221 130.321 295.359 130.151C295.498 129.992 295.58 129.808 295.605 129.6C295.642 129.401 295.643 129.18 295.609 128.937Z" fill="white"/>
<path d="M297.15 145.207L297.131 153.991L296.875 153.99L296.889 147.478L291.929 147.468L291.918 152.556L291.662 152.555L291.673 147.467L286.265 147.455L286.251 153.967L285.979 153.967L285.998 145.183L297.15 145.207Z" fill="white"/>
<path d="M284.28 171.756L285.45 163.083L296.503 164.571L296.199 166.822L296.183 166.82L296.181 166.836L285.398 165.384L284.534 171.79L284.28 171.756Z" fill="white"/>
<path d="M293.375 183.992L292.725 186.186L286.517 188.555L290.444 193.887L289.79 196.096L279.095 192.934L279.741 190.756L290.036 193.8L286.087 188.428L292.331 186.053L282.035 183.009L282.681 180.83L293.375 183.992Z" fill="white"/>
<path d="M283.672 211.489L282.62 213.664L270.696 212.702L271.734 210.556L276.614 210.941L278.6 206.836L275.177 203.442L275.302 203.182L283.672 211.489ZM278.803 207.041L276.901 210.973L283.285 211.48L278.803 207.041Z" fill="white"/>
<path d="M269.056 229.25C268.261 230.128 267.551 230.78 266.924 231.204C266.306 231.635 265.747 231.905 265.245 232.014C264.744 232.124 264.284 232.107 263.865 231.963C263.449 231.834 263.056 231.643 262.686 231.391C262.184 231.048 261.814 230.672 261.577 230.264C261.347 229.862 261.242 229.422 261.259 228.943C261.277 228.464 261.419 227.935 261.686 227.355C261.939 226.779 262.306 226.138 262.788 225.434C263.264 224.739 263.737 224.17 264.207 223.729C264.668 223.282 265.138 222.964 265.617 222.774C266.098 222.599 266.597 222.559 267.114 222.654C267.631 222.748 268.176 222.991 268.748 223.382L267.661 225.623C267.194 225.304 266.753 225.023 266.339 224.778C265.933 224.54 265.544 224.391 265.172 224.33C264.794 224.279 264.426 224.344 264.069 224.526C263.711 224.708 263.355 225.059 262.999 225.578C262.62 226.133 262.322 226.634 262.107 227.081C261.892 227.528 261.776 227.933 261.76 228.297C261.744 228.66 261.825 228.994 262.005 229.298C262.194 229.607 262.5 229.907 262.923 230.196C263.222 230.4 263.532 230.495 263.852 230.481C264.18 230.473 264.525 230.366 264.885 230.16C265.24 229.963 265.621 229.681 266.027 229.313C266.428 228.954 266.858 228.524 267.317 228.024C267.898 227.4 268.424 226.907 268.893 226.542C269.365 226.193 269.811 225.956 270.233 225.83C270.658 225.72 271.063 225.713 271.45 225.809C271.845 225.911 272.254 226.106 272.677 226.395C273.1 226.684 273.395 227.027 273.562 227.426C273.738 227.83 273.811 228.261 273.782 228.719C273.761 229.183 273.655 229.66 273.463 230.148C273.271 230.637 273.018 231.11 272.705 231.568C272.265 232.211 271.821 232.747 271.371 233.176C270.916 233.615 270.457 233.927 269.993 234.114C269.532 234.316 269.057 234.386 268.57 234.324C268.091 234.268 267.596 234.066 267.085 233.717L268.099 231.697C268.54 231.998 268.948 232.251 269.324 232.456C269.704 232.676 270.068 232.796 270.417 232.815C270.76 232.842 271.1 232.752 271.437 232.543C271.774 232.334 272.126 231.961 272.493 231.424C272.722 231.089 272.917 230.738 273.078 230.37C273.248 230.008 273.355 229.655 273.397 229.309C273.44 228.964 273.41 228.639 273.307 228.337C273.204 228.034 272.994 227.774 272.677 227.557C272.483 227.425 272.268 227.343 272.031 227.31C271.804 227.284 271.544 227.333 271.253 227.457C270.961 227.581 270.635 227.784 270.273 228.067C269.921 228.355 269.515 228.75 269.056 229.25Z" fill="white"/>
<path d="M244.032 248.366L251.321 256.806L249.6 258.289C249.479 258.394 249.303 258.524 249.072 258.681C248.848 258.846 248.583 259.004 248.276 259.155C247.977 259.315 247.634 259.456 247.247 259.579C246.859 259.701 246.442 259.773 245.994 259.792C244.565 259.884 243.161 259.425 241.782 258.416L245.056 262.207L243.335 263.69L236.046 255.25L237.766 253.767L240.475 256.903C241.192 257.651 241.887 258.22 242.562 258.61C243.229 259.007 243.865 259.269 244.468 259.397C245.07 259.539 245.639 259.577 246.173 259.511C246.7 259.451 247.173 259.339 247.594 259.173C248.022 259.016 248.391 258.831 248.702 258.62C249.004 258.415 249.245 258.236 249.422 258.083L242.311 249.849L244.032 248.366Z" fill="white"/>
<path d="M230.261 273.226L228.211 274.504L218.636 267.333L220.659 266.072L224.582 268.999L228.451 266.586L227.365 261.889L227.609 261.736L230.261 273.226ZM228.514 266.867L224.808 269.179L229.939 273.012L228.514 266.867Z" fill="white"/>
<path d="M214.594 282.078L212.542 283.053L207.749 272.983L209.801 272.008L214.594 282.078Z" fill="white"/>
<path d="M191.697 279.347L199.954 276.444L203.659 286.962L201.516 287.716L201.51 287.701L201.495 287.706L197.88 277.444L191.782 279.589L191.697 279.347Z" fill="white"/>
<path d="M164.891 292.146C163.708 292.095 162.753 291.963 162.026 291.752C161.301 291.552 160.736 291.293 160.331 290.977C159.927 290.661 159.647 290.296 159.491 289.882C159.325 289.479 159.221 289.055 159.18 288.609C159.124 288.004 159.177 287.479 159.339 287.036C159.503 286.603 159.774 286.24 160.154 285.948C160.534 285.656 161.033 285.427 161.649 285.263C162.255 285.089 162.982 284.963 163.832 284.885C164.671 284.807 165.41 284.808 166.05 284.888C166.688 284.958 167.233 285.116 167.685 285.363C168.126 285.623 168.476 285.981 168.732 286.439C168.989 286.898 169.149 287.472 169.213 288.162L166.794 288.756C166.742 288.193 166.678 287.674 166.601 287.199C166.526 286.735 166.393 286.34 166.202 286.015C166.001 285.691 165.716 285.449 165.348 285.291C164.98 285.132 164.482 285.081 163.855 285.139C163.186 285.201 162.611 285.292 162.129 285.412C161.648 285.531 161.262 285.701 160.971 285.921C160.681 286.14 160.476 286.416 160.357 286.749C160.239 287.092 160.204 287.518 160.251 288.028C160.284 288.389 160.408 288.688 160.623 288.925C160.839 289.173 161.141 289.37 161.53 289.516C161.908 289.664 162.368 289.776 162.911 289.855C163.443 289.934 164.048 289.99 164.726 290.024C165.577 290.074 166.292 290.163 166.872 290.291C167.442 290.431 167.91 290.624 168.275 290.868C168.631 291.125 168.895 291.432 169.068 291.791C169.241 292.161 169.352 292.601 169.399 293.11C169.446 293.62 169.37 294.067 169.17 294.449C168.971 294.843 168.685 295.174 168.314 295.444C167.944 295.725 167.509 295.947 167.01 296.111C166.511 296.275 165.985 296.383 165.433 296.434C164.658 296.506 163.961 296.506 163.344 296.435C162.716 296.364 162.183 296.21 161.743 295.972C161.293 295.746 160.937 295.426 160.673 295.011C160.411 294.607 160.251 294.096 160.194 293.48L162.396 292.971C162.446 293.502 162.511 293.978 162.593 294.399C162.665 294.832 162.806 295.188 163.014 295.469C163.211 295.751 163.498 295.954 163.874 296.08C164.25 296.206 164.762 296.239 165.409 296.179C165.813 296.142 166.208 296.068 166.594 295.957C166.981 295.857 167.321 295.713 167.615 295.525C167.908 295.337 168.138 295.107 168.306 294.835C168.473 294.562 168.539 294.234 168.504 293.852C168.482 293.618 168.408 293.4 168.282 293.198C168.158 293.006 167.954 292.837 167.673 292.692C167.392 292.546 167.027 292.425 166.579 292.327C166.131 292.24 165.569 292.179 164.891 292.146Z" fill="white"/>
<path d="M148.697 296.901L148.683 297.157L137.229 296.504L137.244 296.248L141.828 296.509L142.45 285.631L144.718 285.761L144.113 296.64L148.697 296.901Z" fill="white"/>
<path d="M125.868 295.194L123.648 294.709L125.067 288.223C125.259 287.347 125.375 286.614 125.417 286.023C125.457 285.442 125.413 284.968 125.286 284.602C125.159 284.236 124.942 283.954 124.636 283.756C124.33 283.558 123.926 283.404 123.426 283.295C122.843 283.168 122.27 283.19 121.708 283.362C121.144 283.545 120.62 283.845 120.135 284.263C119.651 284.682 119.22 285.204 118.842 285.832C118.454 286.457 118.144 287.153 117.91 287.921L116.754 293.204L114.535 292.719L116.918 281.825L119.138 282.31L118.286 286.202C118.576 285.675 118.916 285.193 119.307 284.754C119.688 284.313 120.102 283.94 120.551 283.634C121.001 283.328 121.474 283.109 121.972 282.978C122.468 282.857 122.977 282.853 123.498 282.967C124.321 283.147 125.016 283.391 125.581 283.7C126.149 283.999 126.59 284.379 126.904 284.841C127.218 285.302 127.409 285.852 127.477 286.489C127.535 287.124 127.471 287.863 127.287 288.707L125.868 295.194Z" fill="white"/>
<path d="M102.05 289.169L99.9413 288.322L100.909 285.918C100.845 286.019 100.701 286.191 100.477 286.434C100.248 286.687 99.9488 286.917 99.578 287.125C99.1972 287.328 98.7581 287.462 98.2607 287.527C97.7593 287.601 97.2018 287.516 96.5881 287.269C95.816 286.959 95.1392 286.555 94.5576 286.057C93.9662 285.555 93.5047 284.974 93.173 284.312C92.8375 283.66 92.6585 282.933 92.6362 282.131C92.61 281.338 92.776 280.497 93.1342 279.606C93.4846 278.736 93.9396 278.033 94.4992 277.499C95.049 276.961 95.6639 276.576 96.3439 276.343C97.0199 276.121 97.7382 276.035 98.4989 276.088C99.2556 276.15 100.02 276.337 100.792 276.647L106.212 278.823L102.05 289.169ZM100.946 276.95C100.392 276.727 99.8441 276.645 99.3031 276.704C98.7523 276.759 98.2309 276.94 97.739 277.248C97.2371 277.553 96.7787 277.978 96.3636 278.524C95.9386 279.066 95.5749 279.713 95.2723 280.465C94.5916 282.157 94.379 283.572 94.6344 284.709C94.88 285.842 95.5571 286.631 96.6657 287.076C97.1606 287.275 97.6528 287.352 98.1423 287.307C98.6218 287.258 99.0807 287.103 99.5191 286.842C99.9475 286.578 100.346 286.215 100.716 285.754C101.071 285.299 101.372 284.765 101.619 284.151L104.02 278.184L100.946 276.95Z" fill="white"/>
<path d="M80.1531 279.386L78.1645 278.287L83.5652 268.53L85.5539 269.629L80.1531 279.386Z" fill="white"/>
<path d="M72.9926 268.944C72.3995 269.752 71.7334 270.335 70.9946 270.693C70.2494 271.06 69.4809 271.251 68.6892 271.266C67.8975 271.281 67.1127 271.143 66.3348 270.85C65.5506 270.567 64.8228 270.179 64.1516 269.688C63.4804 269.196 62.8915 268.619 62.3849 267.958C61.872 267.304 61.5036 266.598 61.2799 265.839C61.0561 265.081 61.007 264.291 61.1326 263.471C61.2519 262.659 61.6081 261.849 62.2013 261.041C62.807 260.215 63.4825 259.619 64.2277 259.252C64.9666 258.894 65.7288 258.712 66.5141 258.706C67.2995 258.699 68.0843 258.838 68.8685 259.121C69.6465 259.413 70.3711 259.805 71.0423 260.297C71.7049 260.782 72.2927 261.351 72.8056 262.005C73.3122 262.666 73.6805 263.372 73.9106 264.123C74.1407 264.873 74.2004 265.657 74.0897 266.475C73.9641 267.295 73.5984 268.118 72.9926 268.944ZM64.303 269.481C64.785 269.834 65.2978 270.091 65.8417 270.251C66.377 270.405 66.9331 270.423 67.5103 270.303C68.0725 270.186 68.6596 269.909 69.2717 269.471C69.8689 269.036 70.4767 268.397 71.0951 267.554C71.7135 266.711 72.1437 265.936 72.3858 265.227C72.6129 264.521 72.701 263.878 72.6499 263.299C72.5902 262.713 72.4063 262.188 72.0982 261.724C71.7815 261.255 71.3822 260.843 70.9003 260.49C70.4184 260.137 69.9098 259.884 69.3746 259.73C68.8307 259.569 68.2702 259.549 67.6931 259.668C67.116 259.788 66.5288 260.065 65.9316 260.5C65.3281 260.944 64.7172 261.587 64.0988 262.43C63.4804 263.273 63.0533 264.044 62.8176 264.744C62.5755 265.453 62.4875 266.096 62.5535 266.673C62.6132 267.259 62.8014 267.787 63.118 268.257C63.4261 268.72 63.8211 269.128 64.303 269.481Z" fill="white"/>
</svg>
