<svg width="30" height="32" viewBox="0 0 30 32" fill="none" xmlns="http://www.w3.org/2000/svg">
<path d="M15 0C6.7 0 0 6.7 0 15C0 18.4 1.1 21.6 3.2 24.2L1.1 30.6C1 31 1.1 31.4 1.4 31.7C1.5 31.9 1.8 32 2 32C2.1 32 2.3 32 2.4 31.9L9.3 28.8C11.1 29.6 13 30 15 30C23.3 30 30 23.3 30 15C30 6.7 23.3 0 15 0Z" fill="black"/>
<path d="M23.7 20.5C23.3 21.7 21.8 22.7 20.5 22.9C20.2 23 19.9 23 19.5 23C18.7 23 17.5 22.8 15.4 21.9C13 20.9 10.6 18.8 8.7 16.1V16C8.1 15.1 7 13.4 7 11.6C7 9.4 8.1 8.3 8.5 7.8C9 7.3 9.7 7 10.5 7C10.7 7 10.8 7 11 7C11.7 7 12.2 7.2 12.7 8.2L13.1 9C13.4 9.8 13.8 10.7 13.9 10.8C14.2 11.4 14.2 11.9 13.9 12.4C13.8 12.7 13.6 12.9 13.4 13.1C13.3 13.3 13.2 13.4 13.1 13.4C13 13.5 13 13.5 12.9 13.6C13.2 14.1 13.8 15 14.6 15.7C15.8 16.8 16.7 17.1 17.2 17.3C17.4 17.1 17.6 16.7 17.9 16.4L18 16.2C18.5 15.5 19.3 15.3 20.1 15.6C20.5 15.8 22.7 16.8 22.7 16.8L22.9 16.9C23.2 17.1 23.6 17.2 23.8 17.6C24.2 18.5 23.9 19.8 23.7 20.5Z" fill="white"/>
</svg>
