<svg width="48.00000000000001" height="48.00000000000001" xmlns="http://www.w3.org/2000/svg">

 <g>
  <title>background</title>
  <rect fill="none" id="canvas_background" height="402" width="582" y="-1" x="-1"/>
 </g>
 <g>
  <title>Layer 1</title>
  <ellipse ry="19.999952" rx="21.267555" id="svg_3" cy="24.204665" cx="23.999998" stroke-width="1.5" stroke="#000" fill="#fff"/>
  <path id="svg_1" fill="black" d="m0,24c0,13.2548 10.7452,24 24,24c13.2548,0 24,-10.7452 24,-24c0,-13.2548 -10.7452,-24 -24,-24c-13.2548,0 -24,10.7452 -24,24zm39.0621,-0.9185c-0.0031,7.8668 -6.4026,14.2678 -14.271,14.271l-0.0059,0c-2.3885,-0.0008 -4.7354,-0.6001 -6.8199,-1.737l-7.5653,1.9845l2.0246,-7.3952c-1.2489,-2.1643 -1.906,-4.6193 -1.905,-7.1346c0.0032,-7.8685 6.4052,-14.2702 14.2713,-14.2702c3.8177,0.00165 7.4009,1.4879 10.0953,4.1854c2.6944,2.6974 4.1775,6.2829 4.1759,10.0961z" clip-rule="evenodd" fill-rule="evenodd"/>
  <path id="svg_2" fill="black" d="m13.8265,34.2096l4.4894,-1.1777l0.4331,0.2571c1.8212,1.0807 3.9088,1.6525 6.0373,1.6534l0.0048,0c6.5378,0 11.8588,-5.3212 11.8615,-11.8617c0.0012,-3.1695 -1.2314,-6.1496 -3.4709,-8.3917c-2.2395,-2.2421 -5.2177,-3.4775 -8.3859,-3.4786c-6.5429,0 -11.864,5.3207 -11.8666,11.8607c-0.0009,2.2413 0.6262,4.424 1.8136,6.3125l0.282,0.4488l-1.1983,4.3772zm17.6659,-8.0555c0.2487,0.1202 0.4167,0.2013 0.4884,0.321c0.0891,0.1487 0.0891,0.8627 -0.2079,1.6958c-0.2973,0.8329 -1.7218,1.5931 -2.407,1.6954c-0.6143,0.0919 -1.3917,0.1302 -2.2459,-0.1413c-0.518,-0.1643 -1.1821,-0.3837 -2.0329,-0.7511c-3.3429,-1.4435 -5.6021,-4.6835 -6.029,-5.2959c-0.0299,-0.0429 -0.0509,-0.0729 -0.0625,-0.0884l-0.0029,-0.0039c-0.1887,-0.2518 -1.4532,-1.9389 -1.4532,-3.6849c0,-1.6425 0.8069,-2.5035 1.1783,-2.8998c0.0254,-0.0271 0.0488,-0.0521 0.0698,-0.075c0.3268,-0.357 0.7132,-0.4462 0.9509,-0.4462c0.2377,0 0.4756,0.0022 0.6834,0.0126c0.0256,0.0013 0.0523,0.0011 0.0799,0.001c0.2078,-0.0013 0.4668,-0.0028 0.7224,0.6111c0.0983,0.2363 0.2422,0.5865 0.3939,0.9558c0.3068,0.7471 0.6459,1.5725 0.7055,1.6919c0.0892,0.1785 0.1486,0.3867 0.0297,0.6248c-0.0178,0.0357 -0.0343,0.0694 -0.0501,0.1015c-0.0892,0.1823 -0.1549,0.3164 -0.3064,0.4933c-0.0596,0.0696 -0.1212,0.1446 -0.1828,0.2195c-0.1226,0.1494 -0.2453,0.2988 -0.3521,0.4052c-0.1785,0.1778 -0.3644,0.3708 -0.1564,0.7278c0.208,0.357 0.9237,1.5246 1.9838,2.4702c1.1395,1.0164 2.1299,1.446 2.6319,1.6638c0.098,0.0425 0.1774,0.0769 0.2357,0.1061c0.3564,0.1785 0.5645,0.1487 0.7725,-0.0893c0.208,-0.2379 0.8914,-1.0412 1.1291,-1.3982c0.2376,-0.3568 0.4755,-0.2974 0.8023,-0.1784c0.3269,0.1191 2.08,0.9816 2.4366,1.1601c0.0696,0.0349 0.1347,0.0663 0.195,0.0955z" clip-rule="evenodd" fill-rule="evenodd"/>
 </g>
</svg>